<?xml version="1.0" encoding="UTF-8" standalone="no"?>
<!DOCTYPE svg PUBLIC "-//W3C//DTD SVG 1.1//EN"
 "http://www.w3.org/Graphics/SVG/1.1/DTD/svg11.dtd">
<!-- Generated by graphviz version 2.43.0 (0)
 -->
<!-- Title: sources/Common/Drawables/ADrawable.hpp Pages: 1 -->
<svg width="909pt" height="296pt"
 viewBox="0.00 0.00 909.00 296.00" xmlns="http://www.w3.org/2000/svg" xmlns:xlink="http://www.w3.org/1999/xlink">
<g id="graph0" class="graph" transform="scale(1 1) rotate(0) translate(4 292)">
<title>sources/Common/Drawables/ADrawable.hpp</title>
<polygon fill="white" stroke="transparent" points="-4,4 -4,-292 905,-292 905,4 -4,4"/>
<!-- Node1 -->
<g id="node1" class="node">
<title>Node1</title>
<g id="a_node1"><a xlink:title=" ">
<polygon fill="#bfbfbf" stroke="black" points="435,-257.5 435,-287.5 591,-287.5 591,-257.5 435,-257.5"/>
<text text-anchor="start" x="443" y="-275.5" font-family="Helvetica,sans-Serif" font-size="10.00">sources/Common/Drawables</text>
<text text-anchor="middle" x="513" y="-264.5" font-family="Helvetica,sans-Serif" font-size="10.00">/ADrawable.hpp</text>
</a>
</g>
</g>
<!-- Node2 -->
<g id="node2" class="node">
<title>Node2</title>
<g id="a_node2"><a xlink:href="Circle_8hpp.html" target="_top" xlink:title=" ">
<polygon fill="white" stroke="black" points="0,-190.5 0,-220.5 156,-220.5 156,-190.5 0,-190.5"/>
<text text-anchor="start" x="8" y="-208.5" font-family="Helvetica,sans-Serif" font-size="10.00">sources/Common/Drawables</text>
<text text-anchor="middle" x="78" y="-197.5" font-family="Helvetica,sans-Serif" font-size="10.00">/Circle.hpp</text>
</a>
</g>
</g>
<!-- Node1&#45;&gt;Node2 -->
<g id="edge1" class="edge">
<title>Node1&#45;&gt;Node2</title>
<path fill="none" stroke="midnightblue" d="M424.68,-259.21C354.29,-249.28 253.25,-234.76 165,-221 162.13,-220.55 159.2,-220.09 156.24,-219.62"/>
<polygon fill="midnightblue" stroke="midnightblue" points="424.45,-262.71 434.84,-260.64 425.43,-255.78 424.45,-262.71"/>
</g>
<!-- Node7 -->
<g id="node7" class="node">
<title>Node7</title>
<g id="a_node7"><a xlink:href="Line_8hpp.html" target="_top" xlink:title=" ">
<polygon fill="white" stroke="black" points="174,-190.5 174,-220.5 330,-220.5 330,-190.5 174,-190.5"/>
<text text-anchor="start" x="182" y="-208.5" font-family="Helvetica,sans-Serif" font-size="10.00">sources/Common/Drawables</text>
<text text-anchor="middle" x="252" y="-197.5" font-family="Helvetica,sans-Serif" font-size="10.00">/Line.hpp</text>
</a>
</g>
</g>
<!-- Node1&#45;&gt;Node7 -->
<g id="edge6" class="edge">
<title>Node1&#45;&gt;Node7</title>
<path fill="none" stroke="midnightblue" d="M446.95,-255.05C404.28,-244.43 349.34,-230.74 308.66,-220.61"/>
<polygon fill="midnightblue" stroke="midnightblue" points="446.14,-258.46 456.69,-257.48 447.83,-251.66 446.14,-258.46"/>
</g>
<!-- Node8 -->
<g id="node8" class="node">
<title>Node8</title>
<g id="a_node8"><a xlink:href="Rectangle_8hpp.html" target="_top" xlink:title=" ">
<polygon fill="white" stroke="black" points="348,-190.5 348,-220.5 504,-220.5 504,-190.5 348,-190.5"/>
<text text-anchor="start" x="356" y="-208.5" font-family="Helvetica,sans-Serif" font-size="10.00">sources/Common/Drawables</text>
<text text-anchor="middle" x="426" y="-197.5" font-family="Helvetica,sans-Serif" font-size="10.00">/Rectangle.hpp</text>
</a>
</g>
</g>
<!-- Node1&#45;&gt;Node8 -->
<g id="edge8" class="edge">
<title>Node1&#45;&gt;Node8</title>
<path fill="none" stroke="midnightblue" d="M485.79,-251.17C472.48,-241.23 456.8,-229.51 444.84,-220.58"/>
<polygon fill="midnightblue" stroke="midnightblue" points="484.02,-254.21 494.12,-257.4 488.21,-248.61 484.02,-254.21"/>
</g>
<!-- Node9 -->
<g id="node9" class="node">
<title>Node9</title>
<g id="a_node9"><a xlink:href="Sprite_8hpp.html" target="_top" xlink:title=" ">
<polygon fill="white" stroke="black" points="522,-190.5 522,-220.5 678,-220.5 678,-190.5 522,-190.5"/>
<text text-anchor="start" x="530" y="-208.5" font-family="Helvetica,sans-Serif" font-size="10.00">sources/Common/Drawables</text>
<text text-anchor="middle" x="600" y="-197.5" font-family="Helvetica,sans-Serif" font-size="10.00">/Sprite.hpp</text>
</a>
</g>
</g>
<!-- Node1&#45;&gt;Node9 -->
<g id="edge10" class="edge">
<title>Node1&#45;&gt;Node9</title>
<path fill="none" stroke="midnightblue" d="M540.21,-251.17C553.52,-241.23 569.2,-229.51 581.16,-220.58"/>
<polygon fill="midnightblue" stroke="midnightblue" points="537.79,-248.61 531.88,-257.4 541.98,-254.21 537.79,-248.61"/>
</g>
<!-- Node10 -->
<g id="node10" class="node">
<title>Node10</title>
<g id="a_node10"><a xlink:href="Text_8hpp.html" target="_top" xlink:title=" ">
<polygon fill="white" stroke="black" points="696,-190.5 696,-220.5 852,-220.5 852,-190.5 696,-190.5"/>
<text text-anchor="start" x="704" y="-208.5" font-family="Helvetica,sans-Serif" font-size="10.00">sources/Common/Drawables</text>
<text text-anchor="middle" x="774" y="-197.5" font-family="Helvetica,sans-Serif" font-size="10.00">/Text.hpp</text>
</a>
</g>
</g>
<!-- Node1&#45;&gt;Node10 -->
<g id="edge12" class="edge">
<title>Node1&#45;&gt;Node10</title>
<path fill="none" stroke="midnightblue" d="M579.05,-255.05C621.72,-244.43 676.66,-230.74 717.34,-220.61"/>
<polygon fill="midnightblue" stroke="midnightblue" points="578.17,-251.66 569.31,-257.48 579.86,-258.46 578.17,-251.66"/>
</g>
<!-- Node11 -->
<g id="node11" class="node">
<title>Node11</title>
<g id="a_node11"><a xlink:href="IGameModule_8hpp.html" target="_top" xlink:title=" ">
<polygon fill="white" stroke="black" points="707,-134.5 707,-153.5 901,-153.5 901,-134.5 707,-134.5"/>
<text text-anchor="middle" x="804" y="-141.5" font-family="Helvetica,sans-Serif" font-size="10.00">sources/Common/IGameModule.hpp</text>
</a>
</g>
</g>
<!-- Node1&#45;&gt;Node11 -->
<g id="edge14" class="edge">
<title>Node1&#45;&gt;Node11</title>
<path fill="none" stroke="midnightblue" d="M601.46,-271.32C693.3,-269.03 828.08,-259.04 861,-221 870.02,-210.58 867.01,-202.4 861,-190 852.97,-173.43 835.56,-161.13 822.08,-153.61"/>
<polygon fill="midnightblue" stroke="midnightblue" points="601.24,-267.83 591.32,-271.55 601.4,-274.83 601.24,-267.83"/>
</g>
<!-- Node3 -->
<g id="node3" class="node">
<title>Node3</title>
<g id="a_node3"><a xlink:href="IDisplayModule_8hpp.html" target="_top" xlink:title=" ">
<polygon fill="white" stroke="black" points="412.5,-134.5 412.5,-153.5 613.5,-153.5 613.5,-134.5 412.5,-134.5"/>
<text text-anchor="middle" x="513" y="-141.5" font-family="Helvetica,sans-Serif" font-size="10.00">sources/Common/IDisplayModule.hpp</text>
</a>
</g>
</g>
<!-- Node2&#45;&gt;Node3 -->
<g id="edge2" class="edge">
<title>Node2&#45;&gt;Node3</title>
<path fill="none" stroke="midnightblue" d="M166.32,-189.84C267.44,-175 373.08,-161.76 441.25,-153.5"/>
<polygon fill="midnightblue" stroke="midnightblue" points="165.62,-186.4 156.23,-191.32 166.64,-193.33 165.62,-186.4"/>
</g>
<!-- Node4 -->
<g id="node4" class="node">
<title>Node4</title>
<g id="a_node4"><a xlink:href="Runner_8hpp.html" target="_top" xlink:title=" ">
<polygon fill="white" stroke="black" points="562.5,-67.5 562.5,-97.5 679.5,-97.5 679.5,-67.5 562.5,-67.5"/>
<text text-anchor="start" x="570.5" y="-85.5" font-family="Helvetica,sans-Serif" font-size="10.00">sources/Core/Runner</text>
<text text-anchor="middle" x="621" y="-74.5" font-family="Helvetica,sans-Serif" font-size="10.00">/Runner.hpp</text>
</a>
</g>
</g>
<!-- Node3&#45;&gt;Node4 -->
<g id="edge3" class="edge">
<title>Node3&#45;&gt;Node4</title>
<path fill="none" stroke="midnightblue" d="M537.43,-129.54C554.76,-119.99 577.98,-107.2 595.55,-97.52"/>
<polygon fill="midnightblue" stroke="midnightblue" points="535.54,-126.58 528.47,-134.48 538.92,-132.72 535.54,-126.58"/>
</g>
<!-- Node5 -->
<g id="node5" class="node">
<title>Node5</title>
<g id="a_node5"><a xlink:href="main_8cpp.html" target="_top" xlink:title=" ">
<polygon fill="white" stroke="black" points="536,-6 536,-25 598,-25 598,-6 536,-6"/>
<text text-anchor="middle" x="567" y="-13" font-family="Helvetica,sans-Serif" font-size="10.00">main.cpp</text>
</a>
</g>
</g>
<!-- Node4&#45;&gt;Node5 -->
<g id="edge4" class="edge">
<title>Node4&#45;&gt;Node5</title>
<path fill="none" stroke="midnightblue" d="M602.85,-59.66C593.06,-47.86 581.51,-33.97 574.22,-25.19"/>
<polygon fill="midnightblue" stroke="midnightblue" points="600.2,-61.94 609.28,-67.4 605.58,-57.47 600.2,-61.94"/>
</g>
<!-- Node6 -->
<g id="node6" class="node">
<title>Node6</title>
<g id="a_node6"><a xlink:href="Runner_8cpp.html" target="_top" xlink:title=" ">
<polygon fill="white" stroke="black" points="616.5,-0.5 616.5,-30.5 733.5,-30.5 733.5,-0.5 616.5,-0.5"/>
<text text-anchor="start" x="624.5" y="-18.5" font-family="Helvetica,sans-Serif" font-size="10.00">sources/Core/Runner</text>
<text text-anchor="middle" x="675" y="-7.5" font-family="Helvetica,sans-Serif" font-size="10.00">/Runner.cpp</text>
</a>
</g>
</g>
<!-- Node4&#45;&gt;Node6 -->
<g id="edge5" class="edge">
<title>Node4&#45;&gt;Node6</title>
<path fill="none" stroke="midnightblue" d="M639.32,-59.45C647.25,-49.9 656.3,-39 663.31,-30.58"/>
<polygon fill="midnightblue" stroke="midnightblue" points="636.42,-57.47 632.72,-67.4 641.8,-61.94 636.42,-57.47"/>
</g>
<!-- Node7&#45;&gt;Node3 -->
<g id="edge7" class="edge">
<title>Node7&#45;&gt;Node3</title>
<path fill="none" stroke="midnightblue" d="M323.48,-188.2C372.71,-176.98 436.14,-162.52 475.69,-153.51"/>
<polygon fill="midnightblue" stroke="midnightblue" points="322.49,-184.84 313.52,-190.47 324.05,-191.66 322.49,-184.84"/>
</g>
<!-- Node8&#45;&gt;Node3 -->
<g id="edge9" class="edge">
<title>Node8&#45;&gt;Node3</title>
<path fill="none" stroke="midnightblue" d="M455.27,-184.48C470.59,-174 488.57,-161.71 500.34,-153.66"/>
<polygon fill="midnightblue" stroke="midnightblue" points="452.9,-181.87 446.62,-190.4 456.85,-187.64 452.9,-181.87"/>
</g>
<!-- Node9&#45;&gt;Node3 -->
<g id="edge11" class="edge">
<title>Node9&#45;&gt;Node3</title>
<path fill="none" stroke="midnightblue" d="M570.73,-184.48C555.41,-174 537.43,-161.71 525.66,-153.66"/>
<polygon fill="midnightblue" stroke="midnightblue" points="569.15,-187.64 579.38,-190.4 573.1,-181.87 569.15,-187.64"/>
</g>
<!-- Node10&#45;&gt;Node3 -->
<g id="edge13" class="edge">
<title>Node10&#45;&gt;Node3</title>
<path fill="none" stroke="midnightblue" d="M702.52,-188.2C653.29,-176.98 589.86,-162.52 550.31,-153.51"/>
<polygon fill="midnightblue" stroke="midnightblue" points="701.95,-191.66 712.48,-190.47 703.51,-184.84 701.95,-191.66"/>
</g>
<!-- Node11&#45;&gt;Node4 -->
<g id="edge15" class="edge">
<title>Node11&#45;&gt;Node4</title>
<path fill="none" stroke="midnightblue" d="M768.19,-131.36C738.37,-121.66 695.82,-107.83 664.13,-97.52"/>
<polygon fill="midnightblue" stroke="midnightblue" points="767.19,-134.71 777.78,-134.48 769.35,-128.05 767.19,-134.71"/>
</g>
</g>
</svg>
