<?xml version="1.0" encoding="UTF-8" standalone="no"?>
<!DOCTYPE svg PUBLIC "-//W3C//DTD SVG 1.1//EN"
 "http://www.w3.org/Graphics/SVG/1.1/DTD/svg11.dtd">
<!-- Generated by graphviz version 2.43.0 (0)
 -->
<!-- Title: Arcade::ADrawable Pages: 1 -->
<svg width="690pt" height="303pt"
 viewBox="0.00 0.00 690.00 303.00" xmlns="http://www.w3.org/2000/svg" xmlns:xlink="http://www.w3.org/1999/xlink">
<g id="graph0" class="graph" transform="scale(1 1) rotate(0) translate(4 299)">
<title>Arcade::ADrawable</title>
<polygon fill="white" stroke="transparent" points="-4,4 -4,-299 686,-299 686,4 -4,4"/>
<!-- Node1 -->
<g id="node1" class="node">
<title>Node1</title>
<g id="a_node1"><a xlink:title="A base class for every objects in the game.">
<polygon fill="#bfbfbf" stroke="black" points="286,-171.5 286,-294.5 396,-294.5 396,-171.5 286,-171.5"/>
<text text-anchor="middle" x="341" y="-282.5" font-family="Helvetica,sans-Serif" font-size="10.00">Arcade::ADrawable</text>
<polyline fill="none" stroke="black" points="286,-275.5 396,-275.5 "/>
<text text-anchor="start" x="294" y="-263.5" font-family="Helvetica,sans-Serif" font-size="10.00">+ x</text>
<text text-anchor="start" x="294" y="-252.5" font-family="Helvetica,sans-Serif" font-size="10.00">+ y</text>
<text text-anchor="start" x="294" y="-241.5" font-family="Helvetica,sans-Serif" font-size="10.00">+ color</text>
<text text-anchor="start" x="294" y="-230.5" font-family="Helvetica,sans-Serif" font-size="10.00">+ fallback</text>
<polyline fill="none" stroke="black" points="286,-223.5 396,-223.5 "/>
<text text-anchor="start" x="294" y="-211.5" font-family="Helvetica,sans-Serif" font-size="10.00">+ ~ADrawable()</text>
<text text-anchor="start" x="294" y="-200.5" font-family="Helvetica,sans-Serif" font-size="10.00">+ operator=()</text>
<text text-anchor="start" x="294" y="-189.5" font-family="Helvetica,sans-Serif" font-size="10.00"># ADrawable()</text>
<text text-anchor="start" x="294" y="-178.5" font-family="Helvetica,sans-Serif" font-size="10.00"># ADrawable()</text>
</a>
</g>
</g>
<!-- Node2 -->
<g id="node2" class="node">
<title>Node2</title>
<g id="a_node2"><a xlink:href="classArcade_1_1Drawables_1_1Circle.html" target="_top" xlink:title="A circle game objecct.">
<polygon fill="white" stroke="black" points="0,-17 0,-118 114,-118 114,-17 0,-17"/>
<text text-anchor="start" x="8" y="-106" font-family="Helvetica,sans-Serif" font-size="10.00">Arcade::Drawables::</text>
<text text-anchor="middle" x="57" y="-95" font-family="Helvetica,sans-Serif" font-size="10.00">Circle</text>
<polyline fill="none" stroke="black" points="0,-88 114,-88 "/>
<text text-anchor="start" x="8" y="-76" font-family="Helvetica,sans-Serif" font-size="10.00">+ size</text>
<polyline fill="none" stroke="black" points="0,-69 114,-69 "/>
<text text-anchor="start" x="8" y="-57" font-family="Helvetica,sans-Serif" font-size="10.00">+ Circle()</text>
<text text-anchor="start" x="8" y="-46" font-family="Helvetica,sans-Serif" font-size="10.00">+ Circle()</text>
<text text-anchor="start" x="8" y="-35" font-family="Helvetica,sans-Serif" font-size="10.00">+ ~Circle()</text>
<text text-anchor="start" x="8" y="-24" font-family="Helvetica,sans-Serif" font-size="10.00">+ operator=()</text>
</a>
</g>
</g>
<!-- Node1&#45;&gt;Node2 -->
<g id="edge1" class="edge">
<title>Node1&#45;&gt;Node2</title>
<path fill="none" stroke="midnightblue" d="M276.27,-210.43C231.09,-193.7 170.59,-167.83 123,-135 115.77,-130.01 108.65,-124.17 101.92,-118.05"/>
<polygon fill="none" stroke="midnightblue" points="275.08,-213.72 285.67,-213.86 277.48,-207.15 275.08,-213.72"/>
</g>
<!-- Node3 -->
<g id="node3" class="node">
<title>Node3</title>
<g id="a_node3"><a xlink:href="classArcade_1_1Drawables_1_1Line.html" target="_top" xlink:title="A base class for every objects in the game.">
<polygon fill="white" stroke="black" points="132,-17 132,-118 266,-118 266,-17 132,-17"/>
<text text-anchor="middle" x="199" y="-106" font-family="Helvetica,sans-Serif" font-size="10.00">Arcade::Drawables::Line</text>
<polyline fill="none" stroke="black" points="132,-99 266,-99 "/>
<text text-anchor="start" x="140" y="-87" font-family="Helvetica,sans-Serif" font-size="10.00">+ endX</text>
<text text-anchor="start" x="140" y="-76" font-family="Helvetica,sans-Serif" font-size="10.00">+ endY</text>
<polyline fill="none" stroke="black" points="132,-69 266,-69 "/>
<text text-anchor="start" x="140" y="-57" font-family="Helvetica,sans-Serif" font-size="10.00">+ Line()</text>
<text text-anchor="start" x="140" y="-46" font-family="Helvetica,sans-Serif" font-size="10.00">+ Line()</text>
<text text-anchor="start" x="140" y="-35" font-family="Helvetica,sans-Serif" font-size="10.00">+ ~Line()</text>
<text text-anchor="start" x="140" y="-24" font-family="Helvetica,sans-Serif" font-size="10.00">+ operator=()</text>
</a>
</g>
</g>
<!-- Node1&#45;&gt;Node3 -->
<g id="edge2" class="edge">
<title>Node1&#45;&gt;Node3</title>
<path fill="none" stroke="midnightblue" d="M281.31,-163.28C268.18,-148.16 254.52,-132.42 242.18,-118.22"/>
<polygon fill="none" stroke="midnightblue" points="278.92,-165.86 288.12,-171.12 284.21,-161.27 278.92,-165.86"/>
</g>
<!-- Node4 -->
<g id="node4" class="node">
<title>Node4</title>
<g id="a_node4"><a xlink:href="classArcade_1_1Drawables_1_1Rectangle.html" target="_top" xlink:title="A rectangle object.">
<polygon fill="white" stroke="black" points="284,-11.5 284,-123.5 398,-123.5 398,-11.5 284,-11.5"/>
<text text-anchor="start" x="292" y="-111.5" font-family="Helvetica,sans-Serif" font-size="10.00">Arcade::Drawables::</text>
<text text-anchor="middle" x="341" y="-100.5" font-family="Helvetica,sans-Serif" font-size="10.00">Rectangle</text>
<polyline fill="none" stroke="black" points="284,-93.5 398,-93.5 "/>
<text text-anchor="start" x="292" y="-81.5" font-family="Helvetica,sans-Serif" font-size="10.00">+ endX</text>
<text text-anchor="start" x="292" y="-70.5" font-family="Helvetica,sans-Serif" font-size="10.00">+ endY</text>
<polyline fill="none" stroke="black" points="284,-63.5 398,-63.5 "/>
<text text-anchor="start" x="292" y="-51.5" font-family="Helvetica,sans-Serif" font-size="10.00">+ Rectangle()</text>
<text text-anchor="start" x="292" y="-40.5" font-family="Helvetica,sans-Serif" font-size="10.00">+ Rectangle()</text>
<text text-anchor="start" x="292" y="-29.5" font-family="Helvetica,sans-Serif" font-size="10.00">+ ~Rectangle()</text>
<text text-anchor="start" x="292" y="-18.5" font-family="Helvetica,sans-Serif" font-size="10.00">+ operator=()</text>
</a>
</g>
</g>
<!-- Node1&#45;&gt;Node4 -->
<g id="edge3" class="edge">
<title>Node1&#45;&gt;Node4</title>
<path fill="none" stroke="midnightblue" d="M341,-160.8C341,-148.4 341,-135.66 341,-123.76"/>
<polygon fill="none" stroke="midnightblue" points="337.5,-161.12 341,-171.12 344.5,-161.12 337.5,-161.12"/>
</g>
<!-- Node5 -->
<g id="node5" class="node">
<title>Node5</title>
<g id="a_node5"><a xlink:href="classArcade_1_1Drawables_1_1Sprite.html" target="_top" xlink:title="A Sprite game objecct.">
<polygon fill="white" stroke="black" points="416,-0.5 416,-134.5 530,-134.5 530,-0.5 416,-0.5"/>
<text text-anchor="start" x="424" y="-122.5" font-family="Helvetica,sans-Serif" font-size="10.00">Arcade::Drawables::</text>
<text text-anchor="middle" x="473" y="-111.5" font-family="Helvetica,sans-Serif" font-size="10.00">Sprite</text>
<polyline fill="none" stroke="black" points="416,-104.5 530,-104.5 "/>
<text text-anchor="start" x="424" y="-92.5" font-family="Helvetica,sans-Serif" font-size="10.00">+ sizeX</text>
<text text-anchor="start" x="424" y="-81.5" font-family="Helvetica,sans-Serif" font-size="10.00">+ sizeY</text>
<text text-anchor="start" x="424" y="-70.5" font-family="Helvetica,sans-Serif" font-size="10.00">+ rotation</text>
<text text-anchor="start" x="424" y="-59.5" font-family="Helvetica,sans-Serif" font-size="10.00">+ path</text>
<polyline fill="none" stroke="black" points="416,-52.5 530,-52.5 "/>
<text text-anchor="start" x="424" y="-40.5" font-family="Helvetica,sans-Serif" font-size="10.00">+ Sprite()</text>
<text text-anchor="start" x="424" y="-29.5" font-family="Helvetica,sans-Serif" font-size="10.00">+ Sprite()</text>
<text text-anchor="start" x="424" y="-18.5" font-family="Helvetica,sans-Serif" font-size="10.00">+ ~Sprite()</text>
<text text-anchor="start" x="424" y="-7.5" font-family="Helvetica,sans-Serif" font-size="10.00">+ operator=()</text>
</a>
</g>
</g>
<!-- Node1&#45;&gt;Node5 -->
<g id="edge4" class="edge">
<title>Node1&#45;&gt;Node5</title>
<path fill="none" stroke="midnightblue" d="M396.52,-163.23C404.16,-153.77 412,-144.06 419.6,-134.64"/>
<polygon fill="none" stroke="midnightblue" points="393.71,-161.14 390.15,-171.12 399.16,-165.54 393.71,-161.14"/>
</g>
<!-- Node6 -->
<g id="node6" class="node">
<title>Node6</title>
<g id="a_node6"><a xlink:href="classArcade_1_1Drawables_1_1Text.html" target="_top" xlink:title="A text object.">
<polygon fill="white" stroke="black" points="548,-22.5 548,-112.5 682,-112.5 682,-22.5 548,-22.5"/>
<text text-anchor="middle" x="615" y="-100.5" font-family="Helvetica,sans-Serif" font-size="10.00">Arcade::Drawables::Text</text>
<polyline fill="none" stroke="black" points="548,-93.5 682,-93.5 "/>
<text text-anchor="start" x="556" y="-81.5" font-family="Helvetica,sans-Serif" font-size="10.00">+ text</text>
<polyline fill="none" stroke="black" points="548,-74.5 682,-74.5 "/>
<text text-anchor="start" x="556" y="-62.5" font-family="Helvetica,sans-Serif" font-size="10.00">+ Text()</text>
<text text-anchor="start" x="556" y="-51.5" font-family="Helvetica,sans-Serif" font-size="10.00">+ Text()</text>
<text text-anchor="start" x="556" y="-40.5" font-family="Helvetica,sans-Serif" font-size="10.00">+ ~Text()</text>
<text text-anchor="start" x="556" y="-29.5" font-family="Helvetica,sans-Serif" font-size="10.00">+ operator=()</text>
</a>
</g>
</g>
<!-- Node1&#45;&gt;Node6 -->
<g id="edge5" class="edge">
<title>Node1&#45;&gt;Node6</title>
<path fill="none" stroke="midnightblue" d="M405.4,-205.63C445.31,-188.05 496.81,-163.08 539,-135 548.93,-128.4 558.94,-120.61 568.3,-112.73"/>
<polygon fill="none" stroke="midnightblue" points="403.81,-202.51 396.04,-209.71 406.61,-208.92 403.81,-202.51"/>
</g>
</g>
</svg>
