<?xml version="1.0" encoding="UTF-8" standalone="no"?>
<!DOCTYPE svg PUBLIC "-//W3C//DTD SVG 1.1//EN"
 "http://www.w3.org/Graphics/SVG/1.1/DTD/svg11.dtd">
<!-- Generated by graphviz version 2.43.0 (0)
 -->
<!-- Title: Arcade::IDisplayModule Pages: 1 -->
<svg width="140pt" height="314pt"
 viewBox="0.00 0.00 140.00 314.00" xmlns="http://www.w3.org/2000/svg" xmlns:xlink="http://www.w3.org/1999/xlink">
<g id="graph0" class="graph" transform="scale(1 1) rotate(0) translate(4 310)">
<title>Arcade::IDisplayModule</title>
<polygon fill="white" stroke="transparent" points="-4,4 -4,-310 136,-310 136,4 -4,4"/>
<!-- Node1 -->
<g id="node1" class="node">
<title>Node1</title>
<g id="a_node1"><a xlink:title="The interface of every display modules.">
<polygon fill="#bfbfbf" stroke="black" points="0,-0.5 0,-167.5 132,-167.5 132,-0.5 0,-0.5"/>
<text text-anchor="middle" x="66" y="-155.5" font-family="Helvetica,sans-Serif" font-size="10.00">Arcade::IDisplayModule</text>
<polyline fill="none" stroke="black" points="0,-148.5 132,-148.5 "/>
<text text-anchor="middle" x="66" y="-136.5" font-family="Helvetica,sans-Serif" font-size="10.00"> </text>
<polyline fill="none" stroke="black" points="0,-129.5 132,-129.5 "/>
<text text-anchor="start" x="8" y="-117.5" font-family="Helvetica,sans-Serif" font-size="10.00">+ ~IDisplayModule()</text>
<text text-anchor="start" x="8" y="-106.5" font-family="Helvetica,sans-Serif" font-size="10.00">+ pullEvents()</text>
<text text-anchor="start" x="8" y="-95.5" font-family="Helvetica,sans-Serif" font-size="10.00">+ draw()</text>
<text text-anchor="start" x="8" y="-84.5" font-family="Helvetica,sans-Serif" font-size="10.00">+ draw()</text>
<text text-anchor="start" x="8" y="-73.5" font-family="Helvetica,sans-Serif" font-size="10.00">+ draw()</text>
<text text-anchor="start" x="8" y="-62.5" font-family="Helvetica,sans-Serif" font-size="10.00">+ draw()</text>
<text text-anchor="start" x="8" y="-51.5" font-family="Helvetica,sans-Serif" font-size="10.00">+ draw()</text>
<text text-anchor="start" x="8" y="-40.5" font-family="Helvetica,sans-Serif" font-size="10.00">+ refresh()</text>
<text text-anchor="start" x="8" y="-29.5" font-family="Helvetica,sans-Serif" font-size="10.00">+ load()</text>
<text text-anchor="start" x="8" y="-18.5" font-family="Helvetica,sans-Serif" font-size="10.00">+ unload()</text>
<text text-anchor="start" x="8" y="-7.5" font-family="Helvetica,sans-Serif" font-size="10.00">+ unloadAll()</text>
</a>
</g>
</g>
<!-- Node2 -->
<g id="node2" class="node">
<title>Node2</title>
<g id="a_node2"><a xlink:href="classArcade_1_1IModule.html" target="_top" xlink:title="A base module interface.">
<polygon fill="white" stroke="black" points="18.5,-204.5 18.5,-305.5 113.5,-305.5 113.5,-204.5 18.5,-204.5"/>
<text text-anchor="middle" x="66" y="-293.5" font-family="Helvetica,sans-Serif" font-size="10.00">Arcade::IModule</text>
<polyline fill="none" stroke="black" points="18.5,-286.5 113.5,-286.5 "/>
<text text-anchor="middle" x="66" y="-274.5" font-family="Helvetica,sans-Serif" font-size="10.00"> </text>
<polyline fill="none" stroke="black" points="18.5,-267.5 113.5,-267.5 "/>
<text text-anchor="start" x="26.5" y="-255.5" font-family="Helvetica,sans-Serif" font-size="10.00">+ ~IModule()</text>
<text text-anchor="start" x="26.5" y="-244.5" font-family="Helvetica,sans-Serif" font-size="10.00">+ init()</text>
<text text-anchor="start" x="26.5" y="-233.5" font-family="Helvetica,sans-Serif" font-size="10.00">+ close()</text>
<text text-anchor="start" x="26.5" y="-222.5" font-family="Helvetica,sans-Serif" font-size="10.00">+ shouldClose()</text>
<text text-anchor="start" x="26.5" y="-211.5" font-family="Helvetica,sans-Serif" font-size="10.00">+ getType()</text>
</a>
</g>
</g>
<!-- Node2&#45;&gt;Node1 -->
<g id="edge1" class="edge">
<title>Node2&#45;&gt;Node1</title>
<path fill="none" stroke="midnightblue" d="M66,-194.01C66,-185.48 66,-176.59 66,-167.72"/>
<polygon fill="none" stroke="midnightblue" points="62.5,-194.21 66,-204.21 69.5,-194.21 62.5,-194.21"/>
</g>
</g>
</svg>
