<?xml version="1.0" encoding="UTF-8" standalone="no"?>
<!DOCTYPE svg PUBLIC "-//W3C//DTD SVG 1.1//EN"
 "http://www.w3.org/Graphics/SVG/1.1/DTD/svg11.dtd">
<!-- Generated by graphviz version 2.43.0 (0)
 -->
<!-- Title: sources/Core Pages: 1 -->
<svg width="182pt" height="159pt"
 viewBox="0.00 0.00 182.00 159.00" xmlns="http://www.w3.org/2000/svg" xmlns:xlink="http://www.w3.org/1999/xlink">
<g id="graph0" class="graph" transform="scale(1 1) rotate(0) translate(4 155)">
<title>sources/Core</title>
<polygon fill="white" stroke="transparent" points="-4,4 -4,-155 178,-155 178,4 -4,4"/>
<g id="clust1" class="cluster">
<title>clusterdir_08d237fc27d4ecd563f71c5d52f2fecc</title>
<g id="a_clust1"><a xlink:href="dir_08d237fc27d4ecd563f71c5d52f2fecc.html" target="_top" xlink:title="sources">
<polygon fill="#ddddee" stroke="black" points="8,-56 8,-143 166,-143 166,-56 8,-56"/>
<text text-anchor="middle" x="87" y="-131" font-family="Helvetica,sans-Serif" font-size="10.00">sources</text>
</a>
</g>
</g>
<g id="clust2" class="cluster">
<title>clusterdir_407a341dfc1ab98d6ef3a4f1b7c76942</title>
<g id="a_clust2"><a xlink:href="dir_407a341dfc1ab98d6ef3a4f1b7c76942.html" target="_top">
<polygon fill="#eeeeff" stroke="black" points="16,-64 16,-116 158,-116 158,-64 16,-64"/>
</a>
</g>
</g>
<!-- dir_407a341dfc1ab98d6ef3a4f1b7c76942 -->
<g id="node1" class="node">
<title>dir_407a341dfc1ab98d6ef3a4f1b7c76942</title>
<text text-anchor="middle" x="123" y="-87.5" font-family="Helvetica,sans-Serif" font-size="10.00">Core</text>
</g>
<!-- dir_22691ba3b49dad9081dfd67ea807bdbf -->
<g id="node3" class="node">
<title>dir_22691ba3b49dad9081dfd67ea807bdbf</title>
<g id="a_node3"><a xlink:href="dir_22691ba3b49dad9081dfd67ea807bdbf.html" target="_top" xlink:title="Common">
<polygon fill="white" stroke="red" points="75.5,-36 14.5,-36 14.5,0 75.5,0 75.5,-36"/>
<text text-anchor="middle" x="45" y="-15.5" font-family="Helvetica,sans-Serif" font-size="10.00">Common</text>
</a>
</g>
</g>
<!-- dir_407a341dfc1ab98d6ef3a4f1b7c76942&#45;&gt;dir_22691ba3b49dad9081dfd67ea807bdbf -->
<g id="edge3" class="edge">
<title>dir_407a341dfc1ab98d6ef3a4f1b7c76942&#45;&gt;dir_22691ba3b49dad9081dfd67ea807bdbf</title>
<path fill="none" stroke="black" d="M104.38,-71.8C98.81,-66.69 92.68,-61.1 87,-56 82.26,-51.74 77.19,-47.23 72.27,-42.88"/>
<polygon fill="black" stroke="black" points="74.55,-40.22 64.73,-36.24 69.92,-45.48 74.55,-40.22"/>
<g id="a_edge3&#45;headlabel"><a xlink:href="dir_000004_000001.html" target="_top" xlink:title="6">
<text text-anchor="middle" x="79.12" y="-37.97" font-family="Helvetica,sans-Serif" font-size="10.00">6</text>
</a>
</g>
</g>
<!-- dir_5da686cefd6752aaaa3bcabf1d868d88 -->
<g id="node4" class="node">
<title>dir_5da686cefd6752aaaa3bcabf1d868d88</title>
<g id="a_node4"><a xlink:href="dir_5da686cefd6752aaaa3bcabf1d868d88.html" target="_top" xlink:title="Exceptions">
<polygon fill="none" stroke="black" points="164,-36 94,-36 94,0 164,0 164,-36"/>
<text text-anchor="middle" x="129" y="-15.5" font-family="Helvetica,sans-Serif" font-size="10.00">Exceptions</text>
</a>
</g>
</g>
<!-- dir_407a341dfc1ab98d6ef3a4f1b7c76942&#45;&gt;dir_5da686cefd6752aaaa3bcabf1d868d88 -->
<g id="edge4" class="edge">
<title>dir_407a341dfc1ab98d6ef3a4f1b7c76942&#45;&gt;dir_5da686cefd6752aaaa3bcabf1d868d88</title>
<path fill="none" stroke="black" d="M124.48,-71.7C125.14,-63.98 125.94,-54.71 126.68,-46.11"/>
<polygon fill="black" stroke="black" points="130.17,-46.37 127.53,-36.1 123.19,-45.77 130.17,-46.37"/>
<g id="a_edge4&#45;headlabel"><a xlink:href="dir_000004_000006.html" target="_top" xlink:title="3">
<text text-anchor="middle" x="132.69" y="-47.69" font-family="Helvetica,sans-Serif" font-size="10.00">3</text>
</a>
</g>
</g>
<!-- dir_39902defc96b4c1afd9c7fc4d71bc4f4 -->
<g id="node2" class="node">
<title>dir_39902defc96b4c1afd9c7fc4d71bc4f4</title>
<g id="a_node2"><a xlink:href="dir_39902defc96b4c1afd9c7fc4d71bc4f4.html" target="_top" xlink:title="Runner">
<polygon fill="white" stroke="black" points="78,-108 24,-108 24,-72 78,-72 78,-108"/>
<text text-anchor="middle" x="51" y="-87.5" font-family="Helvetica,sans-Serif" font-size="10.00">Runner</text>
</a>
</g>
</g>
<!-- dir_39902defc96b4c1afd9c7fc4d71bc4f4&#45;&gt;dir_22691ba3b49dad9081dfd67ea807bdbf -->
<g id="edge1" class="edge">
<title>dir_39902defc96b4c1afd9c7fc4d71bc4f4&#45;&gt;dir_22691ba3b49dad9081dfd67ea807bdbf</title>
<path fill="none" stroke="black" d="M49.52,-71.7C48.86,-63.98 48.06,-54.71 47.32,-46.11"/>
<polygon fill="black" stroke="black" points="50.81,-45.77 46.47,-36.1 43.83,-46.37 50.81,-45.77"/>
<g id="a_edge1&#45;headlabel"><a xlink:href="dir_000005_000001.html" target="_top" xlink:title="4">
<text text-anchor="middle" x="53.94" y="-46.61" font-family="Helvetica,sans-Serif" font-size="10.00">4</text>
</a>
</g>
</g>
<!-- dir_39902defc96b4c1afd9c7fc4d71bc4f4&#45;&gt;dir_5da686cefd6752aaaa3bcabf1d868d88 -->
<g id="edge2" class="edge">
<title>dir_39902defc96b4c1afd9c7fc4d71bc4f4&#45;&gt;dir_5da686cefd6752aaaa3bcabf1d868d88</title>
<path fill="none" stroke="black" d="M69.62,-71.8C75.19,-66.69 81.32,-61.1 87,-56 91.74,-51.74 96.81,-47.23 101.73,-42.88"/>
<polygon fill="black" stroke="black" points="104.08,-45.48 109.27,-36.24 99.45,-40.22 104.08,-45.48"/>
<g id="a_edge2&#45;headlabel"><a xlink:href="dir_000005_000006.html" target="_top" xlink:title="2">
<text text-anchor="middle" x="103.26" y="-47.48" font-family="Helvetica,sans-Serif" font-size="10.00">2</text>
</a>
</g>
</g>
</g>
</svg>
