<?xml version="1.0" encoding="UTF-8" standalone="no"?>
<!DOCTYPE svg PUBLIC "-//W3C//DTD SVG 1.1//EN"
 "http://www.w3.org/Graphics/SVG/1.1/DTD/svg11.dtd">
<!-- Generated by graphviz version 2.43.0 (0)
 -->
<!-- Title: sources Pages: 1 -->
<svg width="190pt" height="148pt"
 viewBox="0.00 0.00 190.00 148.00" xmlns="http://www.w3.org/2000/svg" xmlns:xlink="http://www.w3.org/1999/xlink">
<g id="graph0" class="graph" transform="scale(1 1) rotate(0) translate(4 144)">
<title>sources</title>
<polygon fill="white" stroke="transparent" points="-4,4 -4,-144 186,-144 186,4 -4,4"/>
<g id="clust1" class="cluster">
<title>clusterdir_08d237fc27d4ecd563f71c5d52f2fecc</title>
<g id="a_clust1"><a xlink:href="dir_08d237fc27d4ecd563f71c5d52f2fecc.html" target="_top">
<polygon fill="#eeeeff" stroke="black" points="8,-8 8,-132 174,-132 174,-8 8,-8"/>
</a>
</g>
</g>
<!-- dir_08d237fc27d4ecd563f71c5d52f2fecc -->
<g id="node1" class="node">
<title>dir_08d237fc27d4ecd563f71c5d52f2fecc</title>
<text text-anchor="middle" x="134" y="-103.5" font-family="Helvetica,sans-Serif" font-size="10.00">sources</text>
</g>
<!-- dir_22691ba3b49dad9081dfd67ea807bdbf -->
<g id="node2" class="node">
<title>dir_22691ba3b49dad9081dfd67ea807bdbf</title>
<g id="a_node2"><a xlink:href="dir_22691ba3b49dad9081dfd67ea807bdbf.html" target="_top" xlink:title="Common">
<polygon fill="white" stroke="red" points="77.5,-52 16.5,-52 16.5,-16 77.5,-16 77.5,-52"/>
<text text-anchor="middle" x="47" y="-31.5" font-family="Helvetica,sans-Serif" font-size="10.00">Common</text>
</a>
</g>
</g>
<!-- dir_407a341dfc1ab98d6ef3a4f1b7c76942 -->
<g id="node3" class="node">
<title>dir_407a341dfc1ab98d6ef3a4f1b7c76942</title>
<g id="a_node3"><a xlink:href="dir_407a341dfc1ab98d6ef3a4f1b7c76942.html" target="_top" xlink:title="Core">
<polygon fill="white" stroke="red" points="79,-124 25,-124 25,-88 79,-88 79,-124"/>
<text text-anchor="middle" x="52" y="-103.5" font-family="Helvetica,sans-Serif" font-size="10.00">Core</text>
</a>
</g>
</g>
<!-- dir_407a341dfc1ab98d6ef3a4f1b7c76942&#45;&gt;dir_22691ba3b49dad9081dfd67ea807bdbf -->
<g id="edge1" class="edge">
<title>dir_407a341dfc1ab98d6ef3a4f1b7c76942&#45;&gt;dir_22691ba3b49dad9081dfd67ea807bdbf</title>
<path fill="none" stroke="black" d="M50.76,-87.7C50.21,-79.98 49.55,-70.71 48.94,-62.11"/>
<polygon fill="black" stroke="black" points="52.43,-61.83 48.22,-52.1 45.44,-62.33 52.43,-61.83"/>
<g id="a_edge1&#45;headlabel"><a xlink:href="dir_000004_000001.html" target="_top" xlink:title="6">
<text text-anchor="middle" x="55.51" y="-62.71" font-family="Helvetica,sans-Serif" font-size="10.00">6</text>
</a>
</g>
</g>
<!-- dir_5da686cefd6752aaaa3bcabf1d868d88 -->
<g id="node4" class="node">
<title>dir_5da686cefd6752aaaa3bcabf1d868d88</title>
<g id="a_node4"><a xlink:href="dir_5da686cefd6752aaaa3bcabf1d868d88.html" target="_top" xlink:title="Exceptions">
<polygon fill="white" stroke="black" points="166,-52 96,-52 96,-16 166,-16 166,-52"/>
<text text-anchor="middle" x="131" y="-31.5" font-family="Helvetica,sans-Serif" font-size="10.00">Exceptions</text>
</a>
</g>
</g>
<!-- dir_407a341dfc1ab98d6ef3a4f1b7c76942&#45;&gt;dir_5da686cefd6752aaaa3bcabf1d868d88 -->
<g id="edge2" class="edge">
<title>dir_407a341dfc1ab98d6ef3a4f1b7c76942&#45;&gt;dir_5da686cefd6752aaaa3bcabf1d868d88</title>
<path fill="none" stroke="black" d="M71.53,-87.7C81.38,-78.97 93.49,-68.24 104.2,-58.75"/>
<polygon fill="black" stroke="black" points="106.53,-61.36 111.7,-52.1 101.89,-56.12 106.53,-61.36"/>
<g id="a_edge2&#45;headlabel"><a xlink:href="dir_000004_000006.html" target="_top" xlink:title="3">
<text text-anchor="middle" x="105.73" y="-63.36" font-family="Helvetica,sans-Serif" font-size="10.00">3</text>
</a>
</g>
</g>
</g>
</svg>
