<?xml version="1.0" encoding="UTF-8" standalone="no"?>
<!DOCTYPE svg PUBLIC "-//W3C//DTD SVG 1.1//EN"
 "http://www.w3.org/Graphics/SVG/1.1/DTD/svg11.dtd">
<!-- Generated by graphviz version 2.43.0 (0)
 -->
<!-- Title: sources/Common/Events/Event.hpp Pages: 1 -->
<svg width="748pt" height="240pt"
 viewBox="0.00 0.00 748.02 240.00" xmlns="http://www.w3.org/2000/svg" xmlns:xlink="http://www.w3.org/1999/xlink">
<g id="graph0" class="graph" transform="scale(1 1) rotate(0) translate(4 236)">
<title>sources/Common/Events/Event.hpp</title>
<polygon fill="white" stroke="transparent" points="-4,4 -4,-236 744.02,-236 744.02,4 -4,4"/>
<!-- Node1 -->
<g id="node1" class="node">
<title>Node1</title>
<g id="a_node1"><a xlink:title=" ">
<polygon fill="#bfbfbf" stroke="black" points="171.52,-201.5 171.52,-231.5 308.52,-231.5 308.52,-201.5 171.52,-201.5"/>
<text text-anchor="start" x="179.52" y="-219.5" font-family="Helvetica,sans-Serif" font-size="10.00">sources/Common/Events</text>
<text text-anchor="middle" x="240.02" y="-208.5" font-family="Helvetica,sans-Serif" font-size="10.00">/Event.hpp</text>
</a>
</g>
</g>
<!-- Node2 -->
<g id="node2" class="node">
<title>Node2</title>
<g id="a_node2"><a xlink:href="KeyBoardEvent_8hpp.html" target="_top" xlink:title=" ">
<polygon fill="white" stroke="black" points="66.52,-67.5 66.52,-97.5 203.52,-97.5 203.52,-67.5 66.52,-67.5"/>
<text text-anchor="start" x="74.52" y="-85.5" font-family="Helvetica,sans-Serif" font-size="10.00">sources/Common/Events</text>
<text text-anchor="middle" x="135.02" y="-74.5" font-family="Helvetica,sans-Serif" font-size="10.00">/KeyBoardEvent.hpp</text>
</a>
</g>
</g>
<!-- Node1&#45;&gt;Node2 -->
<g id="edge1" class="edge">
<title>Node1&#45;&gt;Node2</title>
<path fill="none" stroke="midnightblue" d="M161.08,-208.87C101.3,-202.03 26.27,-188.87 7.02,-165 -18.04,-133.93 31.39,-111.09 75.92,-97.62"/>
<polygon fill="midnightblue" stroke="midnightblue" points="160.97,-212.38 171.29,-210 161.74,-205.43 160.97,-212.38"/>
</g>
<!-- Node4 -->
<g id="node4" class="node">
<title>Node4</title>
<g id="a_node4"><a xlink:href="MouseClickEvent_8hpp.html" target="_top" xlink:title=" ">
<polygon fill="white" stroke="black" points="16.52,-134.5 16.52,-164.5 153.52,-164.5 153.52,-134.5 16.52,-134.5"/>
<text text-anchor="start" x="24.52" y="-152.5" font-family="Helvetica,sans-Serif" font-size="10.00">sources/Common/Events</text>
<text text-anchor="middle" x="85.02" y="-141.5" font-family="Helvetica,sans-Serif" font-size="10.00">/MouseClickEvent.hpp</text>
</a>
</g>
</g>
<!-- Node1&#45;&gt;Node4 -->
<g id="edge3" class="edge">
<title>Node1&#45;&gt;Node4</title>
<path fill="none" stroke="midnightblue" d="M196.87,-197.41C172.13,-187.03 141.52,-174.2 118.59,-164.58"/>
<polygon fill="midnightblue" stroke="midnightblue" points="195.81,-200.76 206.39,-201.4 198.52,-194.3 195.81,-200.76"/>
</g>
<!-- Node5 -->
<g id="node5" class="node">
<title>Node5</title>
<g id="a_node5"><a xlink:href="MouseMoveEvent_8hpp.html" target="_top" xlink:title=" ">
<polygon fill="white" stroke="black" points="171.52,-134.5 171.52,-164.5 308.52,-164.5 308.52,-134.5 171.52,-134.5"/>
<text text-anchor="start" x="179.52" y="-152.5" font-family="Helvetica,sans-Serif" font-size="10.00">sources/Common/Events</text>
<text text-anchor="middle" x="240.02" y="-141.5" font-family="Helvetica,sans-Serif" font-size="10.00">/MouseMoveEvent.hpp</text>
</a>
</g>
</g>
<!-- Node1&#45;&gt;Node5 -->
<g id="edge4" class="edge">
<title>Node1&#45;&gt;Node5</title>
<path fill="none" stroke="midnightblue" d="M240.02,-191.11C240.02,-182.15 240.02,-172.32 240.02,-164.58"/>
<polygon fill="midnightblue" stroke="midnightblue" points="236.52,-191.4 240.02,-201.4 243.52,-191.4 236.52,-191.4"/>
</g>
<!-- Node6 -->
<g id="node6" class="node">
<title>Node6</title>
<g id="a_node6"><a xlink:href="IDisplayModule_8hpp.html" target="_top" xlink:title=" ">
<polygon fill="white" stroke="black" points="326.52,-140 326.52,-159 527.52,-159 527.52,-140 326.52,-140"/>
<text text-anchor="middle" x="427.02" y="-147" font-family="Helvetica,sans-Serif" font-size="10.00">sources/Common/IDisplayModule.hpp</text>
</a>
</g>
</g>
<!-- Node1&#45;&gt;Node6 -->
<g id="edge5" class="edge">
<title>Node1&#45;&gt;Node6</title>
<path fill="none" stroke="midnightblue" d="M290.06,-198.11C326.44,-185.46 374.11,-168.89 402.54,-159.01"/>
<polygon fill="midnightblue" stroke="midnightblue" points="288.89,-194.81 280.59,-201.4 291.19,-201.42 288.89,-194.81"/>
</g>
<!-- Node9 -->
<g id="node9" class="node">
<title>Node9</title>
<g id="a_node9"><a xlink:href="IGameModule_8hpp.html" target="_top" xlink:title=" ">
<polygon fill="white" stroke="black" points="546.02,-140 546.02,-159 740.02,-159 740.02,-140 546.02,-140"/>
<text text-anchor="middle" x="643.02" y="-147" font-family="Helvetica,sans-Serif" font-size="10.00">sources/Common/IGameModule.hpp</text>
</a>
</g>
</g>
<!-- Node1&#45;&gt;Node9 -->
<g id="edge9" class="edge">
<title>Node1&#45;&gt;Node9</title>
<path fill="none" stroke="midnightblue" d="M318.89,-202.78C399.06,-189.85 521.03,-170.18 590.23,-159.01"/>
<polygon fill="midnightblue" stroke="midnightblue" points="318.15,-199.35 308.84,-204.4 319.27,-206.26 318.15,-199.35"/>
</g>
<!-- Node3 -->
<g id="node3" class="node">
<title>Node3</title>
<g id="a_node3"><a xlink:href="Runner_8cpp.html" target="_top" xlink:title=" ">
<polygon fill="white" stroke="black" points="168.52,-0.5 168.52,-30.5 285.52,-30.5 285.52,-0.5 168.52,-0.5"/>
<text text-anchor="start" x="176.52" y="-18.5" font-family="Helvetica,sans-Serif" font-size="10.00">sources/Core/Runner</text>
<text text-anchor="middle" x="227.02" y="-7.5" font-family="Helvetica,sans-Serif" font-size="10.00">/Runner.cpp</text>
</a>
</g>
</g>
<!-- Node2&#45;&gt;Node3 -->
<g id="edge2" class="edge">
<title>Node2&#45;&gt;Node3</title>
<path fill="none" stroke="midnightblue" d="M163.4,-61.45C177.55,-51.45 194.32,-39.6 207.1,-30.58"/>
<polygon fill="midnightblue" stroke="midnightblue" points="161.13,-58.77 154.98,-67.4 165.17,-64.48 161.13,-58.77"/>
</g>
<!-- Node7 -->
<g id="node7" class="node">
<title>Node7</title>
<g id="a_node7"><a xlink:href="Runner_8hpp.html" target="_top" xlink:title=" ">
<polygon fill="white" stroke="black" points="368.52,-67.5 368.52,-97.5 485.52,-97.5 485.52,-67.5 368.52,-67.5"/>
<text text-anchor="start" x="376.52" y="-85.5" font-family="Helvetica,sans-Serif" font-size="10.00">sources/Core/Runner</text>
<text text-anchor="middle" x="427.02" y="-74.5" font-family="Helvetica,sans-Serif" font-size="10.00">/Runner.hpp</text>
</a>
</g>
</g>
<!-- Node6&#45;&gt;Node7 -->
<g id="edge6" class="edge">
<title>Node6&#45;&gt;Node7</title>
<path fill="none" stroke="midnightblue" d="M427.02,-129.41C427.02,-119.22 427.02,-106.9 427.02,-97.59"/>
<polygon fill="midnightblue" stroke="midnightblue" points="423.52,-129.73 427.02,-139.73 430.52,-129.73 423.52,-129.73"/>
</g>
<!-- Node7&#45;&gt;Node3 -->
<g id="edge8" class="edge">
<title>Node7&#45;&gt;Node3</title>
<path fill="none" stroke="midnightblue" d="M373.87,-64.23C341.52,-53.71 300.71,-40.45 270.33,-30.58"/>
<polygon fill="midnightblue" stroke="midnightblue" points="373.03,-67.63 383.62,-67.4 375.19,-60.98 373.03,-67.63"/>
</g>
<!-- Node8 -->
<g id="node8" class="node">
<title>Node8</title>
<g id="a_node8"><a xlink:href="main_8cpp.html" target="_top" xlink:title=" ">
<polygon fill="white" stroke="black" points="396.02,-6 396.02,-25 458.02,-25 458.02,-6 396.02,-6"/>
<text text-anchor="middle" x="427.02" y="-13" font-family="Helvetica,sans-Serif" font-size="10.00">main.cpp</text>
</a>
</g>
</g>
<!-- Node7&#45;&gt;Node8 -->
<g id="edge7" class="edge">
<title>Node7&#45;&gt;Node8</title>
<path fill="none" stroke="midnightblue" d="M427.02,-57.25C427.02,-46.02 427.02,-33.38 427.02,-25.19"/>
<polygon fill="midnightblue" stroke="midnightblue" points="423.52,-57.4 427.02,-67.4 430.52,-57.4 423.52,-57.4"/>
</g>
<!-- Node9&#45;&gt;Node7 -->
<g id="edge10" class="edge">
<title>Node9&#45;&gt;Node7</title>
<path fill="none" stroke="midnightblue" d="M604.53,-136.92C567.9,-125.9 512.73,-109.29 473.64,-97.53"/>
<polygon fill="midnightblue" stroke="midnightblue" points="603.75,-140.34 614.34,-139.87 605.77,-133.64 603.75,-140.34"/>
</g>
</g>
</svg>
