<?xml version="1.0" encoding="UTF-8" standalone="no"?>
<!DOCTYPE svg PUBLIC "-//W3C//DTD SVG 1.1//EN"
 "http://www.w3.org/Graphics/SVG/1.1/DTD/svg11.dtd">
<!-- Generated by graphviz version 2.43.0 (0)
 -->
<!-- Title: sources/Common/IDisplayModule.hpp Pages: 1 -->
<svg width="1355pt" height="196pt"
 viewBox="0.00 0.00 1355.00 196.00" xmlns="http://www.w3.org/2000/svg" xmlns:xlink="http://www.w3.org/1999/xlink">
<g id="graph0" class="graph" transform="scale(1 1) rotate(0) translate(4 192)">
<title>sources/Common/IDisplayModule.hpp</title>
<polygon fill="white" stroke="transparent" points="-4,4 -4,-192 1351,-192 1351,4 -4,4"/>
<!-- Node1 -->
<g id="node1" class="node">
<title>Node1</title>
<g id="a_node1"><a xlink:title=" ">
<polygon fill="#bfbfbf" stroke="black" points="734.5,-168.5 734.5,-187.5 935.5,-187.5 935.5,-168.5 734.5,-168.5"/>
<text text-anchor="middle" x="835" y="-175.5" font-family="Helvetica,sans-Serif" font-size="10.00">sources/Common/IDisplayModule.hpp</text>
</a>
</g>
</g>
<!-- Node2 -->
<g id="node2" class="node">
<title>Node2</title>
<g id="a_node2"><a xlink:href="Module_8hpp.html" target="_top" xlink:title=" ">
<polygon fill="white" stroke="black" points="933.5,-112.5 933.5,-131.5 1054.5,-131.5 1054.5,-112.5 933.5,-112.5"/>
<text text-anchor="middle" x="994" y="-119.5" font-family="Helvetica,sans-Serif" font-size="10.00">Common/Module.hpp</text>
</a>
</g>
</g>
<!-- Node1&#45;&gt;Node2 -->
<g id="edge1" class="edge">
<title>Node1&#45;&gt;Node2</title>
<path fill="none" stroke="midnightblue" d="M860.19,-168.44C886.94,-159.36 929.4,-144.94 959.31,-134.78"/>
<polygon fill="midnightblue" stroke="midnightblue" points="960.58,-138.05 968.92,-131.52 958.33,-131.42 960.58,-138.05"/>
</g>
<!-- Node5 -->
<g id="node5" class="node">
<title>Node5</title>
<g id="a_node5"><a xlink:href="Line_8hpp.html" target="_top" xlink:title=" ">
<polygon fill="white" stroke="black" points="371,-112.5 371,-131.5 531,-131.5 531,-112.5 371,-112.5"/>
<text text-anchor="middle" x="451" y="-119.5" font-family="Helvetica,sans-Serif" font-size="10.00">Common/Drawables/Line.hpp</text>
</a>
</g>
</g>
<!-- Node1&#45;&gt;Node5 -->
<g id="edge4" class="edge">
<title>Node1&#45;&gt;Node5</title>
<path fill="none" stroke="midnightblue" d="M774.15,-168.44C705.48,-158.79 593.93,-143.1 521.51,-132.92"/>
<polygon fill="midnightblue" stroke="midnightblue" points="521.95,-129.44 511.56,-131.52 520.98,-136.37 521.95,-129.44"/>
</g>
<!-- Node7 -->
<g id="node7" class="node">
<title>Node7</title>
<g id="a_node7"><a xlink:href="Rectangle_8hpp.html" target="_top" xlink:title=" ">
<polygon fill="white" stroke="black" points="549,-112.5 549,-131.5 737,-131.5 737,-112.5 549,-112.5"/>
<text text-anchor="middle" x="643" y="-119.5" font-family="Helvetica,sans-Serif" font-size="10.00">Common/Drawables/Rectangle.hpp</text>
</a>
</g>
</g>
<!-- Node1&#45;&gt;Node7 -->
<g id="edge6" class="edge">
<title>Node1&#45;&gt;Node7</title>
<path fill="none" stroke="midnightblue" d="M804.58,-168.44C771.72,-159.2 719.22,-144.44 683.03,-134.26"/>
<polygon fill="midnightblue" stroke="midnightblue" points="683.85,-130.85 673.28,-131.52 681.96,-137.59 683.85,-130.85"/>
</g>
<!-- Node8 -->
<g id="node8" class="node">
<title>Node8</title>
<g id="a_node8"><a xlink:href="Circle_8hpp.html" target="_top" xlink:title=" ">
<polygon fill="white" stroke="black" points="185.5,-112.5 185.5,-131.5 352.5,-131.5 352.5,-112.5 185.5,-112.5"/>
<text text-anchor="middle" x="269" y="-119.5" font-family="Helvetica,sans-Serif" font-size="10.00">Common/Drawables/Circle.hpp</text>
</a>
</g>
</g>
<!-- Node1&#45;&gt;Node8 -->
<g id="edge8" class="edge">
<title>Node1&#45;&gt;Node8</title>
<path fill="none" stroke="midnightblue" d="M744.76,-168.46C651.81,-159.65 502.43,-145.47 362.69,-132.07"/>
<polygon fill="midnightblue" stroke="midnightblue" points="362.94,-128.57 352.65,-131.1 362.27,-135.54 362.94,-128.57"/>
</g>
<!-- Node9 -->
<g id="node9" class="node">
<title>Node9</title>
<g id="a_node9"><a xlink:href="Sprite_8hpp.html" target="_top" xlink:title=" ">
<polygon fill="white" stroke="black" points="0,-112.5 0,-131.5 168,-131.5 168,-112.5 0,-112.5"/>
<text text-anchor="middle" x="84" y="-119.5" font-family="Helvetica,sans-Serif" font-size="10.00">Common/Drawables/Sprite.hpp</text>
</a>
</g>
</g>
<!-- Node1&#45;&gt;Node9 -->
<g id="edge10" class="edge">
<title>Node1&#45;&gt;Node9</title>
<path fill="none" stroke="midnightblue" d="M734.45,-171.05C607.3,-163.33 381.37,-148.91 178.47,-132.19"/>
<polygon fill="midnightblue" stroke="midnightblue" points="178.47,-128.68 168.22,-131.34 177.9,-135.65 178.47,-128.68"/>
</g>
<!-- Node10 -->
<g id="node10" class="node">
<title>Node10</title>
<g id="a_node10"><a xlink:href="Text_8hpp.html" target="_top" xlink:title=" ">
<polygon fill="white" stroke="black" points="755,-112.5 755,-131.5 915,-131.5 915,-112.5 755,-112.5"/>
<text text-anchor="middle" x="835" y="-119.5" font-family="Helvetica,sans-Serif" font-size="10.00">Common/Drawables/Text.hpp</text>
</a>
</g>
</g>
<!-- Node1&#45;&gt;Node10 -->
<g id="edge13" class="edge">
<title>Node1&#45;&gt;Node10</title>
<path fill="none" stroke="midnightblue" d="M835,-168.08C835,-161.01 835,-150.86 835,-141.99"/>
<polygon fill="midnightblue" stroke="midnightblue" points="838.5,-141.75 835,-131.75 831.5,-141.75 838.5,-141.75"/>
</g>
<!-- Node11 -->
<g id="node11" class="node">
<title>Node11</title>
<g id="a_node11"><a xlink:href="Event_8hpp.html" target="_top" xlink:title=" ">
<polygon fill="white" stroke="black" points="1072.5,-112.5 1072.5,-131.5 1221.5,-131.5 1221.5,-112.5 1072.5,-112.5"/>
<text text-anchor="middle" x="1147" y="-119.5" font-family="Helvetica,sans-Serif" font-size="10.00">Common/Events/Event.hpp</text>
</a>
</g>
</g>
<!-- Node1&#45;&gt;Node11 -->
<g id="edge16" class="edge">
<title>Node1&#45;&gt;Node11</title>
<path fill="none" stroke="midnightblue" d="M884.44,-168.44C939.66,-158.89 1029.02,-143.42 1087.89,-133.23"/>
<polygon fill="midnightblue" stroke="midnightblue" points="1088.54,-136.67 1097.79,-131.52 1087.34,-129.77 1088.54,-136.67"/>
</g>
<!-- Node12 -->
<g id="node12" class="node">
<title>Node12</title>
<g id="a_node12"><a xlink:title=" ">
<polygon fill="white" stroke="#bfbfbf" points="1239,-112.5 1239,-131.5 1271,-131.5 1271,-112.5 1239,-112.5"/>
<text text-anchor="middle" x="1255" y="-119.5" font-family="Helvetica,sans-Serif" font-size="10.00">list</text>
</a>
</g>
</g>
<!-- Node1&#45;&gt;Node12 -->
<g id="edge17" class="edge">
<title>Node1&#45;&gt;Node12</title>
<path fill="none" stroke="midnightblue" d="M935.86,-172.38C1014.08,-167.21 1125.08,-156.44 1228.88,-132.05"/>
<polygon fill="midnightblue" stroke="midnightblue" points="1229.99,-135.39 1238.9,-129.65 1228.36,-128.58 1229.99,-135.39"/>
</g>
<!-- Node13 -->
<g id="node13" class="node">
<title>Node13</title>
<g id="a_node13"><a xlink:title=" ">
<polygon fill="white" stroke="#bfbfbf" points="1289,-112.5 1289,-131.5 1347,-131.5 1347,-112.5 1289,-112.5"/>
<text text-anchor="middle" x="1318" y="-119.5" font-family="Helvetica,sans-Serif" font-size="10.00">memory</text>
</a>
</g>
</g>
<!-- Node1&#45;&gt;Node13 -->
<g id="edge18" class="edge">
<title>Node1&#45;&gt;Node13</title>
<path fill="none" stroke="midnightblue" d="M935.8,-170.61C1023.94,-164.15 1155.49,-152.38 1278.63,-132.03"/>
<polygon fill="midnightblue" stroke="midnightblue" points="1279.33,-135.47 1288.62,-130.36 1278.18,-128.56 1279.33,-135.47"/>
</g>
<!-- Node3 -->
<g id="node3" class="node">
<title>Node3</title>
<g id="a_node3"><a xlink:href="ModInfo_8hpp.html" target="_top" xlink:title=" ">
<polygon fill="white" stroke="black" points="897.5,-56.5 897.5,-75.5 1022.5,-75.5 1022.5,-56.5 897.5,-56.5"/>
<text text-anchor="middle" x="960" y="-63.5" font-family="Helvetica,sans-Serif" font-size="10.00">Common/ModInfo.hpp</text>
</a>
</g>
</g>
<!-- Node2&#45;&gt;Node3 -->
<g id="edge2" class="edge">
<title>Node2&#45;&gt;Node3</title>
<path fill="none" stroke="midnightblue" d="M988.39,-112.08C983.63,-104.53 976.68,-93.49 970.85,-84.23"/>
<polygon fill="midnightblue" stroke="midnightblue" points="973.8,-82.35 965.51,-75.75 967.88,-86.08 973.8,-82.35"/>
</g>
<!-- Node4 -->
<g id="node4" class="node">
<title>Node4</title>
<g id="a_node4"><a xlink:title=" ">
<polygon fill="white" stroke="#bfbfbf" points="813,-0.5 813,-19.5 857,-19.5 857,-0.5 813,-0.5"/>
<text text-anchor="middle" x="835" y="-7.5" font-family="Helvetica,sans-Serif" font-size="10.00">string</text>
</a>
</g>
</g>
<!-- Node3&#45;&gt;Node4 -->
<g id="edge3" class="edge">
<title>Node3&#45;&gt;Node4</title>
<path fill="none" stroke="midnightblue" d="M940.19,-56.44C919.71,-47.6 887.52,-33.69 864.14,-23.59"/>
<polygon fill="midnightblue" stroke="midnightblue" points="865.28,-20.27 854.71,-19.52 862.51,-26.7 865.28,-20.27"/>
</g>
<!-- Node6 -->
<g id="node6" class="node">
<title>Node6</title>
<g id="a_node6"><a xlink:href="ADrawable_8hpp.html" target="_top" xlink:title=" ">
<polygon fill="white" stroke="black" points="354.5,-56.5 354.5,-75.5 547.5,-75.5 547.5,-56.5 354.5,-56.5"/>
<text text-anchor="middle" x="451" y="-63.5" font-family="Helvetica,sans-Serif" font-size="10.00">Common/Drawables/ADrawable.hpp</text>
</a>
</g>
</g>
<!-- Node5&#45;&gt;Node6 -->
<g id="edge5" class="edge">
<title>Node5&#45;&gt;Node6</title>
<path fill="none" stroke="midnightblue" d="M451,-112.08C451,-105.01 451,-94.86 451,-85.99"/>
<polygon fill="midnightblue" stroke="midnightblue" points="454.5,-85.75 451,-75.75 447.5,-85.75 454.5,-85.75"/>
</g>
<!-- Node7&#45;&gt;Node6 -->
<g id="edge7" class="edge">
<title>Node7&#45;&gt;Node6</title>
<path fill="none" stroke="midnightblue" d="M612.58,-112.44C579.72,-103.2 527.22,-88.44 491.03,-78.26"/>
<polygon fill="midnightblue" stroke="midnightblue" points="491.85,-74.85 481.28,-75.52 489.96,-81.59 491.85,-74.85"/>
</g>
<!-- Node8&#45;&gt;Node6 -->
<g id="edge9" class="edge">
<title>Node8&#45;&gt;Node6</title>
<path fill="none" stroke="midnightblue" d="M297.84,-112.44C328.86,-103.24 378.33,-88.56 412.62,-78.39"/>
<polygon fill="midnightblue" stroke="midnightblue" points="413.71,-81.72 422.3,-75.52 411.71,-75.01 413.71,-81.72"/>
</g>
<!-- Node9&#45;&gt;Node4 -->
<g id="edge12" class="edge">
<title>Node9&#45;&gt;Node4</title>
<path fill="none" stroke="midnightblue" d="M112.28,-112.45C159.86,-98.4 259.13,-70.55 345,-56 515.94,-27.04 723.81,-15.71 802.62,-12.27"/>
<polygon fill="midnightblue" stroke="midnightblue" points="803.03,-15.75 812.87,-11.83 802.73,-8.76 803.03,-15.75"/>
</g>
<!-- Node9&#45;&gt;Node6 -->
<g id="edge11" class="edge">
<title>Node9&#45;&gt;Node6</title>
<path fill="none" stroke="midnightblue" d="M142.15,-112.44C207.65,-102.81 313.96,-87.16 383.19,-76.98"/>
<polygon fill="midnightblue" stroke="midnightblue" points="383.74,-80.43 393.12,-75.52 382.72,-73.51 383.74,-80.43"/>
</g>
<!-- Node10&#45;&gt;Node4 -->
<g id="edge15" class="edge">
<title>Node10&#45;&gt;Node4</title>
<path fill="none" stroke="midnightblue" d="M835,-112.37C835,-94.62 835,-53.67 835,-29.6"/>
<polygon fill="midnightblue" stroke="midnightblue" points="838.5,-29.59 835,-19.59 831.5,-29.59 838.5,-29.59"/>
</g>
<!-- Node10&#45;&gt;Node6 -->
<g id="edge14" class="edge">
<title>Node10&#45;&gt;Node6</title>
<path fill="none" stroke="midnightblue" d="M774.15,-112.44C705.48,-102.79 593.93,-87.1 521.51,-76.92"/>
<polygon fill="midnightblue" stroke="midnightblue" points="521.95,-73.44 511.56,-75.52 520.98,-80.37 521.95,-73.44"/>
</g>
</g>
</svg>
