<?xml version="1.0" encoding="UTF-8" standalone="no"?>
<!DOCTYPE svg PUBLIC "-//W3C//DTD SVG 1.1//EN"
 "http://www.w3.org/Graphics/SVG/1.1/DTD/svg11.dtd">
<!-- Generated by graphviz version 2.43.0 (0)
 -->
<!-- Title: sources/Common/IGameModule.hpp Pages: 1 -->
<svg width="698pt" height="196pt"
 viewBox="0.00 0.00 698.42 196.00" xmlns="http://www.w3.org/2000/svg" xmlns:xlink="http://www.w3.org/1999/xlink">
<g id="graph0" class="graph" transform="scale(1 1) rotate(0) translate(4 192)">
<title>sources/Common/IGameModule.hpp</title>
<polygon fill="white" stroke="transparent" points="-4,4 -4,-192 694.42,-192 694.42,4 -4,4"/>
<!-- Node1 -->
<g id="node1" class="node">
<title>Node1</title>
<g id="a_node1"><a xlink:title=" ">
<polygon fill="#bfbfbf" stroke="black" points="224.42,-168.5 224.42,-187.5 418.42,-187.5 418.42,-168.5 224.42,-168.5"/>
<text text-anchor="middle" x="321.42" y="-175.5" font-family="Helvetica,sans-Serif" font-size="10.00">sources/Common/IGameModule.hpp</text>
</a>
</g>
</g>
<!-- Node2 -->
<g id="node2" class="node">
<title>Node2</title>
<g id="a_node2"><a xlink:href="ModInfo_8hpp.html" target="_top" xlink:title=" ">
<polygon fill="white" stroke="black" points="11.92,-56.5 11.92,-75.5 136.92,-75.5 136.92,-56.5 11.92,-56.5"/>
<text text-anchor="middle" x="74.42" y="-63.5" font-family="Helvetica,sans-Serif" font-size="10.00">Common/ModInfo.hpp</text>
</a>
</g>
</g>
<!-- Node1&#45;&gt;Node2 -->
<g id="edge1" class="edge">
<title>Node1&#45;&gt;Node2</title>
<path fill="none" stroke="midnightblue" d="M224.4,-174.41C153.13,-170.22 64.81,-159.45 41.42,-132 28.82,-117.21 43.21,-96.77 56.74,-82.79"/>
<polygon fill="midnightblue" stroke="midnightblue" points="59.25,-85.23 64,-75.76 54.38,-80.2 59.25,-85.23"/>
</g>
<!-- Node3 -->
<g id="node3" class="node">
<title>Node3</title>
<g id="a_node3"><a xlink:title=" ">
<polygon fill="white" stroke="#bfbfbf" points="6.42,-0.5 6.42,-19.5 50.42,-19.5 50.42,-0.5 6.42,-0.5"/>
<text text-anchor="middle" x="28.42" y="-7.5" font-family="Helvetica,sans-Serif" font-size="10.00">string</text>
</a>
</g>
</g>
<!-- Node1&#45;&gt;Node3 -->
<g id="edge9" class="edge">
<title>Node1&#45;&gt;Node3</title>
<path fill="none" stroke="midnightblue" d="M224.24,-171.24C152.59,-165.28 62.56,-153.69 32.42,-132 3.08,-110.88 -5.65,-91 3.42,-56 5.97,-46.18 11.18,-36.21 16.18,-28.17"/>
<polygon fill="midnightblue" stroke="midnightblue" points="19.17,-29.99 21.79,-19.73 13.34,-26.11 19.17,-29.99"/>
</g>
<!-- Node4 -->
<g id="node4" class="node">
<title>Node4</title>
<g id="a_node4"><a xlink:href="ADrawable_8hpp.html" target="_top" xlink:title=" ">
<polygon fill="white" stroke="black" points="49.92,-112.5 49.92,-131.5 242.92,-131.5 242.92,-112.5 49.92,-112.5"/>
<text text-anchor="middle" x="146.42" y="-119.5" font-family="Helvetica,sans-Serif" font-size="10.00">Common/Drawables/ADrawable.hpp</text>
</a>
</g>
</g>
<!-- Node1&#45;&gt;Node4 -->
<g id="edge3" class="edge">
<title>Node1&#45;&gt;Node4</title>
<path fill="none" stroke="midnightblue" d="M293.69,-168.44C264,-159.28 216.71,-144.69 183.75,-134.52"/>
<polygon fill="midnightblue" stroke="midnightblue" points="184.61,-131.12 174.02,-131.52 182.55,-137.81 184.61,-131.12"/>
</g>
<!-- Node5 -->
<g id="node5" class="node">
<title>Node5</title>
<g id="a_node5"><a xlink:href="Module_8hpp.html" target="_top" xlink:title=" ">
<polygon fill="white" stroke="black" points="260.92,-112.5 260.92,-131.5 381.92,-131.5 381.92,-112.5 260.92,-112.5"/>
<text text-anchor="middle" x="321.42" y="-119.5" font-family="Helvetica,sans-Serif" font-size="10.00">Common/Module.hpp</text>
</a>
</g>
</g>
<!-- Node1&#45;&gt;Node5 -->
<g id="edge4" class="edge">
<title>Node1&#45;&gt;Node5</title>
<path fill="none" stroke="midnightblue" d="M321.42,-168.08C321.42,-161.01 321.42,-150.86 321.42,-141.99"/>
<polygon fill="midnightblue" stroke="midnightblue" points="324.92,-141.75 321.42,-131.75 317.92,-141.75 324.92,-141.75"/>
</g>
<!-- Node6 -->
<g id="node6" class="node">
<title>Node6</title>
<g id="a_node6"><a xlink:href="Event_8hpp.html" target="_top" xlink:title=" ">
<polygon fill="white" stroke="black" points="399.92,-112.5 399.92,-131.5 548.92,-131.5 548.92,-112.5 399.92,-112.5"/>
<text text-anchor="middle" x="474.42" y="-119.5" font-family="Helvetica,sans-Serif" font-size="10.00">Common/Events/Event.hpp</text>
</a>
</g>
</g>
<!-- Node1&#45;&gt;Node6 -->
<g id="edge6" class="edge">
<title>Node1&#45;&gt;Node6</title>
<path fill="none" stroke="midnightblue" d="M345.67,-168.44C371.29,-159.4 411.91,-145.06 440.66,-134.92"/>
<polygon fill="midnightblue" stroke="midnightblue" points="442.03,-138.15 450.29,-131.52 439.7,-131.54 442.03,-138.15"/>
</g>
<!-- Node7 -->
<g id="node7" class="node">
<title>Node7</title>
<g id="a_node7"><a xlink:title=" ">
<polygon fill="white" stroke="#bfbfbf" points="566.92,-112.5 566.92,-131.5 613.92,-131.5 613.92,-112.5 566.92,-112.5"/>
<text text-anchor="middle" x="590.42" y="-119.5" font-family="Helvetica,sans-Serif" font-size="10.00">vector</text>
</a>
</g>
</g>
<!-- Node1&#45;&gt;Node7 -->
<g id="edge7" class="edge">
<title>Node1&#45;&gt;Node7</title>
<path fill="none" stroke="midnightblue" d="M373.48,-168.45C419.42,-160.61 488.39,-148.1 556.65,-132.27"/>
<polygon fill="midnightblue" stroke="midnightblue" points="557.78,-135.6 566.72,-129.91 556.18,-128.79 557.78,-135.6"/>
</g>
<!-- Node8 -->
<g id="node8" class="node">
<title>Node8</title>
<g id="a_node8"><a xlink:title=" ">
<polygon fill="white" stroke="#bfbfbf" points="632.42,-112.5 632.42,-131.5 690.42,-131.5 690.42,-112.5 632.42,-112.5"/>
<text text-anchor="middle" x="661.42" y="-119.5" font-family="Helvetica,sans-Serif" font-size="10.00">memory</text>
</a>
</g>
</g>
<!-- Node1&#45;&gt;Node8 -->
<g id="edge8" class="edge">
<title>Node1&#45;&gt;Node8</title>
<path fill="none" stroke="midnightblue" d="M389.77,-168.5C448.88,-160.76 536.83,-148.33 622.16,-132.12"/>
<polygon fill="midnightblue" stroke="midnightblue" points="622.86,-135.55 632.02,-130.22 621.54,-128.67 622.86,-135.55"/>
</g>
<!-- Node2&#45;&gt;Node3 -->
<g id="edge2" class="edge">
<title>Node2&#45;&gt;Node3</title>
<path fill="none" stroke="midnightblue" d="M66.83,-56.08C60.19,-48.3 50.4,-36.8 42.36,-27.37"/>
<polygon fill="midnightblue" stroke="midnightblue" points="45.03,-25.09 35.88,-19.75 39.7,-29.63 45.03,-25.09"/>
</g>
<!-- Node5&#45;&gt;Node2 -->
<g id="edge5" class="edge">
<title>Node5&#45;&gt;Node2</title>
<path fill="none" stroke="midnightblue" d="M282.28,-112.44C239.2,-103.02 169.86,-87.87 123.25,-77.68"/>
<polygon fill="midnightblue" stroke="midnightblue" points="123.89,-74.23 113.38,-75.52 122.4,-81.07 123.89,-74.23"/>
</g>
</g>
</svg>
