<?xml version="1.0" encoding="UTF-8" standalone="no"?>
<!DOCTYPE svg PUBLIC "-//W3C//DTD SVG 1.1//EN"
 "http://www.w3.org/Graphics/SVG/1.1/DTD/svg11.dtd">
<!-- Generated by graphviz version 2.43.0 (0)
 -->
<!-- Title: Graphical Class Hierarchy Pages: 1 -->
<svg width="288pt" height="215pt"
 viewBox="0.00 0.00 288.00 214.50" xmlns="http://www.w3.org/2000/svg" xmlns:xlink="http://www.w3.org/1999/xlink">
<g id="graph0" class="graph" transform="scale(1 1) rotate(0) translate(4 210.5)">
<title>Graphical Class Hierarchy</title>
<polygon fill="white" stroke="transparent" points="-4,4 -4,-210.5 284,-210.5 284,4 -4,4"/>
<!-- Node0 -->
<g id="node1" class="node">
<title>Node0</title>
<g id="a_node1"><a xlink:href="classArcade_1_1ADrawable.html" target="_top" xlink:title="A base class for every objects in the game.">
<polygon fill="white" stroke="black" points="0,-93.5 0,-112.5 110,-112.5 110,-93.5 0,-93.5"/>
<text text-anchor="middle" x="55" y="-100.5" font-family="Helvetica,sans-Serif" font-size="10.00">Arcade::ADrawable</text>
</a>
</g>
</g>
<!-- Node1 -->
<g id="node2" class="node">
<title>Node1</title>
<g id="a_node2"><a xlink:href="classArcade_1_1Drawables_1_1Circle.html" target="_top" xlink:title="A circle game objecct.">
<polygon fill="white" stroke="black" points="156,-176 156,-206 270,-206 270,-176 156,-176"/>
<text text-anchor="start" x="164" y="-194" font-family="Helvetica,sans-Serif" font-size="10.00">Arcade::Drawables::</text>
<text text-anchor="middle" x="213" y="-183" font-family="Helvetica,sans-Serif" font-size="10.00">Circle</text>
</a>
</g>
</g>
<!-- Node0&#45;&gt;Node1 -->
<g id="edge1" class="edge">
<title>Node0&#45;&gt;Node1</title>
<path fill="none" stroke="midnightblue" d="M75.47,-118.77C93.11,-132.53 120.21,-152.36 146,-166 152.82,-169.61 160.29,-172.95 167.66,-175.95"/>
<polygon fill="midnightblue" stroke="midnightblue" points="77.63,-116.02 67.62,-112.56 73.29,-121.51 77.63,-116.02"/>
</g>
<!-- Node2 -->
<g id="node3" class="node">
<title>Node2</title>
<g id="a_node3"><a xlink:href="classArcade_1_1Drawables_1_1Line.html" target="_top" xlink:title="A base class for every objects in the game.">
<polygon fill="white" stroke="black" points="146,-137.5 146,-156.5 280,-156.5 280,-137.5 146,-137.5"/>
<text text-anchor="middle" x="213" y="-144.5" font-family="Helvetica,sans-Serif" font-size="10.00">Arcade::Drawables::Line</text>
</a>
</g>
</g>
<!-- Node0&#45;&gt;Node2 -->
<g id="edge2" class="edge">
<title>Node0&#45;&gt;Node2</title>
<path fill="none" stroke="midnightblue" d="M99.76,-115.34C124.6,-122.35 155.23,-130.99 178.22,-137.47"/>
<polygon fill="midnightblue" stroke="midnightblue" points="100.42,-111.89 89.85,-112.55 98.52,-118.63 100.42,-111.89"/>
</g>
<!-- Node3 -->
<g id="node4" class="node">
<title>Node3</title>
<g id="a_node4"><a xlink:href="classArcade_1_1Drawables_1_1Rectangle.html" target="_top" xlink:title="A rectangle object.">
<polygon fill="white" stroke="black" points="156,-88 156,-118 270,-118 270,-88 156,-88"/>
<text text-anchor="start" x="164" y="-106" font-family="Helvetica,sans-Serif" font-size="10.00">Arcade::Drawables::</text>
<text text-anchor="middle" x="213" y="-95" font-family="Helvetica,sans-Serif" font-size="10.00">Rectangle</text>
</a>
</g>
</g>
<!-- Node0&#45;&gt;Node3 -->
<g id="edge3" class="edge">
<title>Node0&#45;&gt;Node3</title>
<path fill="none" stroke="midnightblue" d="M120.34,-103C132.12,-103 144.33,-103 155.85,-103"/>
<polygon fill="midnightblue" stroke="midnightblue" points="120.12,-99.5 110.12,-103 120.12,-106.5 120.12,-99.5"/>
</g>
<!-- Node4 -->
<g id="node5" class="node">
<title>Node4</title>
<g id="a_node5"><a xlink:href="classArcade_1_1Drawables_1_1Sprite.html" target="_top" xlink:title="A Sprite game objecct.">
<polygon fill="white" stroke="black" points="156,-39 156,-69 270,-69 270,-39 156,-39"/>
<text text-anchor="start" x="164" y="-57" font-family="Helvetica,sans-Serif" font-size="10.00">Arcade::Drawables::</text>
<text text-anchor="middle" x="213" y="-46" font-family="Helvetica,sans-Serif" font-size="10.00">Sprite</text>
</a>
</g>
</g>
<!-- Node0&#45;&gt;Node4 -->
<g id="edge4" class="edge">
<title>Node0&#45;&gt;Node4</title>
<path fill="none" stroke="midnightblue" d="M96.21,-90.37C116.95,-83.86 142.38,-75.87 164.13,-69.04"/>
<polygon fill="midnightblue" stroke="midnightblue" points="94.94,-87.1 86.45,-93.44 97.04,-93.78 94.94,-87.1"/>
</g>
<!-- Node5 -->
<g id="node6" class="node">
<title>Node5</title>
<g id="a_node6"><a xlink:href="classArcade_1_1Drawables_1_1Text.html" target="_top" xlink:title="A text object.">
<polygon fill="white" stroke="black" points="146,-0.5 146,-19.5 280,-19.5 280,-0.5 146,-0.5"/>
<text text-anchor="middle" x="213" y="-7.5" font-family="Helvetica,sans-Serif" font-size="10.00">Arcade::Drawables::Text</text>
</a>
</g>
</g>
<!-- Node0&#45;&gt;Node5 -->
<g id="edge5" class="edge">
<title>Node0&#45;&gt;Node5</title>
<path fill="none" stroke="midnightblue" d="M73.08,-85.69C90.18,-69.25 117.9,-44.91 146,-30 153.93,-25.79 162.88,-22.33 171.57,-19.54"/>
<polygon fill="midnightblue" stroke="midnightblue" points="70.28,-83.54 65.59,-93.04 75.18,-88.53 70.28,-83.54"/>
</g>
</g>
</svg>
