<?xml version="1.0" encoding="UTF-8" standalone="no"?>
<!DOCTYPE svg PUBLIC "-//W3C//DTD SVG 1.1//EN"
 "http://www.w3.org/Graphics/SVG/1.1/DTD/svg11.dtd">
<!-- Generated by graphviz version 2.43.0 (0)
 -->
<!-- Title: sources/Exceptions/InvalidLibraryException.hpp Pages: 1 -->
<svg width="370pt" height="229pt"
 viewBox="0.00 0.00 370.00 229.00" xmlns="http://www.w3.org/2000/svg" xmlns:xlink="http://www.w3.org/1999/xlink">
<g id="graph0" class="graph" transform="scale(1 1) rotate(0) translate(4 225)">
<title>sources/Exceptions/InvalidLibraryException.hpp</title>
<polygon fill="white" stroke="transparent" points="-4,4 -4,-225 366,-225 366,4 -4,4"/>
<!-- Node1 -->
<g id="node1" class="node">
<title>Node1</title>
<g id="a_node1"><a xlink:title=" ">
<polygon fill="#bfbfbf" stroke="black" points="178,-190.5 178,-220.5 333,-220.5 333,-190.5 178,-190.5"/>
<text text-anchor="start" x="186" y="-208.5" font-family="Helvetica,sans-Serif" font-size="10.00">sources/Exceptions</text>
<text text-anchor="middle" x="255.5" y="-197.5" font-family="Helvetica,sans-Serif" font-size="10.00">/InvalidLibraryException.hpp</text>
</a>
</g>
</g>
<!-- Node2 -->
<g id="node2" class="node">
<title>Node2</title>
<g id="a_node2"><a xlink:href="Library_8hpp.html" target="_top" xlink:title=" ">
<polygon fill="white" stroke="black" points="139.5,-134.5 139.5,-153.5 275.5,-153.5 275.5,-134.5 139.5,-134.5"/>
<text text-anchor="middle" x="207.5" y="-141.5" font-family="Helvetica,sans-Serif" font-size="10.00">sources/Core/Library.hpp</text>
</a>
</g>
</g>
<!-- Node1&#45;&gt;Node2 -->
<g id="edge1" class="edge">
<title>Node1&#45;&gt;Node2</title>
<path fill="none" stroke="midnightblue" d="M237.67,-182.4C229.61,-172.41 220.55,-161.18 214.48,-153.66"/>
<polygon fill="midnightblue" stroke="midnightblue" points="235.12,-184.81 244.12,-190.4 240.57,-180.42 235.12,-184.81"/>
</g>
<!-- Node6 -->
<g id="node6" class="node">
<title>Node6</title>
<g id="a_node6"><a xlink:href="Runner_8cpp.html" target="_top" xlink:title=" ">
<polygon fill="white" stroke="black" points="245,-0.5 245,-30.5 362,-30.5 362,-0.5 245,-0.5"/>
<text text-anchor="start" x="253" y="-18.5" font-family="Helvetica,sans-Serif" font-size="10.00">sources/Core/Runner</text>
<text text-anchor="middle" x="303.5" y="-7.5" font-family="Helvetica,sans-Serif" font-size="10.00">/Runner.cpp</text>
</a>
</g>
</g>
<!-- Node1&#45;&gt;Node6 -->
<g id="edge6" class="edge">
<title>Node1&#45;&gt;Node6</title>
<path fill="none" stroke="midnightblue" d="M271.06,-181.72C276.1,-173.34 281.23,-163.55 284.5,-154 299.31,-110.67 302.6,-55.92 303.31,-30.57"/>
<polygon fill="midnightblue" stroke="midnightblue" points="268.09,-179.87 265.71,-190.19 274.01,-183.6 268.09,-179.87"/>
</g>
<!-- Node3 -->
<g id="node3" class="node">
<title>Node3</title>
<g id="a_node3"><a xlink:href="Library_8cpp.html" target="_top" xlink:title=" ">
<polygon fill="white" stroke="black" points="0,-73 0,-92 135,-92 135,-73 0,-73"/>
<text text-anchor="middle" x="67.5" y="-80" font-family="Helvetica,sans-Serif" font-size="10.00">sources/Core/Library.cpp</text>
</a>
</g>
</g>
<!-- Node2&#45;&gt;Node3 -->
<g id="edge2" class="edge">
<title>Node2&#45;&gt;Node3</title>
<path fill="none" stroke="midnightblue" d="M178.04,-130.48C150.85,-118.92 111.21,-102.08 87.52,-92.01"/>
<polygon fill="midnightblue" stroke="midnightblue" points="176.87,-133.78 187.44,-134.48 179.61,-127.34 176.87,-133.78"/>
</g>
<!-- Node4 -->
<g id="node4" class="node">
<title>Node4</title>
<g id="a_node4"><a xlink:href="Runner_8hpp.html" target="_top" xlink:title=" ">
<polygon fill="white" stroke="black" points="153,-67.5 153,-97.5 270,-97.5 270,-67.5 153,-67.5"/>
<text text-anchor="start" x="161" y="-85.5" font-family="Helvetica,sans-Serif" font-size="10.00">sources/Core/Runner</text>
<text text-anchor="middle" x="211.5" y="-74.5" font-family="Helvetica,sans-Serif" font-size="10.00">/Runner.hpp</text>
</a>
</g>
</g>
<!-- Node2&#45;&gt;Node4 -->
<g id="edge3" class="edge">
<title>Node2&#45;&gt;Node4</title>
<path fill="none" stroke="midnightblue" d="M208.76,-124.23C209.34,-115.59 210.02,-105.5 210.56,-97.52"/>
<polygon fill="midnightblue" stroke="midnightblue" points="205.25,-124.26 208.07,-134.48 212.24,-124.73 205.25,-124.26"/>
</g>
<!-- Node5 -->
<g id="node5" class="node">
<title>Node5</title>
<g id="a_node5"><a xlink:href="main_8cpp.html" target="_top" xlink:title=" ">
<polygon fill="white" stroke="black" points="164.5,-6 164.5,-25 226.5,-25 226.5,-6 164.5,-6"/>
<text text-anchor="middle" x="195.5" y="-13" font-family="Helvetica,sans-Serif" font-size="10.00">main.cpp</text>
</a>
</g>
</g>
<!-- Node4&#45;&gt;Node5 -->
<g id="edge4" class="edge">
<title>Node4&#45;&gt;Node5</title>
<path fill="none" stroke="midnightblue" d="M205.62,-57.6C202.83,-46.28 199.68,-33.46 197.64,-25.19"/>
<polygon fill="midnightblue" stroke="midnightblue" points="202.24,-58.52 208.03,-67.4 209.04,-56.85 202.24,-58.52"/>
</g>
<!-- Node4&#45;&gt;Node6 -->
<g id="edge5" class="edge">
<title>Node4&#45;&gt;Node6</title>
<path fill="none" stroke="midnightblue" d="M239.88,-61.45C254.03,-51.45 270.81,-39.6 283.58,-30.58"/>
<polygon fill="midnightblue" stroke="midnightblue" points="237.61,-58.77 231.46,-67.4 241.65,-64.48 237.61,-58.77"/>
</g>
</g>
</svg>
