<?xml version="1.0" encoding="UTF-8" standalone="no"?>
<!DOCTYPE svg PUBLIC "-//W3C//DTD SVG 1.1//EN"
 "http://www.w3.org/Graphics/SVG/1.1/DTD/svg11.dtd">
<!-- Generated by graphviz version 2.43.0 (0)
 -->
<!-- Title: main.cpp Pages: 1 -->
<svg width="1823pt" height="319pt"
 viewBox="0.00 0.00 1823.23 319.00" xmlns="http://www.w3.org/2000/svg" xmlns:xlink="http://www.w3.org/1999/xlink">
<g id="graph0" class="graph" transform="scale(1 1) rotate(0) translate(4 315)">
<title>main.cpp</title>
<polygon fill="white" stroke="transparent" points="-4,4 -4,-315 1819.23,-315 1819.23,4 -4,4"/>
<!-- Node1 -->
<g id="node1" class="node">
<title>Node1</title>
<g id="a_node1"><a xlink:title=" ">
<polygon fill="#bfbfbf" stroke="black" points="293.23,-291.5 293.23,-310.5 355.23,-310.5 355.23,-291.5 293.23,-291.5"/>
<text text-anchor="middle" x="324.23" y="-298.5" font-family="Helvetica,sans-Serif" font-size="10.00">main.cpp</text>
</a>
</g>
</g>
<!-- Node2 -->
<g id="node2" class="node">
<title>Node2</title>
<g id="a_node2"><a xlink:title=" ">
<polygon fill="white" stroke="#bfbfbf" points="237.23,-235.5 237.23,-254.5 297.23,-254.5 297.23,-235.5 237.23,-235.5"/>
<text text-anchor="middle" x="267.23" y="-242.5" font-family="Helvetica,sans-Serif" font-size="10.00">iostream</text>
</a>
</g>
</g>
<!-- Node1&#45;&gt;Node2 -->
<g id="edge1" class="edge">
<title>Node1&#45;&gt;Node2</title>
<path fill="none" stroke="midnightblue" d="M315.08,-291.32C306.73,-283.42 294.2,-271.55 284.06,-261.94"/>
<polygon fill="midnightblue" stroke="midnightblue" points="286.22,-259.17 276.56,-254.83 281.41,-264.25 286.22,-259.17"/>
</g>
<!-- Node3 -->
<g id="node3" class="node">
<title>Node3</title>
<g id="a_node3"><a xlink:href="Runner_8hpp.html" target="_top" xlink:title=" ">
<polygon fill="white" stroke="black" points="315.23,-235.5 315.23,-254.5 449.23,-254.5 449.23,-235.5 315.23,-235.5"/>
<text text-anchor="middle" x="382.23" y="-242.5" font-family="Helvetica,sans-Serif" font-size="10.00">Core/Runner/Runner.hpp</text>
</a>
</g>
</g>
<!-- Node1&#45;&gt;Node3 -->
<g id="edge2" class="edge">
<title>Node1&#45;&gt;Node3</title>
<path fill="none" stroke="midnightblue" d="M333.55,-291.32C342.13,-283.34 355.05,-271.31 365.42,-261.65"/>
<polygon fill="midnightblue" stroke="midnightblue" points="367.81,-264.21 372.75,-254.83 363.04,-259.09 367.81,-264.21"/>
</g>
<!-- Node4 -->
<g id="node4" class="node">
<title>Node4</title>
<g id="a_node4"><a xlink:title=" ">
<polygon fill="white" stroke="#bfbfbf" points="595.23,-0.5 595.23,-19.5 639.23,-19.5 639.23,-0.5 595.23,-0.5"/>
<text text-anchor="middle" x="617.23" y="-7.5" font-family="Helvetica,sans-Serif" font-size="10.00">string</text>
</a>
</g>
</g>
<!-- Node3&#45;&gt;Node4 -->
<g id="edge3" class="edge">
<title>Node3&#45;&gt;Node4</title>
<path fill="none" stroke="midnightblue" d="M316.02,-235.49C227.24,-223.93 79.38,-204.12 68.23,-199 24.61,-178.96 -12.19,-157.11 4.23,-112 15.35,-81.47 22.35,-70.89 51.23,-56 98.77,-31.5 472.4,-16.2 585.14,-12.11"/>
<polygon fill="midnightblue" stroke="midnightblue" points="585.34,-15.6 595.21,-11.75 585.09,-8.61 585.34,-15.6"/>
</g>
<!-- Node5 -->
<g id="node5" class="node">
<title>Node5</title>
<g id="a_node5"><a xlink:title=" ">
<polygon fill="white" stroke="#bfbfbf" points="287.73,-118 287.73,-137 334.73,-137 334.73,-118 287.73,-118"/>
<text text-anchor="middle" x="311.23" y="-125" font-family="Helvetica,sans-Serif" font-size="10.00">vector</text>
</a>
</g>
</g>
<!-- Node3&#45;&gt;Node5 -->
<g id="edge4" class="edge">
<title>Node3&#45;&gt;Node5</title>
<path fill="none" stroke="midnightblue" d="M376.9,-235.32C365.28,-216.42 337.51,-171.25 322.07,-146.12"/>
<polygon fill="midnightblue" stroke="midnightblue" points="324.85,-143.97 316.63,-137.28 318.89,-147.63 324.85,-143.97"/>
</g>
<!-- Node6 -->
<g id="node6" class="node">
<title>Node6</title>
<g id="a_node6"><a xlink:title=" ">
<polygon fill="white" stroke="#bfbfbf" points="353.23,-118 353.23,-137 411.23,-137 411.23,-118 353.23,-118"/>
<text text-anchor="middle" x="382.23" y="-125" font-family="Helvetica,sans-Serif" font-size="10.00">memory</text>
</a>
</g>
</g>
<!-- Node3&#45;&gt;Node6 -->
<g id="edge5" class="edge">
<title>Node3&#45;&gt;Node6</title>
<path fill="none" stroke="midnightblue" d="M382.23,-235.32C382.23,-216.76 382.23,-172.84 382.23,-147.47"/>
<polygon fill="midnightblue" stroke="midnightblue" points="385.73,-147.28 382.23,-137.28 378.73,-147.28 385.73,-147.28"/>
</g>
<!-- Node7 -->
<g id="node7" class="node">
<title>Node7</title>
<g id="a_node7"><a xlink:title=" ">
<polygon fill="white" stroke="#bfbfbf" points="944.23,-179.5 944.23,-198.5 982.23,-198.5 982.23,-179.5 944.23,-179.5"/>
<text text-anchor="middle" x="963.23" y="-186.5" font-family="Helvetica,sans-Serif" font-size="10.00">map</text>
</a>
</g>
</g>
<!-- Node3&#45;&gt;Node7 -->
<g id="edge6" class="edge">
<title>Node3&#45;&gt;Node7</title>
<path fill="none" stroke="midnightblue" d="M449.58,-243.25C554.21,-241.03 761.72,-232.38 934.23,-199 934.33,-198.98 934.43,-198.96 934.53,-198.94"/>
<polygon fill="midnightblue" stroke="midnightblue" points="935.17,-202.39 944.04,-196.6 933.49,-195.59 935.17,-202.39"/>
</g>
<!-- Node8 -->
<g id="node8" class="node">
<title>Node8</title>
<g id="a_node8"><a xlink:title=" ">
<polygon fill="white" stroke="#bfbfbf" points="1000.73,-179.5 1000.73,-198.5 1065.73,-198.5 1065.73,-179.5 1000.73,-179.5"/>
<text text-anchor="middle" x="1033.23" y="-186.5" font-family="Helvetica,sans-Serif" font-size="10.00">functional</text>
</a>
</g>
</g>
<!-- Node3&#45;&gt;Node8 -->
<g id="edge7" class="edge">
<title>Node3&#45;&gt;Node8</title>
<path fill="none" stroke="midnightblue" d="M449.24,-242.06C559.93,-238.19 788.01,-227.42 990.37,-198.92"/>
<polygon fill="midnightblue" stroke="midnightblue" points="990.89,-202.38 1000.3,-197.51 989.9,-195.45 990.89,-202.38"/>
</g>
<!-- Node9 -->
<g id="node9" class="node">
<title>Node9</title>
<g id="a_node9"><a xlink:href="IGameModule_8hpp.html" target="_top" xlink:title=" ">
<polygon fill="white" stroke="black" points="431.73,-179.5 431.73,-198.5 584.73,-198.5 584.73,-179.5 431.73,-179.5"/>
<text text-anchor="middle" x="508.23" y="-186.5" font-family="Helvetica,sans-Serif" font-size="10.00">Common/IGameModule.hpp</text>
</a>
</g>
</g>
<!-- Node3&#45;&gt;Node9 -->
<g id="edge8" class="edge">
<title>Node3&#45;&gt;Node9</title>
<path fill="none" stroke="midnightblue" d="M402.2,-235.44C422.84,-226.6 455.3,-212.69 478.87,-202.59"/>
<polygon fill="midnightblue" stroke="midnightblue" points="480.55,-205.67 488.36,-198.52 477.79,-199.24 480.55,-205.67"/>
</g>
<!-- Node10 -->
<g id="node10" class="node">
<title>Node10</title>
<g id="a_node10"><a xlink:href="ModInfo_8hpp.html" target="_top" xlink:title=" ">
<polygon fill="white" stroke="black" points="376.73,-56.5 376.73,-75.5 501.73,-75.5 501.73,-56.5 376.73,-56.5"/>
<text text-anchor="middle" x="439.23" y="-63.5" font-family="Helvetica,sans-Serif" font-size="10.00">Common/ModInfo.hpp</text>
</a>
</g>
</g>
<!-- Node3&#45;&gt;Node10 -->
<g id="edge42" class="edge">
<title>Node3&#45;&gt;Node10</title>
<path fill="none" stroke="midnightblue" d="M315.63,-235.49C219.7,-221.71 50.19,-191.08 14.23,-143 5.98,-131.97 5.02,-122.24 14.23,-112 37.3,-86.37 250.95,-74.23 366.25,-69.51"/>
<polygon fill="midnightblue" stroke="midnightblue" points="366.56,-73 376.42,-69.1 366.28,-66.01 366.56,-73"/>
</g>
<!-- Node14 -->
<g id="node14" class="node">
<title>Node14</title>
<g id="a_node14"><a xlink:href="IDisplayModule_8hpp.html" target="_top" xlink:title=" ">
<polygon fill="white" stroke="black" points="764.73,-179.5 764.73,-198.5 925.73,-198.5 925.73,-179.5 764.73,-179.5"/>
<text text-anchor="middle" x="845.23" y="-186.5" font-family="Helvetica,sans-Serif" font-size="10.00">Common/IDisplayModule.hpp</text>
</a>
</g>
</g>
<!-- Node3&#45;&gt;Node14 -->
<g id="edge18" class="edge">
<title>Node3&#45;&gt;Node14</title>
<path fill="none" stroke="midnightblue" d="M449.56,-236.15C532.27,-226.5 672.59,-210.14 761.99,-199.71"/>
<polygon fill="midnightblue" stroke="midnightblue" points="762.57,-203.17 772.09,-198.53 761.76,-196.21 762.57,-203.17"/>
</g>
<!-- Node21 -->
<g id="node21" class="node">
<title>Node21</title>
<g id="a_node21"><a xlink:href="Library_8hpp.html" target="_top" xlink:title=" ">
<polygon fill="white" stroke="black" points="213.73,-179.5 213.73,-198.5 308.73,-198.5 308.73,-179.5 213.73,-179.5"/>
<text text-anchor="middle" x="261.23" y="-186.5" font-family="Helvetica,sans-Serif" font-size="10.00">Core/Library.hpp</text>
</a>
</g>
</g>
<!-- Node3&#45;&gt;Node21 -->
<g id="edge35" class="edge">
<title>Node3&#45;&gt;Node21</title>
<path fill="none" stroke="midnightblue" d="M363.06,-235.44C343.32,-226.64 312.35,-212.81 289.74,-202.72"/>
<polygon fill="midnightblue" stroke="midnightblue" points="290.87,-199.4 280.32,-198.52 288.02,-205.79 290.87,-199.4"/>
</g>
<!-- Node9&#45;&gt;Node4 -->
<g id="edge17" class="edge">
<title>Node9&#45;&gt;Node4</title>
<path fill="none" stroke="midnightblue" d="M541.66,-179.43C560.94,-172.73 583.93,-161.37 597.23,-143 621.73,-109.16 621.65,-57.53 619.45,-29.94"/>
<polygon fill="midnightblue" stroke="midnightblue" points="622.91,-29.32 618.45,-19.71 615.94,-30.01 622.91,-29.32"/>
</g>
<!-- Node9&#45;&gt;Node5 -->
<g id="edge15" class="edge">
<title>Node9&#45;&gt;Node5</title>
<path fill="none" stroke="midnightblue" d="M470.96,-179.42C437.4,-171.31 386.95,-158.15 344.23,-143 342.57,-142.41 340.87,-141.77 339.17,-141.11"/>
<polygon fill="midnightblue" stroke="midnightblue" points="340.12,-137.71 329.54,-137.11 337.44,-144.18 340.12,-137.71"/>
</g>
<!-- Node9&#45;&gt;Node6 -->
<g id="edge16" class="edge">
<title>Node9&#45;&gt;Node6</title>
<path fill="none" stroke="midnightblue" d="M490.18,-179.48C469.04,-169.49 433.79,-152.85 409.36,-141.31"/>
<polygon fill="midnightblue" stroke="midnightblue" points="410.79,-138.11 400.25,-137.01 407.8,-144.44 410.79,-138.11"/>
</g>
<!-- Node9&#45;&gt;Node10 -->
<g id="edge9" class="edge">
<title>Node9&#45;&gt;Node10</title>
<path fill="none" stroke="midnightblue" d="M494.71,-179.29C483.29,-171.22 467.38,-158.21 458.23,-143 447.63,-125.37 442.92,-102.04 440.85,-85.9"/>
<polygon fill="midnightblue" stroke="midnightblue" points="444.29,-85.17 439.75,-75.6 437.33,-85.91 444.29,-85.17"/>
</g>
<!-- Node11 -->
<g id="node11" class="node">
<title>Node11</title>
<g id="a_node11"><a xlink:href="ADrawable_8hpp.html" target="_top" xlink:title=" ">
<polygon fill="white" stroke="black" points="1085.73,-56.5 1085.73,-75.5 1278.73,-75.5 1278.73,-56.5 1085.73,-56.5"/>
<text text-anchor="middle" x="1182.23" y="-63.5" font-family="Helvetica,sans-Serif" font-size="10.00">Common/Drawables/ADrawable.hpp</text>
</a>
</g>
</g>
<!-- Node9&#45;&gt;Node11 -->
<g id="edge11" class="edge">
<title>Node9&#45;&gt;Node11</title>
<path fill="none" stroke="midnightblue" d="M538.84,-179.47C564.37,-171.74 601.29,-159.1 631.23,-143 651.67,-132.01 651.54,-120.22 673.23,-112 744.32,-85.08 948.3,-74.04 1075.41,-69.68"/>
<polygon fill="midnightblue" stroke="midnightblue" points="1075.69,-73.17 1085.57,-69.34 1075.46,-66.17 1075.69,-73.17"/>
</g>
<!-- Node12 -->
<g id="node12" class="node">
<title>Node12</title>
<g id="a_node12"><a xlink:href="Module_8hpp.html" target="_top" xlink:title=" ">
<polygon fill="white" stroke="black" points="467.73,-118 467.73,-137 588.73,-137 588.73,-118 467.73,-118"/>
<text text-anchor="middle" x="528.23" y="-125" font-family="Helvetica,sans-Serif" font-size="10.00">Common/Module.hpp</text>
</a>
</g>
</g>
<!-- Node9&#45;&gt;Node12 -->
<g id="edge12" class="edge">
<title>Node9&#45;&gt;Node12</title>
<path fill="none" stroke="midnightblue" d="M511.1,-179.48C513.95,-170.99 518.42,-157.7 522.07,-146.82"/>
<polygon fill="midnightblue" stroke="midnightblue" points="525.5,-147.6 525.37,-137.01 518.87,-145.37 525.5,-147.6"/>
</g>
<!-- Node13 -->
<g id="node13" class="node">
<title>Node13</title>
<g id="a_node13"><a xlink:href="Event_8hpp.html" target="_top" xlink:title=" ">
<polygon fill="white" stroke="black" points="682.73,-118 682.73,-137 831.73,-137 831.73,-118 682.73,-118"/>
<text text-anchor="middle" x="757.23" y="-125" font-family="Helvetica,sans-Serif" font-size="10.00">Common/Events/Event.hpp</text>
</a>
</g>
</g>
<!-- Node9&#45;&gt;Node13 -->
<g id="edge14" class="edge">
<title>Node9&#45;&gt;Node13</title>
<path fill="none" stroke="midnightblue" d="M543.91,-179.48C588.1,-168.92 663.45,-150.91 711.75,-139.37"/>
<polygon fill="midnightblue" stroke="midnightblue" points="712.71,-142.74 721.62,-137.01 711.08,-135.93 712.71,-142.74"/>
</g>
<!-- Node10&#45;&gt;Node4 -->
<g id="edge10" class="edge">
<title>Node10&#45;&gt;Node4</title>
<path fill="none" stroke="midnightblue" d="M467.44,-56.44C499.51,-46.71 551.76,-30.86 585.3,-20.69"/>
<polygon fill="midnightblue" stroke="midnightblue" points="586.51,-23.98 595.07,-17.73 584.48,-17.28 586.51,-23.98"/>
</g>
<!-- Node12&#45;&gt;Node10 -->
<g id="edge13" class="edge">
<title>Node12&#45;&gt;Node10</title>
<path fill="none" stroke="midnightblue" d="M515.48,-117.98C501.21,-108.43 477.84,-92.81 460.73,-81.37"/>
<polygon fill="midnightblue" stroke="midnightblue" points="462.22,-78.16 451.96,-75.51 458.33,-83.98 462.22,-78.16"/>
</g>
<!-- Node14&#45;&gt;Node6 -->
<g id="edge34" class="edge">
<title>Node14&#45;&gt;Node6</title>
<path fill="none" stroke="midnightblue" d="M764.58,-180.35C686.14,-172.5 563.7,-159.17 458.23,-143 446.22,-141.16 433.2,-138.81 421.39,-136.54"/>
<polygon fill="midnightblue" stroke="midnightblue" points="421.87,-133.06 411.38,-134.58 420.52,-139.93 421.87,-133.06"/>
</g>
<!-- Node14&#45;&gt;Node12 -->
<g id="edge19" class="edge">
<title>Node14&#45;&gt;Node12</title>
<path fill="none" stroke="midnightblue" d="M799.82,-179.48C742.73,-168.76 644.82,-150.38 583.46,-138.87"/>
<polygon fill="midnightblue" stroke="midnightblue" points="584.04,-135.41 573.57,-137.01 582.75,-142.29 584.04,-135.41"/>
</g>
<!-- Node14&#45;&gt;Node13 -->
<g id="edge32" class="edge">
<title>Node14&#45;&gt;Node13</title>
<path fill="none" stroke="midnightblue" d="M832.63,-179.48C818.51,-169.93 795.4,-154.31 778.48,-142.87"/>
<polygon fill="midnightblue" stroke="midnightblue" points="780.06,-139.71 769.82,-137.01 776.14,-145.51 780.06,-139.71"/>
</g>
<!-- Node15 -->
<g id="node15" class="node">
<title>Node15</title>
<g id="a_node15"><a xlink:href="Line_8hpp.html" target="_top" xlink:title=" ">
<polygon fill="white" stroke="black" points="1605.23,-118 1605.23,-137 1765.23,-137 1765.23,-118 1605.23,-118"/>
<text text-anchor="middle" x="1685.23" y="-125" font-family="Helvetica,sans-Serif" font-size="10.00">Common/Drawables/Line.hpp</text>
</a>
</g>
</g>
<!-- Node14&#45;&gt;Node15 -->
<g id="edge20" class="edge">
<title>Node14&#45;&gt;Node15</title>
<path fill="none" stroke="midnightblue" d="M926.17,-179.73C929.23,-179.47 932.26,-179.23 935.23,-179 1228.57,-156.36 1303.73,-174.7 1596.23,-143 1606.73,-141.86 1617.87,-140.32 1628.59,-138.66"/>
<polygon fill="midnightblue" stroke="midnightblue" points="1629.39,-142.08 1638.71,-137.04 1628.28,-135.17 1629.39,-142.08"/>
</g>
<!-- Node16 -->
<g id="node16" class="node">
<title>Node16</title>
<g id="a_node16"><a xlink:href="Rectangle_8hpp.html" target="_top" xlink:title=" ">
<polygon fill="white" stroke="black" points="1213.23,-118 1213.23,-137 1401.23,-137 1401.23,-118 1213.23,-118"/>
<text text-anchor="middle" x="1307.23" y="-125" font-family="Helvetica,sans-Serif" font-size="10.00">Common/Drawables/Rectangle.hpp</text>
</a>
</g>
</g>
<!-- Node14&#45;&gt;Node16 -->
<g id="edge22" class="edge">
<title>Node14&#45;&gt;Node16</title>
<path fill="none" stroke="midnightblue" d="M915.78,-179.48C988.2,-170.65 1104.14,-156.32 1204.23,-143 1215.06,-141.56 1226.52,-139.99 1237.71,-138.43"/>
<polygon fill="midnightblue" stroke="midnightblue" points="1238.47,-141.86 1247.89,-137.01 1237.5,-134.93 1238.47,-141.86"/>
</g>
<!-- Node17 -->
<g id="node17" class="node">
<title>Node17</title>
<g id="a_node17"><a xlink:href="Circle_8hpp.html" target="_top" xlink:title=" ">
<polygon fill="white" stroke="black" points="1419.73,-118 1419.73,-137 1586.73,-137 1586.73,-118 1419.73,-118"/>
<text text-anchor="middle" x="1503.23" y="-125" font-family="Helvetica,sans-Serif" font-size="10.00">Common/Drawables/Circle.hpp</text>
</a>
</g>
</g>
<!-- Node14&#45;&gt;Node17 -->
<g id="edge24" class="edge">
<title>Node14&#45;&gt;Node17</title>
<path fill="none" stroke="midnightblue" d="M926.18,-179.81C929.23,-179.53 932.26,-179.26 935.23,-179 1146.14,-160.47 1199.92,-167.33 1410.23,-143 1420.92,-141.76 1432.26,-140.2 1443.22,-138.57"/>
<polygon fill="midnightblue" stroke="midnightblue" points="1443.78,-142.02 1453.14,-137.05 1442.72,-135.1 1443.78,-142.02"/>
</g>
<!-- Node18 -->
<g id="node18" class="node">
<title>Node18</title>
<g id="a_node18"><a xlink:href="Sprite_8hpp.html" target="_top" xlink:title=" ">
<polygon fill="white" stroke="black" points="849.23,-118 849.23,-137 1017.23,-137 1017.23,-118 849.23,-118"/>
<text text-anchor="middle" x="933.23" y="-125" font-family="Helvetica,sans-Serif" font-size="10.00">Common/Drawables/Sprite.hpp</text>
</a>
</g>
</g>
<!-- Node14&#45;&gt;Node18 -->
<g id="edge26" class="edge">
<title>Node14&#45;&gt;Node18</title>
<path fill="none" stroke="midnightblue" d="M857.84,-179.48C871.96,-169.93 895.06,-154.31 911.98,-142.87"/>
<polygon fill="midnightblue" stroke="midnightblue" points="914.32,-145.51 920.65,-137.01 910.4,-139.71 914.32,-145.51"/>
</g>
<!-- Node19 -->
<g id="node19" class="node">
<title>Node19</title>
<g id="a_node19"><a xlink:href="Text_8hpp.html" target="_top" xlink:title=" ">
<polygon fill="white" stroke="black" points="1035.23,-118 1035.23,-137 1195.23,-137 1195.23,-118 1035.23,-118"/>
<text text-anchor="middle" x="1115.23" y="-125" font-family="Helvetica,sans-Serif" font-size="10.00">Common/Drawables/Text.hpp</text>
</a>
</g>
</g>
<!-- Node14&#45;&gt;Node19 -->
<g id="edge29" class="edge">
<title>Node14&#45;&gt;Node19</title>
<path fill="none" stroke="midnightblue" d="M883.92,-179.48C932.04,-168.87 1014.22,-150.76 1066.57,-139.22"/>
<polygon fill="midnightblue" stroke="midnightblue" points="1067.61,-142.58 1076.62,-137.01 1066.1,-135.74 1067.61,-142.58"/>
</g>
<!-- Node20 -->
<g id="node20" class="node">
<title>Node20</title>
<g id="a_node20"><a xlink:title=" ">
<polygon fill="white" stroke="#bfbfbf" points="1783.23,-118 1783.23,-137 1815.23,-137 1815.23,-118 1783.23,-118"/>
<text text-anchor="middle" x="1799.23" y="-125" font-family="Helvetica,sans-Serif" font-size="10.00">list</text>
</a>
</g>
</g>
<!-- Node14&#45;&gt;Node20 -->
<g id="edge33" class="edge">
<title>Node14&#45;&gt;Node20</title>
<path fill="none" stroke="midnightblue" d="M926.17,-179.69C929.23,-179.44 932.26,-179.21 935.23,-179 1121.38,-165.71 1595.11,-195.33 1774.23,-143 1775.48,-142.64 1776.73,-142.2 1777.97,-141.7"/>
<polygon fill="midnightblue" stroke="midnightblue" points="1779.69,-144.75 1787.05,-137.13 1776.55,-138.5 1779.69,-144.75"/>
</g>
<!-- Node15&#45;&gt;Node11 -->
<g id="edge21" class="edge">
<title>Node15&#45;&gt;Node11</title>
<path fill="none" stroke="midnightblue" d="M1635.87,-117.98C1622.99,-115.89 1609.11,-113.75 1596.23,-112 1489.87,-97.57 1367.64,-84.74 1283.71,-76.51"/>
<polygon fill="midnightblue" stroke="midnightblue" points="1283.96,-73.02 1273.67,-75.53 1283.28,-79.98 1283.96,-73.02"/>
</g>
<!-- Node16&#45;&gt;Node11 -->
<g id="edge23" class="edge">
<title>Node16&#45;&gt;Node11</title>
<path fill="none" stroke="midnightblue" d="M1289.32,-117.98C1268.35,-107.99 1233.38,-91.35 1209.14,-79.81"/>
<polygon fill="midnightblue" stroke="midnightblue" points="1210.64,-76.65 1200.11,-75.51 1207.63,-82.97 1210.64,-76.65"/>
</g>
<!-- Node17&#45;&gt;Node11 -->
<g id="edge25" class="edge">
<title>Node17&#45;&gt;Node11</title>
<path fill="none" stroke="midnightblue" d="M1457.24,-117.98C1399.44,-107.26 1300.29,-88.88 1238.16,-77.37"/>
<polygon fill="midnightblue" stroke="midnightblue" points="1238.61,-73.89 1228.14,-75.51 1237.33,-80.77 1238.61,-73.89"/>
</g>
<!-- Node18&#45;&gt;Node4 -->
<g id="edge28" class="edge">
<title>Node18&#45;&gt;Node4</title>
<path fill="none" stroke="midnightblue" d="M909.74,-117.91C853.8,-97.47 712.66,-45.88 649.11,-22.65"/>
<polygon fill="midnightblue" stroke="midnightblue" points="650.2,-19.32 639.61,-19.18 647.8,-25.9 650.2,-19.32"/>
</g>
<!-- Node18&#45;&gt;Node11 -->
<g id="edge27" class="edge">
<title>Node18&#45;&gt;Node11</title>
<path fill="none" stroke="midnightblue" d="M968.91,-117.98C1013.1,-107.42 1088.45,-89.41 1136.75,-77.87"/>
<polygon fill="midnightblue" stroke="midnightblue" points="1137.71,-81.24 1146.62,-75.51 1136.08,-74.43 1137.71,-81.24"/>
</g>
<!-- Node19&#45;&gt;Node4 -->
<g id="edge31" class="edge">
<title>Node19&#45;&gt;Node4</title>
<path fill="none" stroke="midnightblue" d="M1078.21,-117.91C984.2,-96.11 737.49,-38.89 649.22,-18.42"/>
<polygon fill="midnightblue" stroke="midnightblue" points="649.79,-14.96 639.26,-16.11 648.21,-21.78 649.79,-14.96"/>
</g>
<!-- Node19&#45;&gt;Node11 -->
<g id="edge30" class="edge">
<title>Node19&#45;&gt;Node11</title>
<path fill="none" stroke="midnightblue" d="M1124.83,-117.98C1135.28,-108.7 1152.2,-93.67 1164.97,-82.33"/>
<polygon fill="midnightblue" stroke="midnightblue" points="1167.5,-84.77 1172.65,-75.51 1162.85,-79.53 1167.5,-84.77"/>
</g>
<!-- Node21&#45;&gt;Node6 -->
<g id="edge40" class="edge">
<title>Node21&#45;&gt;Node6</title>
<path fill="none" stroke="midnightblue" d="M278.57,-179.48C298.79,-169.53 332.42,-152.99 355.88,-141.46"/>
<polygon fill="midnightblue" stroke="midnightblue" points="357.5,-144.56 364.93,-137.01 354.41,-138.28 357.5,-144.56"/>
</g>
<!-- Node21&#45;&gt;Node10 -->
<g id="edge37" class="edge">
<title>Node21&#45;&gt;Node10</title>
<path fill="none" stroke="midnightblue" d="M260.53,-179.41C259.74,-163.82 260.46,-130.73 278.23,-112 301.04,-87.97 335.51,-76.42 366.72,-71"/>
<polygon fill="midnightblue" stroke="midnightblue" points="367.37,-74.44 376.72,-69.45 366.3,-67.53 367.37,-74.44"/>
</g>
<!-- Node21&#45;&gt;Node12 -->
<g id="edge36" class="edge">
<title>Node21&#45;&gt;Node12</title>
<path fill="none" stroke="midnightblue" d="M299.49,-179.48C347.07,-168.87 428.34,-150.76 480.11,-139.22"/>
<polygon fill="midnightblue" stroke="midnightblue" points="481.05,-142.6 490.05,-137.01 479.53,-135.77 481.05,-142.6"/>
</g>
<!-- Node22 -->
<g id="node22" class="node">
<title>Node22</title>
<g id="a_node22"><a xlink:href="InvalidLibraryException_8hpp.html" target="_top" xlink:title=" ">
<polygon fill="white" stroke="black" points="23.23,-112.5 23.23,-142.5 163.23,-142.5 163.23,-112.5 23.23,-112.5"/>
<text text-anchor="start" x="31.23" y="-130.5" font-family="Helvetica,sans-Serif" font-size="10.00">Exceptions/InvalidLibrary</text>
<text text-anchor="middle" x="93.23" y="-119.5" font-family="Helvetica,sans-Serif" font-size="10.00">Exception.hpp</text>
</a>
</g>
</g>
<!-- Node21&#45;&gt;Node22 -->
<g id="edge38" class="edge">
<title>Node21&#45;&gt;Node22</title>
<path fill="none" stroke="midnightblue" d="M237.16,-179.48C212.6,-170.78 173.78,-157.03 142.64,-146"/>
<polygon fill="midnightblue" stroke="midnightblue" points="143.42,-142.56 132.83,-142.52 141.09,-149.16 143.42,-142.56"/>
</g>
<!-- Node24 -->
<g id="node24" class="node">
<title>Node24</title>
<g id="a_node24"><a xlink:title=" ">
<polygon fill="white" stroke="#bfbfbf" points="181.23,-118 181.23,-137 231.23,-137 231.23,-118 181.23,-118"/>
<text text-anchor="middle" x="206.23" y="-125" font-family="Helvetica,sans-Serif" font-size="10.00">dlfcn.h</text>
</a>
</g>
</g>
<!-- Node21&#45;&gt;Node24 -->
<g id="edge41" class="edge">
<title>Node21&#45;&gt;Node24</title>
<path fill="none" stroke="midnightblue" d="M253.35,-179.48C244.94,-170.37 231.41,-155.74 221.01,-144.48"/>
<polygon fill="midnightblue" stroke="midnightblue" points="223.46,-141.98 214.1,-137.01 218.32,-146.73 223.46,-141.98"/>
</g>
<!-- Node23 -->
<g id="node23" class="node">
<title>Node23</title>
<g id="a_node23"><a xlink:title=" ">
<polygon fill="white" stroke="#bfbfbf" points="60.73,-56.5 60.73,-75.5 125.73,-75.5 125.73,-56.5 60.73,-56.5"/>
<text text-anchor="middle" x="93.23" y="-63.5" font-family="Helvetica,sans-Serif" font-size="10.00">stdexcept</text>
</a>
</g>
</g>
<!-- Node22&#45;&gt;Node23 -->
<g id="edge39" class="edge">
<title>Node22&#45;&gt;Node23</title>
<path fill="none" stroke="midnightblue" d="M93.23,-112.4C93.23,-104.47 93.23,-94.46 93.23,-85.86"/>
<polygon fill="midnightblue" stroke="midnightblue" points="96.73,-85.66 93.23,-75.66 89.73,-85.66 96.73,-85.66"/>
</g>
</g>
</svg>
