<?xml version="1.0" encoding="UTF-8" standalone="no"?>
<!DOCTYPE svg PUBLIC "-//W3C//DTD SVG 1.1//EN"
 "http://www.w3.org/Graphics/SVG/1.1/DTD/svg11.dtd">
<!-- Generated by graphviz version 2.43.0 (0)
 -->
<!-- Title: sources/Common/ModInfo.hpp Pages: 1 -->
<svg width="595pt" height="274pt"
 viewBox="0.00 0.00 595.39 274.00" xmlns="http://www.w3.org/2000/svg" xmlns:xlink="http://www.w3.org/1999/xlink">
<g id="graph0" class="graph" transform="scale(1 1) rotate(0) translate(4 270)">
<title>sources/Common/ModInfo.hpp</title>
<polygon fill="white" stroke="transparent" points="-4,4 -4,-270 591.39,-270 591.39,4 -4,4"/>
<!-- Node1 -->
<g id="node1" class="node">
<title>Node1</title>
<g id="a_node1"><a xlink:title=" ">
<polygon fill="#bfbfbf" stroke="black" points="114.89,-246.5 114.89,-265.5 279.89,-265.5 279.89,-246.5 114.89,-246.5"/>
<text text-anchor="middle" x="197.39" y="-253.5" font-family="Helvetica,sans-Serif" font-size="10.00">sources/Common/ModInfo.hpp</text>
</a>
</g>
</g>
<!-- Node2 -->
<g id="node2" class="node">
<title>Node2</title>
<g id="a_node2"><a xlink:href="IGameModule_8hpp.html" target="_top" xlink:title=" ">
<polygon fill="white" stroke="black" points="19.39,-134.5 19.39,-153.5 213.39,-153.5 213.39,-134.5 19.39,-134.5"/>
<text text-anchor="middle" x="116.39" y="-141.5" font-family="Helvetica,sans-Serif" font-size="10.00">sources/Common/IGameModule.hpp</text>
</a>
</g>
</g>
<!-- Node1&#45;&gt;Node2 -->
<g id="edge1" class="edge">
<title>Node1&#45;&gt;Node2</title>
<path fill="none" stroke="midnightblue" d="M185.07,-238.27C167.56,-214.49 136.11,-171.79 122.71,-153.59"/>
<polygon fill="midnightblue" stroke="midnightblue" points="182.28,-240.39 191.03,-246.37 187.92,-236.24 182.28,-240.39"/>
</g>
<!-- Node3 -->
<g id="node3" class="node">
<title>Node3</title>
<g id="a_node3"><a xlink:href="Runner_8hpp.html" target="_top" xlink:title=" ">
<polygon fill="white" stroke="black" points="165.89,-67.5 165.89,-97.5 282.89,-97.5 282.89,-67.5 165.89,-67.5"/>
<text text-anchor="start" x="173.89" y="-85.5" font-family="Helvetica,sans-Serif" font-size="10.00">sources/Core/Runner</text>
<text text-anchor="middle" x="224.39" y="-74.5" font-family="Helvetica,sans-Serif" font-size="10.00">/Runner.hpp</text>
</a>
</g>
</g>
<!-- Node1&#45;&gt;Node3 -->
<g id="edge13" class="edge">
<title>Node1&#45;&gt;Node3</title>
<path fill="none" stroke="midnightblue" d="M147.29,-244.02C78.24,-226.58 -33.01,-188.84 10.39,-134 29.46,-109.9 109.18,-96.14 165.73,-89.25"/>
<polygon fill="midnightblue" stroke="midnightblue" points="146.6,-247.45 157.15,-246.44 148.27,-240.66 146.6,-247.45"/>
</g>
<!-- Node6 -->
<g id="node6" class="node">
<title>Node6</title>
<g id="a_node6"><a xlink:href="Module_8hpp.html" target="_top" xlink:title=" ">
<polygon fill="white" stroke="black" points="224.89,-190.5 224.89,-209.5 385.89,-209.5 385.89,-190.5 224.89,-190.5"/>
<text text-anchor="middle" x="305.39" y="-197.5" font-family="Helvetica,sans-Serif" font-size="10.00">sources/Common/Module.hpp</text>
</a>
</g>
</g>
<!-- Node1&#45;&gt;Node6 -->
<g id="edge5" class="edge">
<title>Node1&#45;&gt;Node6</title>
<path fill="none" stroke="midnightblue" d="M223.94,-241.73C243.93,-231.73 270.77,-218.31 288.08,-209.65"/>
<polygon fill="midnightblue" stroke="midnightblue" points="222.12,-238.72 214.74,-246.32 225.25,-244.98 222.12,-238.72"/>
</g>
<!-- Node8 -->
<g id="node8" class="node">
<title>Node8</title>
<g id="a_node8"><a xlink:href="Library_8hpp.html" target="_top" xlink:title=" ">
<polygon fill="white" stroke="black" points="451.39,-134.5 451.39,-153.5 587.39,-153.5 587.39,-134.5 451.39,-134.5"/>
<text text-anchor="middle" x="519.39" y="-141.5" font-family="Helvetica,sans-Serif" font-size="10.00">sources/Core/Library.hpp</text>
</a>
</g>
</g>
<!-- Node1&#45;&gt;Node8 -->
<g id="edge12" class="edge">
<title>Node1&#45;&gt;Node8</title>
<path fill="none" stroke="midnightblue" d="M262.25,-244.65C301.51,-237.32 352.18,-225.93 395.39,-210 437.58,-194.45 483.55,-167.43 505.8,-153.64"/>
<polygon fill="midnightblue" stroke="midnightblue" points="261.48,-241.24 252.27,-246.48 262.73,-248.12 261.48,-241.24"/>
</g>
<!-- Node2&#45;&gt;Node3 -->
<g id="edge2" class="edge">
<title>Node2&#45;&gt;Node3</title>
<path fill="none" stroke="midnightblue" d="M140.82,-129.54C158.15,-119.99 181.37,-107.2 198.93,-97.52"/>
<polygon fill="midnightblue" stroke="midnightblue" points="138.93,-126.58 131.86,-134.48 142.31,-132.72 138.93,-126.58"/>
</g>
<!-- Node4 -->
<g id="node4" class="node">
<title>Node4</title>
<g id="a_node4"><a xlink:href="main_8cpp.html" target="_top" xlink:title=" ">
<polygon fill="white" stroke="black" points="139.39,-6 139.39,-25 201.39,-25 201.39,-6 139.39,-6"/>
<text text-anchor="middle" x="170.39" y="-13" font-family="Helvetica,sans-Serif" font-size="10.00">main.cpp</text>
</a>
</g>
</g>
<!-- Node3&#45;&gt;Node4 -->
<g id="edge3" class="edge">
<title>Node3&#45;&gt;Node4</title>
<path fill="none" stroke="midnightblue" d="M206.24,-59.66C196.44,-47.86 184.9,-33.97 177.61,-25.19"/>
<polygon fill="midnightblue" stroke="midnightblue" points="203.59,-61.94 212.67,-67.4 208.97,-57.47 203.59,-61.94"/>
</g>
<!-- Node5 -->
<g id="node5" class="node">
<title>Node5</title>
<g id="a_node5"><a xlink:href="Runner_8cpp.html" target="_top" xlink:title=" ">
<polygon fill="white" stroke="black" points="219.89,-0.5 219.89,-30.5 336.89,-30.5 336.89,-0.5 219.89,-0.5"/>
<text text-anchor="start" x="227.89" y="-18.5" font-family="Helvetica,sans-Serif" font-size="10.00">sources/Core/Runner</text>
<text text-anchor="middle" x="278.39" y="-7.5" font-family="Helvetica,sans-Serif" font-size="10.00">/Runner.cpp</text>
</a>
</g>
</g>
<!-- Node3&#45;&gt;Node5 -->
<g id="edge4" class="edge">
<title>Node3&#45;&gt;Node5</title>
<path fill="none" stroke="midnightblue" d="M242.71,-59.45C250.64,-49.9 259.69,-39 266.69,-30.58"/>
<polygon fill="midnightblue" stroke="midnightblue" points="239.8,-57.47 236.11,-67.4 245.19,-61.94 239.8,-57.47"/>
</g>
<!-- Node6&#45;&gt;Node2 -->
<g id="edge8" class="edge">
<title>Node6&#45;&gt;Node2</title>
<path fill="none" stroke="midnightblue" d="M265.37,-187.57C229.72,-177.38 178.35,-162.7 146.2,-153.52"/>
<polygon fill="midnightblue" stroke="midnightblue" points="264.86,-191.06 275.44,-190.44 266.79,-184.33 264.86,-191.06"/>
</g>
<!-- Node7 -->
<g id="node7" class="node">
<title>Node7</title>
<g id="a_node7"><a xlink:href="IDisplayModule_8hpp.html" target="_top" xlink:title=" ">
<polygon fill="white" stroke="black" points="231.89,-134.5 231.89,-153.5 432.89,-153.5 432.89,-134.5 231.89,-134.5"/>
<text text-anchor="middle" x="332.39" y="-141.5" font-family="Helvetica,sans-Serif" font-size="10.00">sources/Common/IDisplayModule.hpp</text>
</a>
</g>
</g>
<!-- Node6&#45;&gt;Node7 -->
<g id="edge6" class="edge">
<title>Node6&#45;&gt;Node7</title>
<path fill="none" stroke="midnightblue" d="M314.4,-180.98C318.98,-171.82 324.34,-161.09 328.01,-153.75"/>
<polygon fill="midnightblue" stroke="midnightblue" points="311.19,-179.57 309.85,-190.08 317.45,-182.7 311.19,-179.57"/>
</g>
<!-- Node6&#45;&gt;Node8 -->
<g id="edge9" class="edge">
<title>Node6&#45;&gt;Node8</title>
<path fill="none" stroke="midnightblue" d="M349.14,-187.96C389.56,-177.76 448.76,-162.82 485.64,-153.52"/>
<polygon fill="midnightblue" stroke="midnightblue" points="348.14,-184.6 339.3,-190.44 349.85,-191.39 348.14,-184.6"/>
</g>
<!-- Node7&#45;&gt;Node3 -->
<g id="edge7" class="edge">
<title>Node7&#45;&gt;Node3</title>
<path fill="none" stroke="midnightblue" d="M307.96,-129.54C290.62,-119.99 267.4,-107.2 249.84,-97.52"/>
<polygon fill="midnightblue" stroke="midnightblue" points="306.47,-132.72 316.91,-134.48 309.84,-126.58 306.47,-132.72"/>
</g>
<!-- Node8&#45;&gt;Node3 -->
<g id="edge11" class="edge">
<title>Node8&#45;&gt;Node3</title>
<path fill="none" stroke="midnightblue" d="M467.18,-132.47C415.61,-122.07 336.85,-106.18 283.12,-95.35"/>
<polygon fill="midnightblue" stroke="midnightblue" points="466.63,-135.93 477.12,-134.48 468.01,-129.07 466.63,-135.93"/>
</g>
<!-- Node9 -->
<g id="node9" class="node">
<title>Node9</title>
<g id="a_node9"><a xlink:href="Library_8cpp.html" target="_top" xlink:title=" ">
<polygon fill="white" stroke="black" points="451.89,-73 451.89,-92 586.89,-92 586.89,-73 451.89,-73"/>
<text text-anchor="middle" x="519.39" y="-80" font-family="Helvetica,sans-Serif" font-size="10.00">sources/Core/Library.cpp</text>
</a>
</g>
</g>
<!-- Node8&#45;&gt;Node9 -->
<g id="edge10" class="edge">
<title>Node8&#45;&gt;Node9</title>
<path fill="none" stroke="midnightblue" d="M519.39,-124.32C519.39,-113.5 519.39,-100.4 519.39,-92.01"/>
<polygon fill="midnightblue" stroke="midnightblue" points="515.89,-124.48 519.39,-134.48 522.89,-124.48 515.89,-124.48"/>
</g>
</g>
</svg>
