<?xml version="1.0" encoding="UTF-8" standalone="no"?>
<!DOCTYPE svg PUBLIC "-//W3C//DTD SVG 1.1//EN"
 "http://www.w3.org/Graphics/SVG/1.1/DTD/svg11.dtd">
<!-- Generated by graphviz version 2.43.0 (0)
 -->
<!-- Title: sources/Common/Module.hpp Pages: 1 -->
<svg width="576pt" height="218pt"
 viewBox="0.00 0.00 575.50 218.00" xmlns="http://www.w3.org/2000/svg" xmlns:xlink="http://www.w3.org/1999/xlink">
<g id="graph0" class="graph" transform="scale(1 1) rotate(0) translate(4 214)">
<title>sources/Common/Module.hpp</title>
<polygon fill="white" stroke="transparent" points="-4,4 -4,-214 571.5,-214 571.5,4 -4,4"/>
<!-- Node1 -->
<g id="node1" class="node">
<title>Node1</title>
<g id="a_node1"><a xlink:title=" ">
<polygon fill="#bfbfbf" stroke="black" points="236,-190.5 236,-209.5 397,-209.5 397,-190.5 236,-190.5"/>
<text text-anchor="middle" x="316.5" y="-197.5" font-family="Helvetica,sans-Serif" font-size="10.00">sources/Common/Module.hpp</text>
</a>
</g>
</g>
<!-- Node2 -->
<g id="node2" class="node">
<title>Node2</title>
<g id="a_node2"><a xlink:href="IDisplayModule_8hpp.html" target="_top" xlink:title=" ">
<polygon fill="white" stroke="black" points="0,-134.5 0,-153.5 201,-153.5 201,-134.5 0,-134.5"/>
<text text-anchor="middle" x="100.5" y="-141.5" font-family="Helvetica,sans-Serif" font-size="10.00">sources/Common/IDisplayModule.hpp</text>
</a>
</g>
</g>
<!-- Node1&#45;&gt;Node2 -->
<g id="edge1" class="edge">
<title>Node1&#45;&gt;Node2</title>
<path fill="none" stroke="midnightblue" d="M272.34,-187.96C231.54,-177.76 171.79,-162.82 134.57,-153.52"/>
<polygon fill="midnightblue" stroke="midnightblue" points="271.72,-191.41 282.27,-190.44 273.42,-184.62 271.72,-191.41"/>
</g>
<!-- Node6 -->
<g id="node6" class="node">
<title>Node6</title>
<g id="a_node6"><a xlink:href="IGameModule_8hpp.html" target="_top" xlink:title=" ">
<polygon fill="white" stroke="black" points="219.5,-134.5 219.5,-153.5 413.5,-153.5 413.5,-134.5 219.5,-134.5"/>
<text text-anchor="middle" x="316.5" y="-141.5" font-family="Helvetica,sans-Serif" font-size="10.00">sources/Common/IGameModule.hpp</text>
</a>
</g>
</g>
<!-- Node1&#45;&gt;Node6 -->
<g id="edge5" class="edge">
<title>Node1&#45;&gt;Node6</title>
<path fill="none" stroke="midnightblue" d="M316.5,-179.8C316.5,-170.91 316.5,-160.78 316.5,-153.75"/>
<polygon fill="midnightblue" stroke="midnightblue" points="313,-180.08 316.5,-190.08 320,-180.08 313,-180.08"/>
</g>
<!-- Node7 -->
<g id="node7" class="node">
<title>Node7</title>
<g id="a_node7"><a xlink:href="Library_8hpp.html" target="_top" xlink:title=" ">
<polygon fill="white" stroke="black" points="431.5,-134.5 431.5,-153.5 567.5,-153.5 567.5,-134.5 431.5,-134.5"/>
<text text-anchor="middle" x="499.5" y="-141.5" font-family="Helvetica,sans-Serif" font-size="10.00">sources/Core/Library.hpp</text>
</a>
</g>
</g>
<!-- Node1&#45;&gt;Node7 -->
<g id="edge7" class="edge">
<title>Node1&#45;&gt;Node7</title>
<path fill="none" stroke="midnightblue" d="M355.24,-187.57C389.76,-177.38 439.51,-162.7 470.64,-153.52"/>
<polygon fill="midnightblue" stroke="midnightblue" points="354.1,-184.26 345.5,-190.44 356.08,-190.97 354.1,-184.26"/>
</g>
<!-- Node3 -->
<g id="node3" class="node">
<title>Node3</title>
<g id="a_node3"><a xlink:href="Runner_8hpp.html" target="_top" xlink:title=" ">
<polygon fill="white" stroke="black" points="258,-67.5 258,-97.5 375,-97.5 375,-67.5 258,-67.5"/>
<text text-anchor="start" x="266" y="-85.5" font-family="Helvetica,sans-Serif" font-size="10.00">sources/Core/Runner</text>
<text text-anchor="middle" x="316.5" y="-74.5" font-family="Helvetica,sans-Serif" font-size="10.00">/Runner.hpp</text>
</a>
</g>
</g>
<!-- Node2&#45;&gt;Node3 -->
<g id="edge2" class="edge">
<title>Node2&#45;&gt;Node3</title>
<path fill="none" stroke="midnightblue" d="M141.4,-131.73C176.65,-122.02 227.7,-107.96 265.59,-97.52"/>
<polygon fill="midnightblue" stroke="midnightblue" points="140.16,-128.44 131.45,-134.48 142.02,-135.19 140.16,-128.44"/>
</g>
<!-- Node4 -->
<g id="node4" class="node">
<title>Node4</title>
<g id="a_node4"><a xlink:href="main_8cpp.html" target="_top" xlink:title=" ">
<polygon fill="white" stroke="black" points="231.5,-6 231.5,-25 293.5,-25 293.5,-6 231.5,-6"/>
<text text-anchor="middle" x="262.5" y="-13" font-family="Helvetica,sans-Serif" font-size="10.00">main.cpp</text>
</a>
</g>
</g>
<!-- Node3&#45;&gt;Node4 -->
<g id="edge3" class="edge">
<title>Node3&#45;&gt;Node4</title>
<path fill="none" stroke="midnightblue" d="M298.35,-59.66C288.56,-47.86 277.01,-33.97 269.72,-25.19"/>
<polygon fill="midnightblue" stroke="midnightblue" points="295.7,-61.94 304.78,-67.4 301.08,-57.47 295.7,-61.94"/>
</g>
<!-- Node5 -->
<g id="node5" class="node">
<title>Node5</title>
<g id="a_node5"><a xlink:href="Runner_8cpp.html" target="_top" xlink:title=" ">
<polygon fill="white" stroke="black" points="312,-0.5 312,-30.5 429,-30.5 429,-0.5 312,-0.5"/>
<text text-anchor="start" x="320" y="-18.5" font-family="Helvetica,sans-Serif" font-size="10.00">sources/Core/Runner</text>
<text text-anchor="middle" x="370.5" y="-7.5" font-family="Helvetica,sans-Serif" font-size="10.00">/Runner.cpp</text>
</a>
</g>
</g>
<!-- Node3&#45;&gt;Node5 -->
<g id="edge4" class="edge">
<title>Node3&#45;&gt;Node5</title>
<path fill="none" stroke="midnightblue" d="M334.82,-59.45C342.75,-49.9 351.8,-39 358.81,-30.58"/>
<polygon fill="midnightblue" stroke="midnightblue" points="331.92,-57.47 328.22,-67.4 337.3,-61.94 331.92,-57.47"/>
</g>
<!-- Node6&#45;&gt;Node3 -->
<g id="edge6" class="edge">
<title>Node6&#45;&gt;Node3</title>
<path fill="none" stroke="midnightblue" d="M316.5,-124.23C316.5,-115.59 316.5,-105.5 316.5,-97.52"/>
<polygon fill="midnightblue" stroke="midnightblue" points="313,-124.48 316.5,-134.48 320,-124.48 313,-124.48"/>
</g>
<!-- Node7&#45;&gt;Node3 -->
<g id="edge9" class="edge">
<title>Node7&#45;&gt;Node3</title>
<path fill="none" stroke="midnightblue" d="M463.69,-131.36C433.87,-121.66 391.32,-107.83 359.63,-97.52"/>
<polygon fill="midnightblue" stroke="midnightblue" points="462.69,-134.71 473.28,-134.48 464.85,-128.05 462.69,-134.71"/>
</g>
<!-- Node8 -->
<g id="node8" class="node">
<title>Node8</title>
<g id="a_node8"><a xlink:href="Library_8cpp.html" target="_top" xlink:title=" ">
<polygon fill="white" stroke="black" points="432,-73 432,-92 567,-92 567,-73 432,-73"/>
<text text-anchor="middle" x="499.5" y="-80" font-family="Helvetica,sans-Serif" font-size="10.00">sources/Core/Library.cpp</text>
</a>
</g>
</g>
<!-- Node7&#45;&gt;Node8 -->
<g id="edge8" class="edge">
<title>Node7&#45;&gt;Node8</title>
<path fill="none" stroke="midnightblue" d="M499.5,-124.32C499.5,-113.5 499.5,-100.4 499.5,-92.01"/>
<polygon fill="midnightblue" stroke="midnightblue" points="496,-124.48 499.5,-134.48 503,-124.48 496,-124.48"/>
</g>
</g>
</svg>
