<?xml version="1.0" encoding="UTF-8" standalone="no"?>
<!DOCTYPE svg PUBLIC "-//W3C//DTD SVG 1.1//EN"
 "http://www.w3.org/Graphics/SVG/1.1/DTD/svg11.dtd">
<!-- Generated by graphviz version 2.43.0 (0)
 -->
<!-- Title: sources/Core/Runner/Runner.hpp Pages: 1 -->
<svg width="1840pt" height="274pt"
 viewBox="0.00 0.00 1840.29 274.00" xmlns="http://www.w3.org/2000/svg" xmlns:xlink="http://www.w3.org/1999/xlink">
<g id="graph0" class="graph" transform="scale(1 1) rotate(0) translate(4 270)">
<title>sources/Core/Runner/Runner.hpp</title>
<polygon fill="white" stroke="transparent" points="-4,4 -4,-270 1836.29,-270 1836.29,4 -4,4"/>
<!-- Node1 -->
<g id="node1" class="node">
<title>Node1</title>
<g id="a_node1"><a xlink:title=" ">
<polygon fill="#bfbfbf" stroke="black" points="340.79,-235.5 340.79,-265.5 457.79,-265.5 457.79,-235.5 340.79,-235.5"/>
<text text-anchor="start" x="348.79" y="-253.5" font-family="Helvetica,sans-Serif" font-size="10.00">sources/Core/Runner</text>
<text text-anchor="middle" x="399.29" y="-242.5" font-family="Helvetica,sans-Serif" font-size="10.00">/Runner.hpp</text>
</a>
</g>
</g>
<!-- Node2 -->
<g id="node2" class="node">
<title>Node2</title>
<g id="a_node2"><a xlink:title=" ">
<polygon fill="white" stroke="#bfbfbf" points="612.29,-0.5 612.29,-19.5 656.29,-19.5 656.29,-0.5 612.29,-0.5"/>
<text text-anchor="middle" x="634.29" y="-7.5" font-family="Helvetica,sans-Serif" font-size="10.00">string</text>
</a>
</g>
</g>
<!-- Node1&#45;&gt;Node2 -->
<g id="edge1" class="edge">
<title>Node1&#45;&gt;Node2</title>
<path fill="none" stroke="midnightblue" d="M340.57,-249.26C247.26,-247.65 70.97,-239.2 25.29,-199 -4.17,-173.08 -5.04,-148.12 10.29,-112 24.29,-79.02 35.62,-70.73 68.29,-56 164.63,-12.56 496.63,-10.32 601.96,-10.74"/>
<polygon fill="midnightblue" stroke="midnightblue" points="602.25,-14.24 612.27,-10.79 602.29,-7.24 602.25,-14.24"/>
</g>
<!-- Node3 -->
<g id="node3" class="node">
<title>Node3</title>
<g id="a_node3"><a xlink:title=" ">
<polygon fill="white" stroke="#bfbfbf" points="304.79,-118 304.79,-137 351.79,-137 351.79,-118 304.79,-118"/>
<text text-anchor="middle" x="328.29" y="-125" font-family="Helvetica,sans-Serif" font-size="10.00">vector</text>
</a>
</g>
</g>
<!-- Node1&#45;&gt;Node3 -->
<g id="edge2" class="edge">
<title>Node1&#45;&gt;Node3</title>
<path fill="none" stroke="midnightblue" d="M390.86,-235.14C377.76,-212.81 352.52,-169.8 338.43,-145.79"/>
<polygon fill="midnightblue" stroke="midnightblue" points="341.39,-143.91 333.31,-137.05 335.35,-147.45 341.39,-143.91"/>
</g>
<!-- Node4 -->
<g id="node4" class="node">
<title>Node4</title>
<g id="a_node4"><a xlink:title=" ">
<polygon fill="white" stroke="#bfbfbf" points="370.29,-118 370.29,-137 428.29,-137 428.29,-118 370.29,-118"/>
<text text-anchor="middle" x="399.29" y="-125" font-family="Helvetica,sans-Serif" font-size="10.00">memory</text>
</a>
</g>
</g>
<!-- Node1&#45;&gt;Node4 -->
<g id="edge3" class="edge">
<title>Node1&#45;&gt;Node4</title>
<path fill="none" stroke="midnightblue" d="M399.29,-235.14C399.29,-213.2 399.29,-171.33 399.29,-147.09"/>
<polygon fill="midnightblue" stroke="midnightblue" points="402.79,-147.05 399.29,-137.05 395.79,-147.05 402.79,-147.05"/>
</g>
<!-- Node5 -->
<g id="node5" class="node">
<title>Node5</title>
<g id="a_node5"><a xlink:title=" ">
<polygon fill="white" stroke="#bfbfbf" points="961.29,-179.5 961.29,-198.5 999.29,-198.5 999.29,-179.5 961.29,-179.5"/>
<text text-anchor="middle" x="980.29" y="-186.5" font-family="Helvetica,sans-Serif" font-size="10.00">map</text>
</a>
</g>
</g>
<!-- Node1&#45;&gt;Node5 -->
<g id="edge4" class="edge">
<title>Node1&#45;&gt;Node5</title>
<path fill="none" stroke="midnightblue" d="M457.88,-248.16C559.32,-244.96 773.84,-234.25 951.29,-199 951.39,-198.98 951.49,-198.96 951.59,-198.94"/>
<polygon fill="midnightblue" stroke="midnightblue" points="952.23,-202.39 961.09,-196.57 950.54,-195.59 952.23,-202.39"/>
</g>
<!-- Node6 -->
<g id="node6" class="node">
<title>Node6</title>
<g id="a_node6"><a xlink:title=" ">
<polygon fill="white" stroke="#bfbfbf" points="1017.79,-179.5 1017.79,-198.5 1082.79,-198.5 1082.79,-179.5 1017.79,-179.5"/>
<text text-anchor="middle" x="1050.29" y="-186.5" font-family="Helvetica,sans-Serif" font-size="10.00">functional</text>
</a>
</g>
</g>
<!-- Node1&#45;&gt;Node6 -->
<g id="edge5" class="edge">
<title>Node1&#45;&gt;Node6</title>
<path fill="none" stroke="midnightblue" d="M457.94,-247.14C565.11,-242.29 799.85,-229.13 1007.18,-198.97"/>
<polygon fill="midnightblue" stroke="midnightblue" points="1007.96,-202.4 1017.35,-197.48 1006.94,-195.47 1007.96,-202.4"/>
</g>
<!-- Node7 -->
<g id="node7" class="node">
<title>Node7</title>
<g id="a_node7"><a xlink:href="IGameModule_8hpp.html" target="_top" xlink:title=" ">
<polygon fill="white" stroke="black" points="448.79,-179.5 448.79,-198.5 601.79,-198.5 601.79,-179.5 448.79,-179.5"/>
<text text-anchor="middle" x="525.29" y="-186.5" font-family="Helvetica,sans-Serif" font-size="10.00">Common/IGameModule.hpp</text>
</a>
</g>
</g>
<!-- Node1&#45;&gt;Node7 -->
<g id="edge6" class="edge">
<title>Node1&#45;&gt;Node7</title>
<path fill="none" stroke="midnightblue" d="M429.15,-235.4C449.91,-225.59 477.39,-212.62 497.65,-203.05"/>
<polygon fill="midnightblue" stroke="midnightblue" points="499.41,-206.09 506.95,-198.66 496.42,-199.76 499.41,-206.09"/>
</g>
<!-- Node8 -->
<g id="node8" class="node">
<title>Node8</title>
<g id="a_node8"><a xlink:href="ModInfo_8hpp.html" target="_top" xlink:title=" ">
<polygon fill="white" stroke="black" points="393.79,-56.5 393.79,-75.5 518.79,-75.5 518.79,-56.5 393.79,-56.5"/>
<text text-anchor="middle" x="456.29" y="-63.5" font-family="Helvetica,sans-Serif" font-size="10.00">Common/ModInfo.hpp</text>
</a>
</g>
</g>
<!-- Node1&#45;&gt;Node8 -->
<g id="edge40" class="edge">
<title>Node1&#45;&gt;Node8</title>
<path fill="none" stroke="midnightblue" d="M340.6,-247.17C215.29,-240.22 -59.83,-213.28 31.29,-112 54.35,-86.37 268.01,-74.23 383.31,-69.51"/>
<polygon fill="midnightblue" stroke="midnightblue" points="383.62,-73 393.47,-69.1 383.34,-66.01 383.62,-73"/>
</g>
<!-- Node12 -->
<g id="node12" class="node">
<title>Node12</title>
<g id="a_node12"><a xlink:href="IDisplayModule_8hpp.html" target="_top" xlink:title=" ">
<polygon fill="white" stroke="black" points="781.79,-179.5 781.79,-198.5 942.79,-198.5 942.79,-179.5 781.79,-179.5"/>
<text text-anchor="middle" x="862.29" y="-186.5" font-family="Helvetica,sans-Serif" font-size="10.00">Common/IDisplayModule.hpp</text>
</a>
</g>
</g>
<!-- Node1&#45;&gt;Node12 -->
<g id="edge16" class="edge">
<title>Node1&#45;&gt;Node12</title>
<path fill="none" stroke="midnightblue" d="M457.93,-241.96C541.19,-231.26 693.76,-211.66 785.82,-199.83"/>
<polygon fill="midnightblue" stroke="midnightblue" points="786.44,-203.28 795.91,-198.53 785.54,-196.33 786.44,-203.28"/>
</g>
<!-- Node19 -->
<g id="node19" class="node">
<title>Node19</title>
<g id="a_node19"><a xlink:href="Library_8hpp.html" target="_top" xlink:title=" ">
<polygon fill="white" stroke="black" points="230.79,-179.5 230.79,-198.5 325.79,-198.5 325.79,-179.5 230.79,-179.5"/>
<text text-anchor="middle" x="278.29" y="-186.5" font-family="Helvetica,sans-Serif" font-size="10.00">Core/Library.hpp</text>
</a>
</g>
</g>
<!-- Node1&#45;&gt;Node19 -->
<g id="edge33" class="edge">
<title>Node1&#45;&gt;Node19</title>
<path fill="none" stroke="midnightblue" d="M370.61,-235.4C350.76,-225.64 324.53,-212.74 305.1,-203.18"/>
<polygon fill="midnightblue" stroke="midnightblue" points="306.41,-199.93 295.89,-198.66 303.32,-206.21 306.41,-199.93"/>
</g>
<!-- Node7&#45;&gt;Node2 -->
<g id="edge15" class="edge">
<title>Node7&#45;&gt;Node2</title>
<path fill="none" stroke="midnightblue" d="M558.71,-179.43C578,-172.73 600.99,-161.37 614.29,-143 638.78,-109.16 638.7,-57.53 636.51,-29.94"/>
<polygon fill="midnightblue" stroke="midnightblue" points="639.96,-29.32 635.5,-19.71 632.99,-30.01 639.96,-29.32"/>
</g>
<!-- Node7&#45;&gt;Node3 -->
<g id="edge13" class="edge">
<title>Node7&#45;&gt;Node3</title>
<path fill="none" stroke="midnightblue" d="M488.01,-179.42C454.45,-171.31 404,-158.15 361.29,-143 359.63,-142.41 357.93,-141.77 356.23,-141.11"/>
<polygon fill="midnightblue" stroke="midnightblue" points="357.17,-137.71 346.6,-137.11 354.49,-144.18 357.17,-137.71"/>
</g>
<!-- Node7&#45;&gt;Node4 -->
<g id="edge14" class="edge">
<title>Node7&#45;&gt;Node4</title>
<path fill="none" stroke="midnightblue" d="M507.24,-179.48C486.09,-169.49 450.85,-152.85 426.41,-141.31"/>
<polygon fill="midnightblue" stroke="midnightblue" points="427.84,-138.11 417.31,-137.01 424.86,-144.44 427.84,-138.11"/>
</g>
<!-- Node7&#45;&gt;Node8 -->
<g id="edge7" class="edge">
<title>Node7&#45;&gt;Node8</title>
<path fill="none" stroke="midnightblue" d="M511.77,-179.29C500.35,-171.22 484.44,-158.21 475.29,-143 464.68,-125.37 459.98,-102.04 457.9,-85.9"/>
<polygon fill="midnightblue" stroke="midnightblue" points="461.34,-85.17 456.81,-75.6 454.38,-85.91 461.34,-85.17"/>
</g>
<!-- Node9 -->
<g id="node9" class="node">
<title>Node9</title>
<g id="a_node9"><a xlink:href="ADrawable_8hpp.html" target="_top" xlink:title=" ">
<polygon fill="white" stroke="black" points="1102.79,-56.5 1102.79,-75.5 1295.79,-75.5 1295.79,-56.5 1102.79,-56.5"/>
<text text-anchor="middle" x="1199.29" y="-63.5" font-family="Helvetica,sans-Serif" font-size="10.00">Common/Drawables/ADrawable.hpp</text>
</a>
</g>
</g>
<!-- Node7&#45;&gt;Node9 -->
<g id="edge9" class="edge">
<title>Node7&#45;&gt;Node9</title>
<path fill="none" stroke="midnightblue" d="M555.89,-179.47C581.43,-171.74 618.35,-159.1 648.29,-143 668.72,-132.01 668.59,-120.22 690.29,-112 761.37,-85.08 965.35,-74.04 1092.47,-69.68"/>
<polygon fill="midnightblue" stroke="midnightblue" points="1092.75,-73.17 1102.62,-69.34 1092.51,-66.17 1092.75,-73.17"/>
</g>
<!-- Node10 -->
<g id="node10" class="node">
<title>Node10</title>
<g id="a_node10"><a xlink:href="Module_8hpp.html" target="_top" xlink:title=" ">
<polygon fill="white" stroke="black" points="484.79,-118 484.79,-137 605.79,-137 605.79,-118 484.79,-118"/>
<text text-anchor="middle" x="545.29" y="-125" font-family="Helvetica,sans-Serif" font-size="10.00">Common/Module.hpp</text>
</a>
</g>
</g>
<!-- Node7&#45;&gt;Node10 -->
<g id="edge10" class="edge">
<title>Node7&#45;&gt;Node10</title>
<path fill="none" stroke="midnightblue" d="M528.15,-179.48C531.01,-170.99 535.47,-157.7 539.13,-146.82"/>
<polygon fill="midnightblue" stroke="midnightblue" points="542.56,-147.6 542.43,-137.01 535.92,-145.37 542.56,-147.6"/>
</g>
<!-- Node11 -->
<g id="node11" class="node">
<title>Node11</title>
<g id="a_node11"><a xlink:href="Event_8hpp.html" target="_top" xlink:title=" ">
<polygon fill="white" stroke="black" points="699.79,-118 699.79,-137 848.79,-137 848.79,-118 699.79,-118"/>
<text text-anchor="middle" x="774.29" y="-125" font-family="Helvetica,sans-Serif" font-size="10.00">Common/Events/Event.hpp</text>
</a>
</g>
</g>
<!-- Node7&#45;&gt;Node11 -->
<g id="edge12" class="edge">
<title>Node7&#45;&gt;Node11</title>
<path fill="none" stroke="midnightblue" d="M560.96,-179.48C605.16,-168.92 680.5,-150.91 728.8,-139.37"/>
<polygon fill="midnightblue" stroke="midnightblue" points="729.77,-142.74 738.68,-137.01 728.14,-135.93 729.77,-142.74"/>
</g>
<!-- Node8&#45;&gt;Node2 -->
<g id="edge8" class="edge">
<title>Node8&#45;&gt;Node2</title>
<path fill="none" stroke="midnightblue" d="M484.49,-56.44C516.56,-46.71 568.81,-30.86 602.35,-20.69"/>
<polygon fill="midnightblue" stroke="midnightblue" points="603.57,-23.98 612.12,-17.73 601.53,-17.28 603.57,-23.98"/>
</g>
<!-- Node10&#45;&gt;Node8 -->
<g id="edge11" class="edge">
<title>Node10&#45;&gt;Node8</title>
<path fill="none" stroke="midnightblue" d="M532.54,-117.98C518.26,-108.43 494.89,-92.81 477.78,-81.37"/>
<polygon fill="midnightblue" stroke="midnightblue" points="479.27,-78.16 469.02,-75.51 475.38,-83.98 479.27,-78.16"/>
</g>
<!-- Node12&#45;&gt;Node4 -->
<g id="edge32" class="edge">
<title>Node12&#45;&gt;Node4</title>
<path fill="none" stroke="midnightblue" d="M781.64,-180.35C703.19,-172.5 580.76,-159.17 475.29,-143 463.27,-141.16 450.26,-138.81 438.45,-136.54"/>
<polygon fill="midnightblue" stroke="midnightblue" points="438.92,-133.06 428.44,-134.58 437.58,-139.93 438.92,-133.06"/>
</g>
<!-- Node12&#45;&gt;Node10 -->
<g id="edge17" class="edge">
<title>Node12&#45;&gt;Node10</title>
<path fill="none" stroke="midnightblue" d="M816.87,-179.48C759.79,-168.76 661.87,-150.38 600.52,-138.87"/>
<polygon fill="midnightblue" stroke="midnightblue" points="601.1,-135.41 590.62,-137.01 599.8,-142.29 601.1,-135.41"/>
</g>
<!-- Node12&#45;&gt;Node11 -->
<g id="edge30" class="edge">
<title>Node12&#45;&gt;Node11</title>
<path fill="none" stroke="midnightblue" d="M849.68,-179.48C835.56,-169.93 812.46,-154.31 795.54,-142.87"/>
<polygon fill="midnightblue" stroke="midnightblue" points="797.12,-139.71 786.87,-137.01 793.2,-145.51 797.12,-139.71"/>
</g>
<!-- Node13 -->
<g id="node13" class="node">
<title>Node13</title>
<g id="a_node13"><a xlink:href="Line_8hpp.html" target="_top" xlink:title=" ">
<polygon fill="white" stroke="black" points="1622.29,-118 1622.29,-137 1782.29,-137 1782.29,-118 1622.29,-118"/>
<text text-anchor="middle" x="1702.29" y="-125" font-family="Helvetica,sans-Serif" font-size="10.00">Common/Drawables/Line.hpp</text>
</a>
</g>
</g>
<!-- Node12&#45;&gt;Node13 -->
<g id="edge18" class="edge">
<title>Node12&#45;&gt;Node13</title>
<path fill="none" stroke="midnightblue" d="M943.23,-179.73C946.28,-179.47 949.31,-179.23 952.29,-179 1245.63,-156.36 1320.79,-174.7 1613.29,-143 1623.79,-141.86 1634.93,-140.32 1645.65,-138.66"/>
<polygon fill="midnightblue" stroke="midnightblue" points="1646.44,-142.08 1655.76,-137.04 1645.34,-135.17 1646.44,-142.08"/>
</g>
<!-- Node14 -->
<g id="node14" class="node">
<title>Node14</title>
<g id="a_node14"><a xlink:href="Rectangle_8hpp.html" target="_top" xlink:title=" ">
<polygon fill="white" stroke="black" points="1230.29,-118 1230.29,-137 1418.29,-137 1418.29,-118 1230.29,-118"/>
<text text-anchor="middle" x="1324.29" y="-125" font-family="Helvetica,sans-Serif" font-size="10.00">Common/Drawables/Rectangle.hpp</text>
</a>
</g>
</g>
<!-- Node12&#45;&gt;Node14 -->
<g id="edge20" class="edge">
<title>Node12&#45;&gt;Node14</title>
<path fill="none" stroke="midnightblue" d="M932.83,-179.48C1005.25,-170.65 1121.2,-156.32 1221.29,-143 1232.12,-141.56 1243.58,-139.99 1254.77,-138.43"/>
<polygon fill="midnightblue" stroke="midnightblue" points="1255.52,-141.86 1264.94,-137.01 1254.55,-134.93 1255.52,-141.86"/>
</g>
<!-- Node15 -->
<g id="node15" class="node">
<title>Node15</title>
<g id="a_node15"><a xlink:href="Circle_8hpp.html" target="_top" xlink:title=" ">
<polygon fill="white" stroke="black" points="1436.79,-118 1436.79,-137 1603.79,-137 1603.79,-118 1436.79,-118"/>
<text text-anchor="middle" x="1520.29" y="-125" font-family="Helvetica,sans-Serif" font-size="10.00">Common/Drawables/Circle.hpp</text>
</a>
</g>
</g>
<!-- Node12&#45;&gt;Node15 -->
<g id="edge22" class="edge">
<title>Node12&#45;&gt;Node15</title>
<path fill="none" stroke="midnightblue" d="M943.23,-179.81C946.29,-179.53 949.32,-179.26 952.29,-179 1163.19,-160.47 1216.97,-167.33 1427.29,-143 1437.98,-141.76 1449.32,-140.2 1460.27,-138.57"/>
<polygon fill="midnightblue" stroke="midnightblue" points="1460.83,-142.02 1470.19,-137.05 1459.78,-135.1 1460.83,-142.02"/>
</g>
<!-- Node16 -->
<g id="node16" class="node">
<title>Node16</title>
<g id="a_node16"><a xlink:href="Sprite_8hpp.html" target="_top" xlink:title=" ">
<polygon fill="white" stroke="black" points="866.29,-118 866.29,-137 1034.29,-137 1034.29,-118 866.29,-118"/>
<text text-anchor="middle" x="950.29" y="-125" font-family="Helvetica,sans-Serif" font-size="10.00">Common/Drawables/Sprite.hpp</text>
</a>
</g>
</g>
<!-- Node12&#45;&gt;Node16 -->
<g id="edge24" class="edge">
<title>Node12&#45;&gt;Node16</title>
<path fill="none" stroke="midnightblue" d="M874.9,-179.48C889.01,-169.93 912.12,-154.31 929.04,-142.87"/>
<polygon fill="midnightblue" stroke="midnightblue" points="931.38,-145.51 937.7,-137.01 927.46,-139.71 931.38,-145.51"/>
</g>
<!-- Node17 -->
<g id="node17" class="node">
<title>Node17</title>
<g id="a_node17"><a xlink:href="Text_8hpp.html" target="_top" xlink:title=" ">
<polygon fill="white" stroke="black" points="1052.29,-118 1052.29,-137 1212.29,-137 1212.29,-118 1052.29,-118"/>
<text text-anchor="middle" x="1132.29" y="-125" font-family="Helvetica,sans-Serif" font-size="10.00">Common/Drawables/Text.hpp</text>
</a>
</g>
</g>
<!-- Node12&#45;&gt;Node17 -->
<g id="edge27" class="edge">
<title>Node12&#45;&gt;Node17</title>
<path fill="none" stroke="midnightblue" d="M900.97,-179.48C949.09,-168.87 1031.28,-150.76 1083.62,-139.22"/>
<polygon fill="midnightblue" stroke="midnightblue" points="1084.66,-142.58 1093.68,-137.01 1083.16,-135.74 1084.66,-142.58"/>
</g>
<!-- Node18 -->
<g id="node18" class="node">
<title>Node18</title>
<g id="a_node18"><a xlink:title=" ">
<polygon fill="white" stroke="#bfbfbf" points="1800.29,-118 1800.29,-137 1832.29,-137 1832.29,-118 1800.29,-118"/>
<text text-anchor="middle" x="1816.29" y="-125" font-family="Helvetica,sans-Serif" font-size="10.00">list</text>
</a>
</g>
</g>
<!-- Node12&#45;&gt;Node18 -->
<g id="edge31" class="edge">
<title>Node12&#45;&gt;Node18</title>
<path fill="none" stroke="midnightblue" d="M943.22,-179.69C946.28,-179.44 949.31,-179.21 952.29,-179 1138.43,-165.71 1612.16,-195.33 1791.29,-143 1792.53,-142.64 1793.78,-142.2 1795.02,-141.7"/>
<polygon fill="midnightblue" stroke="midnightblue" points="1796.75,-144.75 1804.11,-137.13 1793.6,-138.5 1796.75,-144.75"/>
</g>
<!-- Node13&#45;&gt;Node9 -->
<g id="edge19" class="edge">
<title>Node13&#45;&gt;Node9</title>
<path fill="none" stroke="midnightblue" d="M1652.93,-117.98C1640.05,-115.89 1626.16,-113.75 1613.29,-112 1506.93,-97.57 1384.69,-84.74 1300.76,-76.51"/>
<polygon fill="midnightblue" stroke="midnightblue" points="1301.02,-73.02 1290.72,-75.53 1300.34,-79.98 1301.02,-73.02"/>
</g>
<!-- Node14&#45;&gt;Node9 -->
<g id="edge21" class="edge">
<title>Node14&#45;&gt;Node9</title>
<path fill="none" stroke="midnightblue" d="M1306.38,-117.98C1285.4,-107.99 1250.44,-91.35 1226.19,-79.81"/>
<polygon fill="midnightblue" stroke="midnightblue" points="1227.7,-76.65 1217.16,-75.51 1224.69,-82.97 1227.7,-76.65"/>
</g>
<!-- Node15&#45;&gt;Node9 -->
<g id="edge23" class="edge">
<title>Node15&#45;&gt;Node9</title>
<path fill="none" stroke="midnightblue" d="M1474.3,-117.98C1416.49,-107.26 1317.34,-88.88 1255.21,-77.37"/>
<polygon fill="midnightblue" stroke="midnightblue" points="1255.66,-73.89 1245.19,-75.51 1254.39,-80.77 1255.66,-73.89"/>
</g>
<!-- Node16&#45;&gt;Node2 -->
<g id="edge26" class="edge">
<title>Node16&#45;&gt;Node2</title>
<path fill="none" stroke="midnightblue" d="M926.79,-117.91C870.86,-97.47 729.72,-45.88 666.17,-22.65"/>
<polygon fill="midnightblue" stroke="midnightblue" points="667.25,-19.32 656.66,-19.18 664.85,-25.9 667.25,-19.32"/>
</g>
<!-- Node16&#45;&gt;Node9 -->
<g id="edge25" class="edge">
<title>Node16&#45;&gt;Node9</title>
<path fill="none" stroke="midnightblue" d="M985.96,-117.98C1030.16,-107.42 1105.5,-89.41 1153.8,-77.87"/>
<polygon fill="midnightblue" stroke="midnightblue" points="1154.77,-81.24 1163.68,-75.51 1153.14,-74.43 1154.77,-81.24"/>
</g>
<!-- Node17&#45;&gt;Node2 -->
<g id="edge29" class="edge">
<title>Node17&#45;&gt;Node2</title>
<path fill="none" stroke="midnightblue" d="M1095.26,-117.91C1001.26,-96.11 754.55,-38.89 666.27,-18.42"/>
<polygon fill="midnightblue" stroke="midnightblue" points="666.84,-14.96 656.31,-16.11 665.26,-21.78 666.84,-14.96"/>
</g>
<!-- Node17&#45;&gt;Node9 -->
<g id="edge28" class="edge">
<title>Node17&#45;&gt;Node9</title>
<path fill="none" stroke="midnightblue" d="M1141.89,-117.98C1152.34,-108.7 1169.26,-93.67 1182.02,-82.33"/>
<polygon fill="midnightblue" stroke="midnightblue" points="1184.55,-84.77 1189.71,-75.51 1179.91,-79.53 1184.55,-84.77"/>
</g>
<!-- Node19&#45;&gt;Node4 -->
<g id="edge38" class="edge">
<title>Node19&#45;&gt;Node4</title>
<path fill="none" stroke="midnightblue" d="M295.62,-179.48C315.84,-169.53 349.48,-152.99 372.93,-141.46"/>
<polygon fill="midnightblue" stroke="midnightblue" points="374.55,-144.56 381.98,-137.01 371.47,-138.28 374.55,-144.56"/>
</g>
<!-- Node19&#45;&gt;Node8 -->
<g id="edge35" class="edge">
<title>Node19&#45;&gt;Node8</title>
<path fill="none" stroke="midnightblue" d="M277.58,-179.41C276.8,-163.82 277.51,-130.73 295.29,-112 318.09,-87.97 352.57,-76.42 383.77,-71"/>
<polygon fill="midnightblue" stroke="midnightblue" points="384.43,-74.44 393.77,-69.45 383.35,-67.53 384.43,-74.44"/>
</g>
<!-- Node19&#45;&gt;Node10 -->
<g id="edge34" class="edge">
<title>Node19&#45;&gt;Node10</title>
<path fill="none" stroke="midnightblue" d="M316.54,-179.48C364.13,-168.87 445.4,-150.76 497.16,-139.22"/>
<polygon fill="midnightblue" stroke="midnightblue" points="498.11,-142.6 507.1,-137.01 496.58,-135.77 498.11,-142.6"/>
</g>
<!-- Node20 -->
<g id="node20" class="node">
<title>Node20</title>
<g id="a_node20"><a xlink:href="InvalidLibraryException_8hpp.html" target="_top" xlink:title=" ">
<polygon fill="white" stroke="black" points="40.29,-112.5 40.29,-142.5 180.29,-142.5 180.29,-112.5 40.29,-112.5"/>
<text text-anchor="start" x="48.29" y="-130.5" font-family="Helvetica,sans-Serif" font-size="10.00">Exceptions/InvalidLibrary</text>
<text text-anchor="middle" x="110.29" y="-119.5" font-family="Helvetica,sans-Serif" font-size="10.00">Exception.hpp</text>
</a>
</g>
</g>
<!-- Node19&#45;&gt;Node20 -->
<g id="edge36" class="edge">
<title>Node19&#45;&gt;Node20</title>
<path fill="none" stroke="midnightblue" d="M254.22,-179.48C229.66,-170.78 190.83,-157.03 159.69,-146"/>
<polygon fill="midnightblue" stroke="midnightblue" points="160.48,-142.56 149.88,-142.52 158.14,-149.16 160.48,-142.56"/>
</g>
<!-- Node22 -->
<g id="node22" class="node">
<title>Node22</title>
<g id="a_node22"><a xlink:title=" ">
<polygon fill="white" stroke="#bfbfbf" points="198.29,-118 198.29,-137 248.29,-137 248.29,-118 198.29,-118"/>
<text text-anchor="middle" x="223.29" y="-125" font-family="Helvetica,sans-Serif" font-size="10.00">dlfcn.h</text>
</a>
</g>
</g>
<!-- Node19&#45;&gt;Node22 -->
<g id="edge39" class="edge">
<title>Node19&#45;&gt;Node22</title>
<path fill="none" stroke="midnightblue" d="M270.41,-179.48C261.99,-170.37 248.47,-155.74 238.06,-144.48"/>
<polygon fill="midnightblue" stroke="midnightblue" points="240.51,-141.98 231.15,-137.01 235.37,-146.73 240.51,-141.98"/>
</g>
<!-- Node21 -->
<g id="node21" class="node">
<title>Node21</title>
<g id="a_node21"><a xlink:title=" ">
<polygon fill="white" stroke="#bfbfbf" points="77.79,-56.5 77.79,-75.5 142.79,-75.5 142.79,-56.5 77.79,-56.5"/>
<text text-anchor="middle" x="110.29" y="-63.5" font-family="Helvetica,sans-Serif" font-size="10.00">stdexcept</text>
</a>
</g>
</g>
<!-- Node20&#45;&gt;Node21 -->
<g id="edge37" class="edge">
<title>Node20&#45;&gt;Node21</title>
<path fill="none" stroke="midnightblue" d="M110.29,-112.4C110.29,-104.47 110.29,-94.46 110.29,-85.86"/>
<polygon fill="midnightblue" stroke="midnightblue" points="113.79,-85.66 110.29,-75.66 106.79,-85.66 113.79,-85.66"/>
</g>
</g>
</svg>
