<?xml version="1.0" encoding="UTF-8" standalone="no"?>
<!DOCTYPE svg PUBLIC "-//W3C//DTD SVG 1.1//EN"
 "http://www.w3.org/Graphics/SVG/1.1/DTD/svg11.dtd">
<!-- Generated by graphviz version 2.43.0 (0)
 -->
<!-- Title: sources/Core/Runner/Runner.cpp Pages: 1 -->
<svg width="2056pt" height="341pt"
 viewBox="0.00 0.00 2055.62 341.00" xmlns="http://www.w3.org/2000/svg" xmlns:xlink="http://www.w3.org/1999/xlink">
<g id="graph0" class="graph" transform="scale(1 1) rotate(0) translate(4 337)">
<title>sources/Core/Runner/Runner.cpp</title>
<polygon fill="white" stroke="transparent" points="-4,4 -4,-337 2051.62,-337 2051.62,4 -4,4"/>
<!-- Node1 -->
<g id="node1" class="node">
<title>Node1</title>
<g id="a_node1"><a xlink:title=" ">
<polygon fill="#bfbfbf" stroke="black" points="209.5,-302.5 209.5,-332.5 326.5,-332.5 326.5,-302.5 209.5,-302.5"/>
<text text-anchor="start" x="217.5" y="-320.5" font-family="Helvetica,sans-Serif" font-size="10.00">sources/Core/Runner</text>
<text text-anchor="middle" x="268" y="-309.5" font-family="Helvetica,sans-Serif" font-size="10.00">/Runner.cpp</text>
</a>
</g>
</g>
<!-- Node2 -->
<g id="node2" class="node">
<title>Node2</title>
<g id="a_node2"><a xlink:title=" ">
<polygon fill="white" stroke="#bfbfbf" points="0,-241 0,-260 68,-260 68,-241 0,-241"/>
<text text-anchor="middle" x="34" y="-248" font-family="Helvetica,sans-Serif" font-size="10.00">filesystem</text>
</a>
</g>
</g>
<!-- Node1&#45;&gt;Node2 -->
<g id="edge1" class="edge">
<title>Node1&#45;&gt;Node2</title>
<path fill="none" stroke="midnightblue" d="M210.89,-302.46C172.79,-292.84 121.67,-279.42 77,-266 74.08,-265.12 71.05,-264.18 68.03,-263.21"/>
<polygon fill="midnightblue" stroke="midnightblue" points="69.06,-259.86 58.47,-260.07 66.88,-266.51 69.06,-259.86"/>
</g>
<!-- Node3 -->
<g id="node3" class="node">
<title>Node3</title>
<g id="a_node3"><a xlink:href="InvalidLibraryException_8hpp.html" target="_top" xlink:title=" ">
<polygon fill="white" stroke="black" points="196,-112.5 196,-142.5 336,-142.5 336,-112.5 196,-112.5"/>
<text text-anchor="start" x="204" y="-130.5" font-family="Helvetica,sans-Serif" font-size="10.00">Exceptions/InvalidLibrary</text>
<text text-anchor="middle" x="266" y="-119.5" font-family="Helvetica,sans-Serif" font-size="10.00">Exception.hpp</text>
</a>
</g>
</g>
<!-- Node1&#45;&gt;Node3 -->
<g id="edge2" class="edge">
<title>Node1&#45;&gt;Node3</title>
<path fill="none" stroke="midnightblue" d="M267.85,-302.37C267.51,-270.44 266.68,-192.44 266.26,-152.67"/>
<polygon fill="midnightblue" stroke="midnightblue" points="269.76,-152.5 266.15,-142.54 262.76,-152.57 269.76,-152.5"/>
</g>
<!-- Node5 -->
<g id="node5" class="node">
<title>Node5</title>
<g id="a_node5"><a xlink:href="InvalidArgumentException_8hpp.html" target="_top" xlink:title=" ">
<polygon fill="white" stroke="black" points="86,-235.5 86,-265.5 240,-265.5 240,-235.5 86,-235.5"/>
<text text-anchor="start" x="94" y="-253.5" font-family="Helvetica,sans-Serif" font-size="10.00">Exceptions/InvalidArgument</text>
<text text-anchor="middle" x="163" y="-242.5" font-family="Helvetica,sans-Serif" font-size="10.00">Exception.hpp</text>
</a>
</g>
</g>
<!-- Node1&#45;&gt;Node5 -->
<g id="edge4" class="edge">
<title>Node1&#45;&gt;Node5</title>
<path fill="none" stroke="midnightblue" d="M245.22,-302.4C230.36,-293.2 210.76,-281.07 194.43,-270.95"/>
<polygon fill="midnightblue" stroke="midnightblue" points="196.08,-267.86 185.74,-265.58 192.4,-273.82 196.08,-267.86"/>
</g>
<!-- Node6 -->
<g id="node6" class="node">
<title>Node6</title>
<g id="a_node6"><a xlink:href="KeyBoardEvent_8hpp.html" target="_top" xlink:title=" ">
<polygon fill="white" stroke="black" points="295.5,-241 295.5,-260 490.5,-260 490.5,-241 295.5,-241"/>
<text text-anchor="middle" x="393" y="-248" font-family="Helvetica,sans-Serif" font-size="10.00">Common/Events/KeyBoardEvent.hpp</text>
</a>
</g>
</g>
<!-- Node1&#45;&gt;Node6 -->
<g id="edge6" class="edge">
<title>Node1&#45;&gt;Node6</title>
<path fill="none" stroke="midnightblue" d="M295.12,-302.4C316.67,-291.19 346.57,-275.64 367.64,-264.69"/>
<polygon fill="midnightblue" stroke="midnightblue" points="369.38,-267.73 376.64,-260.01 366.15,-261.52 369.38,-267.73"/>
</g>
<!-- Node8 -->
<g id="node8" class="node">
<title>Node8</title>
<g id="a_node8"><a xlink:href="Runner_8hpp.html" target="_top" xlink:title=" ">
<polygon fill="white" stroke="black" points="621.5,-241 621.5,-260 692.5,-260 692.5,-241 621.5,-241"/>
<text text-anchor="middle" x="657" y="-248" font-family="Helvetica,sans-Serif" font-size="10.00">Runner.hpp</text>
</a>
</g>
</g>
<!-- Node1&#45;&gt;Node8 -->
<g id="edge8" class="edge">
<title>Node1&#45;&gt;Node8</title>
<path fill="none" stroke="midnightblue" d="M326.66,-306.7C404.64,-293.67 540.83,-270.91 611.51,-259.1"/>
<polygon fill="midnightblue" stroke="midnightblue" points="612.17,-262.54 621.45,-257.44 611.01,-255.64 612.17,-262.54"/>
</g>
<!-- Node4 -->
<g id="node4" class="node">
<title>Node4</title>
<g id="a_node4"><a xlink:title=" ">
<polygon fill="white" stroke="#bfbfbf" points="183.5,-56.5 183.5,-75.5 248.5,-75.5 248.5,-56.5 183.5,-56.5"/>
<text text-anchor="middle" x="216" y="-63.5" font-family="Helvetica,sans-Serif" font-size="10.00">stdexcept</text>
</a>
</g>
</g>
<!-- Node3&#45;&gt;Node4 -->
<g id="edge3" class="edge">
<title>Node3&#45;&gt;Node4</title>
<path fill="none" stroke="midnightblue" d="M254.15,-112.4C246.89,-103.75 237.55,-92.64 229.93,-83.58"/>
<polygon fill="midnightblue" stroke="midnightblue" points="232.39,-81.06 223.28,-75.66 227.03,-85.57 232.39,-81.06"/>
</g>
<!-- Node5&#45;&gt;Node4 -->
<g id="edge5" class="edge">
<title>Node5&#45;&gt;Node4</title>
<path fill="none" stroke="midnightblue" d="M163.62,-235.35C165.14,-209.85 170.24,-154.88 187,-112 190.88,-102.06 197.12,-91.99 202.81,-83.9"/>
<polygon fill="midnightblue" stroke="midnightblue" points="205.72,-85.84 208.85,-75.72 200.1,-81.68 205.72,-85.84"/>
</g>
<!-- Node7 -->
<g id="node7" class="node">
<title>Node7</title>
<g id="a_node7"><a xlink:href="Event_8hpp.html" target="_top" xlink:title=" ">
<polygon fill="white" stroke="black" points="601.5,-118 601.5,-137 750.5,-137 750.5,-118 601.5,-118"/>
<text text-anchor="middle" x="676" y="-125" font-family="Helvetica,sans-Serif" font-size="10.00">Common/Events/Event.hpp</text>
</a>
</g>
</g>
<!-- Node6&#45;&gt;Node7 -->
<g id="edge7" class="edge">
<title>Node6&#45;&gt;Node7</title>
<path fill="none" stroke="midnightblue" d="M399.81,-240.61C411.86,-225.52 438.46,-195 468,-179 506.11,-158.36 552.66,-146.05 592.05,-138.76"/>
<polygon fill="midnightblue" stroke="midnightblue" points="592.67,-142.2 601.9,-137.01 591.45,-135.31 592.67,-142.2"/>
</g>
<!-- Node9 -->
<g id="node9" class="node">
<title>Node9</title>
<g id="a_node9"><a xlink:title=" ">
<polygon fill="white" stroke="#bfbfbf" points="1122,-0.5 1122,-19.5 1166,-19.5 1166,-0.5 1122,-0.5"/>
<text text-anchor="middle" x="1144" y="-7.5" font-family="Helvetica,sans-Serif" font-size="10.00">string</text>
</a>
</g>
</g>
<!-- Node8&#45;&gt;Node9 -->
<g id="edge9" class="edge">
<title>Node8&#45;&gt;Node9</title>
<path fill="none" stroke="midnightblue" d="M692.5,-249.56C899.15,-249.57 1941.15,-244.54 2035,-143 2156.38,-11.67 1349.71,-9.64 1176.35,-10.7"/>
<polygon fill="midnightblue" stroke="midnightblue" points="1176.29,-7.2 1166.31,-10.77 1176.33,-14.2 1176.29,-7.2"/>
</g>
<!-- Node10 -->
<g id="node10" class="node">
<title>Node10</title>
<g id="a_node10"><a xlink:title=" ">
<polygon fill="white" stroke="#bfbfbf" points="392.5,-118 392.5,-137 439.5,-137 439.5,-118 392.5,-118"/>
<text text-anchor="middle" x="416" y="-125" font-family="Helvetica,sans-Serif" font-size="10.00">vector</text>
</a>
</g>
</g>
<!-- Node8&#45;&gt;Node10 -->
<g id="edge10" class="edge">
<title>Node8&#45;&gt;Node10</title>
<path fill="none" stroke="midnightblue" d="M621.35,-247.01C581.02,-242.7 514.87,-230.94 468,-199 448.43,-185.67 433.43,-162.48 424.68,-146.35"/>
<polygon fill="midnightblue" stroke="midnightblue" points="427.75,-144.66 420.06,-137.37 421.53,-147.86 427.75,-144.66"/>
</g>
<!-- Node11 -->
<g id="node11" class="node">
<title>Node11</title>
<g id="a_node11"><a xlink:title=" ">
<polygon fill="white" stroke="#bfbfbf" points="984,-118 984,-137 1042,-137 1042,-118 984,-118"/>
<text text-anchor="middle" x="1013" y="-125" font-family="Helvetica,sans-Serif" font-size="10.00">memory</text>
</a>
</g>
</g>
<!-- Node8&#45;&gt;Node11 -->
<g id="edge11" class="edge">
<title>Node8&#45;&gt;Node11</title>
<path fill="none" stroke="midnightblue" d="M692.85,-246.98C743.29,-242.43 837.3,-230.2 911,-199 943.64,-185.18 976.48,-159.98 995.77,-143.75"/>
<polygon fill="midnightblue" stroke="midnightblue" points="998.09,-146.37 1003.4,-137.2 993.53,-141.06 998.09,-146.37"/>
</g>
<!-- Node12 -->
<g id="node12" class="node">
<title>Node12</title>
<g id="a_node12"><a xlink:title=" ">
<polygon fill="white" stroke="#bfbfbf" points="603,-179.5 603,-198.5 641,-198.5 641,-179.5 603,-179.5"/>
<text text-anchor="middle" x="622" y="-186.5" font-family="Helvetica,sans-Serif" font-size="10.00">map</text>
</a>
</g>
</g>
<!-- Node8&#45;&gt;Node12 -->
<g id="edge12" class="edge">
<title>Node8&#45;&gt;Node12</title>
<path fill="none" stroke="midnightblue" d="M651.99,-240.98C646.84,-232.23 638.69,-218.37 632.18,-207.31"/>
<polygon fill="midnightblue" stroke="midnightblue" points="635.09,-205.35 627.01,-198.51 629.06,-208.9 635.09,-205.35"/>
</g>
<!-- Node13 -->
<g id="node13" class="node">
<title>Node13</title>
<g id="a_node13"><a xlink:title=" ">
<polygon fill="white" stroke="#bfbfbf" points="659.5,-179.5 659.5,-198.5 724.5,-198.5 724.5,-179.5 659.5,-179.5"/>
<text text-anchor="middle" x="692" y="-186.5" font-family="Helvetica,sans-Serif" font-size="10.00">functional</text>
</a>
</g>
</g>
<!-- Node8&#45;&gt;Node13 -->
<g id="edge13" class="edge">
<title>Node8&#45;&gt;Node13</title>
<path fill="none" stroke="midnightblue" d="M662.01,-240.98C667.16,-232.23 675.31,-218.37 681.82,-207.31"/>
<polygon fill="midnightblue" stroke="midnightblue" points="684.94,-208.9 686.99,-198.51 678.91,-205.35 684.94,-208.9"/>
</g>
<!-- Node14 -->
<g id="node14" class="node">
<title>Node14</title>
<g id="a_node14"><a xlink:href="IGameModule_8hpp.html" target="_top" xlink:title=" ">
<polygon fill="white" stroke="black" points="748.5,-179.5 748.5,-198.5 901.5,-198.5 901.5,-179.5 748.5,-179.5"/>
<text text-anchor="middle" x="825" y="-186.5" font-family="Helvetica,sans-Serif" font-size="10.00">Common/IGameModule.hpp</text>
</a>
</g>
</g>
<!-- Node8&#45;&gt;Node14 -->
<g id="edge14" class="edge">
<title>Node8&#45;&gt;Node14</title>
<path fill="none" stroke="midnightblue" d="M681.07,-240.98C710.01,-230.72 758.76,-213.46 791.4,-201.9"/>
<polygon fill="midnightblue" stroke="midnightblue" points="792.72,-205.15 800.97,-198.51 790.38,-198.55 792.72,-205.15"/>
</g>
<!-- Node15 -->
<g id="node15" class="node">
<title>Node15</title>
<g id="a_node15"><a xlink:href="ModInfo_8hpp.html" target="_top" xlink:title=" ">
<polygon fill="white" stroke="black" points="511.5,-56.5 511.5,-75.5 636.5,-75.5 636.5,-56.5 511.5,-56.5"/>
<text text-anchor="middle" x="574" y="-63.5" font-family="Helvetica,sans-Serif" font-size="10.00">Common/ModInfo.hpp</text>
</a>
</g>
</g>
<!-- Node8&#45;&gt;Node15 -->
<g id="edge47" class="edge">
<title>Node8&#45;&gt;Node15</title>
<path fill="none" stroke="midnightblue" d="M621.32,-249.68C556.49,-247.74 422.5,-232.63 384,-143 361.95,-91.67 438.67,-74.72 501.15,-69.29"/>
<polygon fill="midnightblue" stroke="midnightblue" points="501.73,-72.75 511.43,-68.48 501.19,-65.77 501.73,-72.75"/>
</g>
<!-- Node18 -->
<g id="node18" class="node">
<title>Node18</title>
<g id="a_node18"><a xlink:href="IDisplayModule_8hpp.html" target="_top" xlink:title=" ">
<polygon fill="white" stroke="black" points="1154.5,-179.5 1154.5,-198.5 1315.5,-198.5 1315.5,-179.5 1154.5,-179.5"/>
<text text-anchor="middle" x="1235" y="-186.5" font-family="Helvetica,sans-Serif" font-size="10.00">Common/IDisplayModule.hpp</text>
</a>
</g>
</g>
<!-- Node8&#45;&gt;Node18 -->
<g id="edge24" class="edge">
<title>Node8&#45;&gt;Node18</title>
<path fill="none" stroke="midnightblue" d="M692.72,-245.82C781.45,-236.69 1014.05,-212.74 1143.95,-199.37"/>
<polygon fill="midnightblue" stroke="midnightblue" points="1144.69,-202.82 1154.27,-198.31 1143.97,-195.85 1144.69,-202.82"/>
</g>
<!-- Node25 -->
<g id="node25" class="node">
<title>Node25</title>
<g id="a_node25"><a xlink:href="Library_8hpp.html" target="_top" xlink:title=" ">
<polygon fill="white" stroke="black" points="476.5,-179.5 476.5,-198.5 571.5,-198.5 571.5,-179.5 476.5,-179.5"/>
<text text-anchor="middle" x="524" y="-186.5" font-family="Helvetica,sans-Serif" font-size="10.00">Core/Library.hpp</text>
</a>
</g>
</g>
<!-- Node8&#45;&gt;Node25 -->
<g id="edge41" class="edge">
<title>Node8&#45;&gt;Node25</title>
<path fill="none" stroke="midnightblue" d="M637.94,-240.98C615.53,-230.95 578.09,-214.2 552.29,-202.65"/>
<polygon fill="midnightblue" stroke="midnightblue" points="553.58,-199.4 543.02,-198.51 550.72,-205.79 553.58,-199.4"/>
</g>
<!-- Node14&#45;&gt;Node7 -->
<g id="edge20" class="edge">
<title>Node14&#45;&gt;Node7</title>
<path fill="none" stroke="midnightblue" d="M803.65,-179.48C778.31,-169.36 735.86,-152.4 706.93,-140.85"/>
<polygon fill="midnightblue" stroke="midnightblue" points="707.89,-137.47 697.31,-137.01 705.3,-143.97 707.89,-137.47"/>
</g>
<!-- Node14&#45;&gt;Node9 -->
<g id="edge23" class="edge">
<title>Node14&#45;&gt;Node9</title>
<path fill="none" stroke="midnightblue" d="M841.21,-179.43C856.64,-170.98 880.21,-157.29 899,-143 915.02,-130.82 915.38,-123.35 932,-112 991.34,-71.46 1069.47,-38.86 1112.38,-22.49"/>
<polygon fill="midnightblue" stroke="midnightblue" points="1113.62,-25.77 1121.75,-18.96 1111.15,-19.21 1113.62,-25.77"/>
</g>
<!-- Node14&#45;&gt;Node10 -->
<g id="edge21" class="edge">
<title>Node14&#45;&gt;Node10</title>
<path fill="none" stroke="midnightblue" d="M749.6,-179.47C680.95,-171.35 576.9,-158.15 487,-143 474.72,-140.93 461.32,-138.29 449.5,-135.84"/>
<polygon fill="midnightblue" stroke="midnightblue" points="450.1,-132.39 439.59,-133.74 448.65,-139.23 450.1,-132.39"/>
</g>
<!-- Node14&#45;&gt;Node11 -->
<g id="edge22" class="edge">
<title>Node14&#45;&gt;Node11</title>
<path fill="none" stroke="midnightblue" d="M853.13,-179.49C882.39,-170.59 929.5,-156.11 970,-143 972.74,-142.11 975.58,-141.18 978.42,-140.24"/>
<polygon fill="midnightblue" stroke="midnightblue" points="979.65,-143.52 988.02,-137.04 977.43,-136.88 979.65,-143.52"/>
</g>
<!-- Node14&#45;&gt;Node15 -->
<g id="edge15" class="edge">
<title>Node14&#45;&gt;Node15</title>
<path fill="none" stroke="midnightblue" d="M763.14,-179.48C698.67,-170.06 605.32,-154.68 593,-143 577.45,-128.26 573.85,-102.89 573.37,-85.55"/>
<polygon fill="midnightblue" stroke="midnightblue" points="576.87,-85.52 573.42,-75.51 569.87,-85.49 576.87,-85.52"/>
</g>
<!-- Node16 -->
<g id="node16" class="node">
<title>Node16</title>
<g id="a_node16"><a xlink:href="ADrawable_8hpp.html" target="_top" xlink:title=" ">
<polygon fill="white" stroke="black" points="1296.5,-56.5 1296.5,-75.5 1489.5,-75.5 1489.5,-56.5 1296.5,-56.5"/>
<text text-anchor="middle" x="1393" y="-63.5" font-family="Helvetica,sans-Serif" font-size="10.00">Common/Drawables/ADrawable.hpp</text>
</a>
</g>
</g>
<!-- Node14&#45;&gt;Node16 -->
<g id="edge17" class="edge">
<title>Node14&#45;&gt;Node16</title>
<path fill="none" stroke="midnightblue" d="M849.53,-179.49C871.71,-171.39 904.94,-158.19 932,-143 952.55,-131.47 953,-120.43 975,-112 1029.91,-90.96 1181.3,-78.58 1285.96,-72.29"/>
<polygon fill="midnightblue" stroke="midnightblue" points="1286.48,-75.77 1296.26,-71.68 1286.07,-68.78 1286.48,-75.77"/>
</g>
<!-- Node17 -->
<g id="node17" class="node">
<title>Node17</title>
<g id="a_node17"><a xlink:href="Module_8hpp.html" target="_top" xlink:title=" ">
<polygon fill="white" stroke="black" points="768.5,-118 768.5,-137 889.5,-137 889.5,-118 768.5,-118"/>
<text text-anchor="middle" x="829" y="-125" font-family="Helvetica,sans-Serif" font-size="10.00">Common/Module.hpp</text>
</a>
</g>
</g>
<!-- Node14&#45;&gt;Node17 -->
<g id="edge18" class="edge">
<title>Node14&#45;&gt;Node17</title>
<path fill="none" stroke="midnightblue" d="M825.57,-179.48C826.14,-171.08 827.02,-157.98 827.75,-147.16"/>
<polygon fill="midnightblue" stroke="midnightblue" points="831.25,-147.22 828.43,-137.01 824.26,-146.75 831.25,-147.22"/>
</g>
<!-- Node15&#45;&gt;Node9 -->
<g id="edge16" class="edge">
<title>Node15&#45;&gt;Node9</title>
<path fill="none" stroke="midnightblue" d="M636.63,-59.07C757.78,-47.59 1020.33,-22.72 1111.8,-14.05"/>
<polygon fill="midnightblue" stroke="midnightblue" points="1112.21,-17.53 1121.84,-13.1 1111.55,-10.56 1112.21,-17.53"/>
</g>
<!-- Node17&#45;&gt;Node15 -->
<g id="edge19" class="edge">
<title>Node17&#45;&gt;Node15</title>
<path fill="none" stroke="midnightblue" d="M792.46,-117.98C747.11,-107.39 669.72,-89.34 620.27,-77.8"/>
<polygon fill="midnightblue" stroke="midnightblue" points="621,-74.37 610.47,-75.51 619.41,-81.19 621,-74.37"/>
</g>
<!-- Node18&#45;&gt;Node7 -->
<g id="edge38" class="edge">
<title>Node18&#45;&gt;Node7</title>
<path fill="none" stroke="midnightblue" d="M1154.1,-182.23C1059.4,-175.04 897.94,-161.41 760,-143 750.84,-141.78 741.16,-140.29 731.75,-138.74"/>
<polygon fill="midnightblue" stroke="midnightblue" points="732.12,-135.25 721.68,-137.04 730.96,-142.15 732.12,-135.25"/>
</g>
<!-- Node18&#45;&gt;Node11 -->
<g id="edge40" class="edge">
<title>Node18&#45;&gt;Node11</title>
<path fill="none" stroke="midnightblue" d="M1193.67,-179.44C1156.11,-171.3 1099.35,-158.07 1051,-143 1048.58,-142.25 1046.09,-141.42 1043.61,-140.55"/>
<polygon fill="midnightblue" stroke="midnightblue" points="1044.73,-137.24 1034.14,-137.1 1042.34,-143.82 1044.73,-137.24"/>
</g>
<!-- Node18&#45;&gt;Node17 -->
<g id="edge25" class="edge">
<title>Node18&#45;&gt;Node17</title>
<path fill="none" stroke="midnightblue" d="M1176.83,-179.48C1102.97,-168.65 975.72,-150 897.32,-138.51"/>
<polygon fill="midnightblue" stroke="midnightblue" points="897.46,-135 887.06,-137.01 896.45,-141.92 897.46,-135"/>
</g>
<!-- Node19 -->
<g id="node19" class="node">
<title>Node19</title>
<g id="a_node19"><a xlink:href="Line_8hpp.html" target="_top" xlink:title=" ">
<polygon fill="white" stroke="black" points="1816,-118 1816,-137 1976,-137 1976,-118 1816,-118"/>
<text text-anchor="middle" x="1896" y="-125" font-family="Helvetica,sans-Serif" font-size="10.00">Common/Drawables/Line.hpp</text>
</a>
</g>
</g>
<!-- Node18&#45;&gt;Node19 -->
<g id="edge26" class="edge">
<title>Node18&#45;&gt;Node19</title>
<path fill="none" stroke="midnightblue" d="M1315.73,-183.77C1426.69,-177.46 1632.45,-164.05 1807,-143 1817.02,-141.79 1827.65,-140.27 1837.93,-138.67"/>
<polygon fill="midnightblue" stroke="midnightblue" points="1838.74,-142.09 1848.07,-137.06 1837.64,-135.18 1838.74,-142.09"/>
</g>
<!-- Node20 -->
<g id="node20" class="node">
<title>Node20</title>
<g id="a_node20"><a xlink:href="Rectangle_8hpp.html" target="_top" xlink:title=" ">
<polygon fill="white" stroke="black" points="1424,-118 1424,-137 1612,-137 1612,-118 1424,-118"/>
<text text-anchor="middle" x="1518" y="-125" font-family="Helvetica,sans-Serif" font-size="10.00">Common/Drawables/Rectangle.hpp</text>
</a>
</g>
</g>
<!-- Node18&#45;&gt;Node20 -->
<g id="edge28" class="edge">
<title>Node18&#45;&gt;Node20</title>
<path fill="none" stroke="midnightblue" d="M1275.55,-179.48C1326.19,-168.83 1412.84,-150.61 1467.68,-139.08"/>
<polygon fill="midnightblue" stroke="midnightblue" points="1468.46,-142.49 1477.53,-137.01 1467.02,-135.64 1468.46,-142.49"/>
</g>
<!-- Node21 -->
<g id="node21" class="node">
<title>Node21</title>
<g id="a_node21"><a xlink:href="Circle_8hpp.html" target="_top" xlink:title=" ">
<polygon fill="white" stroke="black" points="1630.5,-118 1630.5,-137 1797.5,-137 1797.5,-118 1630.5,-118"/>
<text text-anchor="middle" x="1714" y="-125" font-family="Helvetica,sans-Serif" font-size="10.00">Common/Drawables/Circle.hpp</text>
</a>
</g>
</g>
<!-- Node18&#45;&gt;Node21 -->
<g id="edge30" class="edge">
<title>Node18&#45;&gt;Node21</title>
<path fill="none" stroke="midnightblue" d="M1315.7,-179.51C1393.87,-171.07 1515.71,-157.34 1621,-143 1630.84,-141.66 1641.24,-140.14 1651.39,-138.6"/>
<polygon fill="midnightblue" stroke="midnightblue" points="1652.07,-142.04 1661.43,-137.06 1651.01,-135.12 1652.07,-142.04"/>
</g>
<!-- Node22 -->
<g id="node22" class="node">
<title>Node22</title>
<g id="a_node22"><a xlink:href="Sprite_8hpp.html" target="_top" xlink:title=" ">
<polygon fill="white" stroke="black" points="1060,-118 1060,-137 1228,-137 1228,-118 1060,-118"/>
<text text-anchor="middle" x="1144" y="-125" font-family="Helvetica,sans-Serif" font-size="10.00">Common/Drawables/Sprite.hpp</text>
</a>
</g>
</g>
<!-- Node18&#45;&gt;Node22 -->
<g id="edge32" class="edge">
<title>Node18&#45;&gt;Node22</title>
<path fill="none" stroke="midnightblue" d="M1221.96,-179.48C1207.23,-169.84 1183.03,-154.02 1165.49,-142.55"/>
<polygon fill="midnightblue" stroke="midnightblue" points="1167.3,-139.55 1157.01,-137.01 1163.47,-145.41 1167.3,-139.55"/>
</g>
<!-- Node23 -->
<g id="node23" class="node">
<title>Node23</title>
<g id="a_node23"><a xlink:href="Text_8hpp.html" target="_top" xlink:title=" ">
<polygon fill="white" stroke="black" points="1246,-118 1246,-137 1406,-137 1406,-118 1246,-118"/>
<text text-anchor="middle" x="1326" y="-125" font-family="Helvetica,sans-Serif" font-size="10.00">Common/Drawables/Text.hpp</text>
</a>
</g>
</g>
<!-- Node18&#45;&gt;Node23 -->
<g id="edge35" class="edge">
<title>Node18&#45;&gt;Node23</title>
<path fill="none" stroke="midnightblue" d="M1248.04,-179.48C1262.77,-169.84 1286.97,-154.02 1304.51,-142.55"/>
<polygon fill="midnightblue" stroke="midnightblue" points="1306.53,-145.41 1312.99,-137.01 1302.7,-139.55 1306.53,-145.41"/>
</g>
<!-- Node24 -->
<g id="node24" class="node">
<title>Node24</title>
<g id="a_node24"><a xlink:title=" ">
<polygon fill="white" stroke="#bfbfbf" points="1994,-118 1994,-137 2026,-137 2026,-118 1994,-118"/>
<text text-anchor="middle" x="2010" y="-125" font-family="Helvetica,sans-Serif" font-size="10.00">list</text>
</a>
</g>
</g>
<!-- Node18&#45;&gt;Node24 -->
<g id="edge39" class="edge">
<title>Node18&#45;&gt;Node24</title>
<path fill="none" stroke="midnightblue" d="M1315.59,-187.85C1482.72,-186.76 1861.75,-180.15 1985,-143 1986.24,-142.63 1987.49,-142.18 1988.73,-141.68"/>
<polygon fill="midnightblue" stroke="midnightblue" points="1990.46,-144.72 1997.81,-137.09 1987.3,-138.48 1990.46,-144.72"/>
</g>
<!-- Node19&#45;&gt;Node16 -->
<g id="edge27" class="edge">
<title>Node19&#45;&gt;Node16</title>
<path fill="none" stroke="midnightblue" d="M1846.64,-117.98C1833.76,-115.89 1819.88,-113.75 1807,-112 1700.64,-97.57 1578.4,-84.74 1494.48,-76.51"/>
<polygon fill="midnightblue" stroke="midnightblue" points="1494.73,-73.02 1484.44,-75.53 1494.05,-79.98 1494.73,-73.02"/>
</g>
<!-- Node20&#45;&gt;Node16 -->
<g id="edge29" class="edge">
<title>Node20&#45;&gt;Node16</title>
<path fill="none" stroke="midnightblue" d="M1500.09,-117.98C1479.11,-107.99 1444.15,-91.35 1419.91,-79.81"/>
<polygon fill="midnightblue" stroke="midnightblue" points="1421.41,-76.65 1410.88,-75.51 1418.4,-82.97 1421.41,-76.65"/>
</g>
<!-- Node21&#45;&gt;Node16 -->
<g id="edge31" class="edge">
<title>Node21&#45;&gt;Node16</title>
<path fill="none" stroke="midnightblue" d="M1668.01,-117.98C1610.2,-107.26 1511.05,-88.88 1448.92,-77.37"/>
<polygon fill="midnightblue" stroke="midnightblue" points="1449.38,-73.89 1438.91,-75.51 1448.1,-80.77 1449.38,-73.89"/>
</g>
<!-- Node22&#45;&gt;Node9 -->
<g id="edge34" class="edge">
<title>Node22&#45;&gt;Node9</title>
<path fill="none" stroke="midnightblue" d="M1144,-117.82C1144,-99.26 1144,-55.34 1144,-29.97"/>
<polygon fill="midnightblue" stroke="midnightblue" points="1147.5,-29.78 1144,-19.78 1140.5,-29.78 1147.5,-29.78"/>
</g>
<!-- Node22&#45;&gt;Node16 -->
<g id="edge33" class="edge">
<title>Node22&#45;&gt;Node16</title>
<path fill="none" stroke="midnightblue" d="M1179.68,-117.98C1223.87,-107.42 1299.21,-89.41 1347.51,-77.87"/>
<polygon fill="midnightblue" stroke="midnightblue" points="1348.48,-81.24 1357.39,-75.51 1346.85,-74.43 1348.48,-81.24"/>
</g>
<!-- Node23&#45;&gt;Node9 -->
<g id="edge37" class="edge">
<title>Node23&#45;&gt;Node9</title>
<path fill="none" stroke="midnightblue" d="M1312.32,-117.82C1281.23,-98.09 1204.98,-49.7 1166.7,-25.41"/>
<polygon fill="midnightblue" stroke="midnightblue" points="1168.16,-22.19 1157.84,-19.78 1164.41,-28.1 1168.16,-22.19"/>
</g>
<!-- Node23&#45;&gt;Node16 -->
<g id="edge36" class="edge">
<title>Node23&#45;&gt;Node16</title>
<path fill="none" stroke="midnightblue" d="M1335.6,-117.98C1346.05,-108.7 1362.97,-93.67 1375.74,-82.33"/>
<polygon fill="midnightblue" stroke="midnightblue" points="1378.27,-84.77 1383.42,-75.51 1373.62,-79.53 1378.27,-84.77"/>
</g>
<!-- Node25&#45;&gt;Node3 -->
<g id="edge44" class="edge">
<title>Node25&#45;&gt;Node3</title>
<path fill="none" stroke="midnightblue" d="M487.03,-179.48C447.93,-170.46 385.28,-156.01 336.64,-144.79"/>
<polygon fill="midnightblue" stroke="midnightblue" points="337.34,-141.36 326.81,-142.52 335.76,-148.18 337.34,-141.36"/>
</g>
<!-- Node25&#45;&gt;Node11 -->
<g id="edge45" class="edge">
<title>Node25&#45;&gt;Node11</title>
<path fill="none" stroke="midnightblue" d="M571.81,-181.79C579.24,-180.84 586.83,-179.88 594,-179 729.47,-162.3 763.52,-159.61 899,-143 923.96,-139.94 951.98,-136.38 973.99,-133.55"/>
<polygon fill="midnightblue" stroke="midnightblue" points="974.49,-137.02 983.96,-132.27 973.59,-130.07 974.49,-137.02"/>
</g>
<!-- Node25&#45;&gt;Node15 -->
<g id="edge43" class="edge">
<title>Node25&#45;&gt;Node15</title>
<path fill="none" stroke="midnightblue" d="M514.03,-179.29C498.77,-164.87 472.81,-135.32 487,-112 496.46,-96.46 513.21,-86.05 529.5,-79.19"/>
<polygon fill="midnightblue" stroke="midnightblue" points="530.9,-82.4 538.99,-75.55 528.4,-75.87 530.9,-82.4"/>
</g>
<!-- Node25&#45;&gt;Node17 -->
<g id="edge42" class="edge">
<title>Node25&#45;&gt;Node17</title>
<path fill="none" stroke="midnightblue" d="M570.18,-179.46C617.79,-170.59 694.16,-156.19 760,-143 766.14,-141.77 772.59,-140.45 778.97,-139.13"/>
<polygon fill="midnightblue" stroke="midnightblue" points="779.82,-142.53 788.89,-137.06 778.39,-135.67 779.82,-142.53"/>
</g>
<!-- Node26 -->
<g id="node26" class="node">
<title>Node26</title>
<g id="a_node26"><a xlink:title=" ">
<polygon fill="white" stroke="#bfbfbf" points="496,-118 496,-137 546,-137 546,-118 496,-118"/>
<text text-anchor="middle" x="521" y="-125" font-family="Helvetica,sans-Serif" font-size="10.00">dlfcn.h</text>
</a>
</g>
</g>
<!-- Node25&#45;&gt;Node26 -->
<g id="edge46" class="edge">
<title>Node25&#45;&gt;Node26</title>
<path fill="none" stroke="midnightblue" d="M523.57,-179.48C523.15,-171.08 522.49,-157.98 521.94,-147.16"/>
<polygon fill="midnightblue" stroke="midnightblue" points="525.43,-146.82 521.43,-137.01 518.44,-147.17 525.43,-146.82"/>
</g>
</g>
</svg>
