<?xml version="1.0" encoding="UTF-8" standalone="no"?>
<!DOCTYPE svg PUBLIC "-//W3C//DTD SVG 1.1//EN"
 "http://www.w3.org/Graphics/SVG/1.1/DTD/svg11.dtd">
<!-- Generated by graphviz version 2.43.0 (0)
 -->
<!-- Title: sources/Common/Drawables/Sprite.hpp Pages: 1 -->
<svg width="264pt" height="95pt"
 viewBox="0.00 0.00 263.50 95.00" xmlns="http://www.w3.org/2000/svg" xmlns:xlink="http://www.w3.org/1999/xlink">
<g id="graph0" class="graph" transform="scale(1 1) rotate(0) translate(4 91)">
<title>sources/Common/Drawables/Sprite.hpp</title>
<polygon fill="white" stroke="transparent" points="-4,4 -4,-91 259.5,-91 259.5,4 -4,4"/>
<!-- Node1 -->
<g id="node1" class="node">
<title>Node1</title>
<g id="a_node1"><a xlink:title=" ">
<polygon fill="#bfbfbf" stroke="black" points="86.5,-56.5 86.5,-86.5 242.5,-86.5 242.5,-56.5 86.5,-56.5"/>
<text text-anchor="start" x="94.5" y="-74.5" font-family="Helvetica,sans-Serif" font-size="10.00">sources/Common/Drawables</text>
<text text-anchor="middle" x="164.5" y="-63.5" font-family="Helvetica,sans-Serif" font-size="10.00">/Sprite.hpp</text>
</a>
</g>
</g>
<!-- Node2 -->
<g id="node2" class="node">
<title>Node2</title>
<g id="a_node2"><a xlink:href="ADrawable_8hpp.html" target="_top" xlink:title=" ">
<polygon fill="white" stroke="black" points="0,-0.5 0,-19.5 193,-19.5 193,-0.5 0,-0.5"/>
<text text-anchor="middle" x="96.5" y="-7.5" font-family="Helvetica,sans-Serif" font-size="10.00">Common/Drawables/ADrawable.hpp</text>
</a>
</g>
</g>
<!-- Node1&#45;&gt;Node2 -->
<g id="edge1" class="edge">
<title>Node1&#45;&gt;Node2</title>
<path fill="none" stroke="midnightblue" d="M148.38,-56.4C138.1,-47.4 124.75,-35.72 114.17,-26.47"/>
<polygon fill="midnightblue" stroke="midnightblue" points="116.23,-23.61 106.39,-19.66 111.62,-28.88 116.23,-23.61"/>
</g>
<!-- Node3 -->
<g id="node3" class="node">
<title>Node3</title>
<g id="a_node3"><a xlink:title=" ">
<polygon fill="white" stroke="#bfbfbf" points="211.5,-0.5 211.5,-19.5 255.5,-19.5 255.5,-0.5 211.5,-0.5"/>
<text text-anchor="middle" x="233.5" y="-7.5" font-family="Helvetica,sans-Serif" font-size="10.00">string</text>
</a>
</g>
</g>
<!-- Node1&#45;&gt;Node3 -->
<g id="edge2" class="edge">
<title>Node1&#45;&gt;Node3</title>
<path fill="none" stroke="midnightblue" d="M180.85,-56.4C191.4,-47.31 205.1,-35.49 215.88,-26.19"/>
<polygon fill="midnightblue" stroke="midnightblue" points="218.17,-28.84 223.46,-19.66 213.6,-23.54 218.17,-28.84"/>
</g>
</g>
</svg>
